<?xml version="1.0" standalone="no"?>
<!DOCTYPE svg PUBLIC "-//W3C//DTD SVG 1.1//EN" "http://www.w3.org/Graphics/SVG/1.1/DTD/svg11.dtd" >
<svg xmlns="http://www.w3.org/2000/svg" xmlns:xlink="http://www.w3.org/1999/xlink" version="1.1">
<metadata>
Created by FontForge 20161013 at Wed Oct 29 15:19:07 2014
 By ,,,
Copyright (c) 2014 by Josep Patau Bellart. All rights reserved.
</metadata>
<defs>
<font id="Naste" horiz-adv-x="622" >
  <font-face 
    font-family="Naste"
    font-weight="400"
    font-stretch="normal"
    units-per-em="1000"
    panose-1="2 0 0 0 0 0 0 0 0 0"
    ascent="755"
    descent="-245"
    x-height="495"
    cap-height="675"
    bbox="-173 -335 1331 1080"
    underline-thickness="50"
    underline-position="-200"
    unicode-range="U+0020-FB04"
  />
<missing-glyph horiz-adv-x="500" 
d="M50 750h400v-1000h-400v1000zM400 -200v900h-300v-900h300z" />
    <glyph glyph-name="f_f" unicode="ff" horiz-adv-x="606" 
d="M500 393v-394h-119v393h-39v102h39v41q0 94 58 136q59 42 159 42l-10 -102q-44 0 -67 -21t-21 -54v-41h89v-30l-10 -72h-79zM197 392v-394h-119v393h-39v102h39v41q0 94 58 136t159 42l-10 -102q-45 0 -67 -21t-21 -54v-41h89v-30l-10 -72h-79z" />
    <glyph glyph-name="fi" unicode="fi" horiz-adv-x="548" 
d="M426 578h-3q-32 0 -54 22t-22 54t23 53q22 21 54 21q30 0 53 -21t23 -53t-22 -54t-52 -22zM362 495h118v-495h-118v495zM194 393v-394h-119v393h-39v102h39v41q0 94 58 136q59 42 159 42l-10 -102q-44 0 -67 -21t-21 -54v-41h89v-30l-10 -72h-79z" />
    <glyph glyph-name="fl" unicode="fl" horiz-adv-x="551" 
d="M366 714h118v-714h-118v714zM197 393v-394h-119v393h-39v102h39v41q0 94 58 136t159 42l-10 -102q-45 0 -67 -21t-21 -54v-41h89v-30l-10 -72h-79z" />
    <glyph glyph-name="f_f_i" unicode="ffi" horiz-adv-x="856" 
d="M734 578h-3q-32 0 -54 22t-22 54t23 53q22 21 54 21q30 0 53 -21t23 -53t-22 -54t-52 -22zM669 495h119v-495h-119v495zM497 393v-394h-119v393h-39v102h39v41q0 94 58 136t159 42l-10 -102q-45 0 -67 -21t-21 -54v-41h89v-30l-10 -72h-79zM194 392v-394h-119v393h-39
v102h39v41q0 94 58 136q59 42 159 42l-10 -102q-44 0 -67 -21t-21 -54v-41h89v-30l-10 -72h-79z" />
    <glyph glyph-name="f_f_l" unicode="ffl" horiz-adv-x="859" 
d="M674 714h118v-714h-118v714zM500 393v-394h-119v393h-39v102h39v41q0 94 58 136q59 42 159 42l-10 -102q-44 0 -67 -21t-21 -54v-41h89v-30l-10 -72h-79zM197 392v-394h-119v393h-39v102h39v41q0 94 58 136t159 42l-10 -102q-45 0 -67 -21t-21 -54v-41h89v-30l-10 -72
h-79z" />
    <glyph glyph-name=".notdef" horiz-adv-x="500" 
d="M50 750h400v-1000h-400v1000zM400 -200v900h-300v-900h300z" />
    <glyph glyph-name=".null" horiz-adv-x="0" 
 />
    <glyph glyph-name="nonmarkingreturn" horiz-adv-x="333" 
 />
    <glyph glyph-name="space" unicode=" " horiz-adv-x="239" 
 />
    <glyph glyph-name="exclam" unicode="!" horiz-adv-x="252" 
d="M65 574v101h123v-101l-23 -374h-77zM127 -13l-2 -1q-31 0 -54 23t-23 54t23 54q22 22 54 22q31 0 53 -22q23 -23 23 -54q0 -32 -22 -54t-52 -22z" />
    <glyph glyph-name="quotedbl" unicode="&#x22;" horiz-adv-x="384" 
d="M54 574v101h112v-101l-23 -124h-66zM220 574v101h111v-101l-23 -124h-65z" />
    <glyph glyph-name="numbersign" unicode="#" horiz-adv-x="710" 
d="M438 404h-135l-24 -134h135zM394 156h-135l-28 -156h-119l28 156h-106l20 114h106l24 134h-108l20 114h108l28 157h119l-28 -157h135l28 157h121l-28 -157h96l-20 -114h-96l-24 -134h98l-20 -114h-98l-28 -156h-121z" />
    <glyph glyph-name="dollar" unicode="$" horiz-adv-x="630" 
d="M194 497l-1 1q0 -13 6 -25q6 -13 19 -24q12 -10 35 -22q20 -10 53 -21v167h-8q-48 0 -76 -21t-28 -55zM456 191v1q0 38 -27 54q-27 17 -85 30v-173q60 1 86 26q26 24 26 62zM305 -107l-4 94q-67 4 -139 29q-71 24 -133 70l52 98q59 -35 115 -54q57 -19 107 -24v181
q-78 21 -125 45q-48 24 -75 51t-36 56t-9 60q0 39 15 74t45 60q31 26 74 41q44 15 99 15h12v105h39v-108q56 -5 119 -24q63 -20 114 -57l-49 -98q-37 23 -90 40q-48 16 -93 22v-175q68 -19 117 -41q48 -21 74 -45q27 -24 39 -53t12 -63q0 -45 -17 -84q-16 -37 -48 -64
q-31 -26 -76 -40t-100 -15v-96h-39z" />
    <glyph glyph-name="percent" unicode="%" horiz-adv-x="740" 
d="M33 533h-2q0 33 12 61t33 49t51 33t65 12q36 0 66 -12t51 -33t33 -49q12 -29 12 -61q0 -33 -12 -62t-33 -50t-51 -33t-66 -12q-39 0 -69 12q-31 12 -50 33t-30 50q-10 27 -10 62zM209 0h-75l390 675h75zM113 531l-1 -2q0 -37 23 -57q22 -19 54 -19t56 21t24 56
q0 38 -24 57q-25 20 -55 20q-32 0 -54 -21q-23 -21 -23 -55zM384 142h-2q0 32 12 61q12 28 33 49t51 33t65 12q36 0 66 -12t51 -33t33 -49t12 -61q0 -34 -12 -62q-12 -29 -33 -50t-51 -33t-66 -12q-39 0 -69 12q-31 12 -50 33t-30 50q-10 27 -10 62zM542 64l-1 -1
q32 0 56 21t24 56q0 38 -24 57q-25 20 -55 20q-32 0 -54 -21q-23 -21 -23 -56q0 -37 23 -57q22 -19 54 -19z" />
    <glyph glyph-name="ampersand" unicode="&#x26;" horiz-adv-x="709" 
d="M499 78l-4 2q-52 -46 -109 -68q-60 -23 -124 -23q-47 0 -91 14q-41 13 -72 38t-47 57q-17 34 -17 71q0 59 39 107t113 84q-40 40 -58 81t-18 78q0 36 16 67t44 54t65 35q38 12 81 12q46 0 81 -13q37 -14 62 -36q26 -23 39 -52q14 -31 14 -63q0 -49 -30 -97
q-29 -47 -89 -85l105 -96q40 57 71 126l103 -46q-41 -89 -90 -156l104 -95l-85 -90zM313 414l1 -3q32 20 51 43t19 55q0 27 -20 47t-53 20q-30 0 -50 -16q-21 -16 -21 -45q0 -13 5 -26q4 -12 14 -23q9 -10 21 -21q16 -14 26 -24zM280 103l-1 1q38 0 70 13q33 13 63 36
l-148 135q-47 -19 -76 -45q-28 -25 -28 -60q0 -18 9 -33q8 -14 26 -25q15 -9 38 -16q21 -6 47 -6z" />
    <glyph glyph-name="quotesingle" unicode="'" horiz-adv-x="220" 
d="M54 574v101h111v-101l-23 -124h-65z" />
    <glyph glyph-name="parenleft" unicode="(" horiz-adv-x="372" 
d="M309 -276l-2 -2q-131 88 -201 213q-71 125 -71 282q0 158 69 284q69 127 198 212l62 -90q-54 -39 -94 -84q-39 -43 -63 -93q-25 -51 -35 -106q-11 -60 -11 -121q0 -64 12 -121q12 -56 36 -106t63 -93q40 -45 93 -83z" />
    <glyph glyph-name="parenright" unicode=")" horiz-adv-x="372" 
d="M7 -184l-2 1q53 38 93 83q39 44 63 93q24 50 36 106q12 57 12 121q0 61 -11 121q-10 56 -35 107q-24 50 -63 93q-40 45 -94 84l62 90q129 -85 198 -212q69 -126 69 -284q0 -157 -71 -282q-70 -125 -201 -213z" />
    <glyph glyph-name="asterisk" unicode="*" horiz-adv-x="428" 
d="M289 486l63 -86l-74 -53l-62 87l-63 -87l-73 53l62 85l-103 34l28 86l103 -33v108h90v-108l100 32l28 -86z" />
    <glyph glyph-name="plus" unicode="+" horiz-adv-x="498" 
d="M302 189v-152h-107v152h-152v109h152v152h107v-152h154v-109h-154z" />
    <glyph glyph-name="comma" unicode="," horiz-adv-x="250" 
d="M74 -104l2 -1q18 23 30 45t18 48q-30 1 -52 23q-21 21 -21 53t22 53q23 21 54 21q32 0 53 -25t21 -60q0 -48 -24 -93q-24 -44 -81 -88z" />
    <glyph glyph-name="hyphen" unicode="-" horiz-adv-x="530" 
d="M59 301h413v-113h-413v113z" />
    <glyph glyph-name="period" unicode="." horiz-adv-x="249" 
d="M125 -13v-1q-31 0 -54 23q-22 22 -22 54t22 54t54 22t54 -22t22 -54t-22 -54t-54 -22z" />
    <glyph glyph-name="slash" unicode="/" horiz-adv-x="367" 
d="M230 675h99l-192 -675h-99z" />
    <glyph glyph-name="zero" unicode="0" horiz-adv-x="693" 
d="M346 -13h-2q-63 0 -116 22q-55 23 -95 66t-64 109t-24 154q0 87 24 153t65 110q40 43 95 66q53 22 116 22t117 -22q56 -23 96 -66q41 -44 65 -110t24 -153q0 -88 -24 -154t-64 -109q-41 -43 -96 -66q-54 -22 -117 -22zM344 104l-6 -2q36 0 68 15t56 45q25 31 38 73
q14 45 14 101q0 59 -13 101q-14 44 -37 73q-24 30 -55 45t-67 15t-67 -15t-55 -45q-23 -29 -37 -73q-13 -42 -13 -100q0 -55 14 -100q14 -44 37 -73q24 -30 55 -45q32 -15 68 -15z" />
    <glyph glyph-name="one" unicode="1" horiz-adv-x="462" 
d="M78 0v113h120v432l-123 -69l-52 99l175 100h123v-562h117v-113h-360z" />
    <glyph glyph-name="two" unicode="2" horiz-adv-x="604" 
d="M59 0l-5 106q0 58 27 102t67 75q43 34 88 56t88 48q38 22 67 50q27 25 27 60t-33 54q-34 20 -83 20q-26 0 -50 -4q-23 -4 -55 -14q-27 -9 -55 -24q-27 -15 -51 -36l-58 82q64 58 136 85t144 27q53 0 96 -15q45 -15 75 -40q32 -26 48 -60q17 -36 17 -75q0 -53 -27 -90
t-66 -66q-40 -29 -85 -51q-40 -20 -85 -47q-38 -23 -66 -53q-27 -28 -27 -69v-8h366v-113h-500z" />
    <glyph glyph-name="three" unicode="3" horiz-adv-x="599" 
d="M304 -13l-3 -3q-65 0 -137 24t-135 78l55 83q53 -38 110 -53t101 -15q30 0 54 8q23 8 38 21q14 13 22 30q7 15 7 33q0 45 -46 72t-132 27v107q58 0 92 9t54 24q19 14 25 32q6 16 6 32q0 22 -10 36q-11 15 -27 24q-15 8 -39 13q-20 4 -48 4q-57 0 -99 -16t-91 -45l-49 93
q55 41 116 62q62 21 137 21q49 0 93 -12q46 -13 77 -34q32 -22 52 -56q19 -32 19 -78q0 -50 -26 -93q-26 -42 -78 -69q50 -26 77 -65t27 -90q0 -36 -15 -72t-45 -66t-75 -48t-107 -18z" />
    <glyph glyph-name="four" unicode="4" 
d="M374 520l-212 -268h212v268zM497 138v-138h-123v138h-349v114l342 423h130v-423h89v-114h-89z" />
    <glyph glyph-name="five" unicode="5" horiz-adv-x="599" 
d="M285 -13v3q-72 0 -135 21q-62 21 -124 66l57 88q53 -34 105 -49q51 -15 99 -15q40 0 71 11q30 10 48 27t27 36t9 39q0 52 -53 85t-147 33q-37 0 -76 -6q-40 -6 -73 -19l-15 -6l38 375h413l-12 -113h-296l-13 -123q20 2 31 3t33 1q66 0 120 -17q51 -16 90 -47
q37 -30 57 -71q20 -42 20 -89q0 -44 -16 -85t-50 -75t-85 -53q-54 -20 -123 -20z" />
    <glyph glyph-name="six" unicode="6" horiz-adv-x="633" 
d="M591 226l-2 -3q0 -59 -19 -103q-20 -45 -54 -75t-81 -45t-99 -15q-60 0 -112 18t-93 54t-63 90q-23 55 -23 127v9q0 118 28 195q28 76 77 124q48 46 113 66q63 19 138 19q46 0 85 -6q42 -7 84 -19l-38 -109q-34 11 -69 15q-38 5 -63 5q-34 0 -69 -8q-32 -7 -60 -26
q-27 -18 -48 -48t-33 -74q28 11 66 19q32 7 71 7q56 0 102 -13q49 -14 84 -40q36 -27 57 -68q21 -40 21 -96zM317 101h-5q25 0 54 8q26 7 48 23q21 15 33 36t12 48q0 26 -12 45t-33 33t-48 21q-25 7 -57 7q-63 0 -101 -27t-38 -68q0 -28 12 -52q11 -22 32 -40q18 -15 47 -25
q27 -9 56 -9z" />
    <glyph glyph-name="seven" unicode="7" horiz-adv-x="580" 
d="M81 0l315 562h-365v113h554l-378 -675h-126z" />
    <glyph glyph-name="eight" unicode="8" horiz-adv-x="649" 
d="M328 -13l2 1q-59 0 -110 12q-50 12 -90 38q-38 25 -61 63q-22 37 -22 89q0 62 33 101t89 59q-44 23 -69 58t-25 90q0 46 20 83q19 36 54 60q34 24 80 36q45 12 96 12q53 0 98 -12q46 -12 80 -36q35 -24 54 -60q20 -37 20 -82q0 -54 -24 -90t-65 -57q55 -20 86 -58
q32 -40 32 -102q0 -53 -22 -91t-60 -64q-39 -26 -88 -38q-51 -12 -108 -12zM326 407v1q51 0 87 21t36 62q0 39 -36 60t-87 21q-26 0 -48 -6q-24 -6 -39 -16q-18 -11 -26 -25q-9 -15 -9 -34q0 -21 9 -36t26 -26q15 -10 39 -16q22 -6 48 -6zM326 106l-1 -1q31 0 60 6
q28 6 49 18q20 12 33 29q12 16 12 39t-12 39q-13 17 -33 29q-21 12 -49 18q-29 6 -60 6t-58 -6t-48 -18q-22 -12 -33 -28q-12 -17 -12 -39t12 -39q13 -17 33 -29q21 -12 48 -18t59 -6z" />
    <glyph glyph-name="nine" unicode="9" horiz-adv-x="632" 
d="M313 571l-1 -1q-26 0 -53 -8q-23 -7 -46 -23q-21 -15 -33 -36t-12 -49q0 -26 12 -45t33 -33t48 -21q25 -7 57 -7q64 0 101 27q38 27 38 68q0 28 -12 52q-13 26 -31 41q-21 18 -46 26q-27 9 -55 9zM230 -14l1 -1q-46 0 -85 6q-36 5 -84 20l38 109q34 -10 69 -15
q38 -5 63 -5q35 0 70 8q32 7 60 26q27 18 48 48t33 74q-28 -11 -66 -19q-32 -7 -72 -7q-56 0 -102 13q-49 14 -84 40q-36 27 -57 68t-21 98q0 58 20 104q19 45 54 75t81 45t99 15q59 0 111 -18q53 -18 92 -54t63 -90t24 -127v-9q0 -118 -28 -195q-28 -78 -76 -124t-113 -66
q-63 -19 -138 -19z" />
    <glyph glyph-name="colon" unicode=":" horiz-adv-x="262" 
d="M132 356l-1 -1q-31 0 -54 23q-22 22 -22 54q0 31 23 54q22 22 54 22t54 -22t22 -54t-22 -54t-54 -22zM131 -14l-1 -1q-31 0 -54 23q-22 22 -22 54q0 31 23 54q22 22 54 22t54 -22t22 -54t-22 -54t-54 -22z" />
    <glyph glyph-name="semicolon" unicode=";" horiz-adv-x="264" 
d="M132 356l-1 -1q-31 0 -54 23q-22 22 -22 54q0 31 23 54q22 22 54 22t54 -22t22 -54t-22 -54t-54 -22zM80 -105l2 -1q18 22 30 45t18 48q-30 1 -52 23q-21 21 -21 53t23 53q22 21 54 21t53 -25q21 -26 21 -60q0 -48 -24 -93q-24 -44 -81 -88z" />
    <glyph glyph-name="less" unicode="&#x3c;" horiz-adv-x="539" 
d="M39 185v131l442 162v-123l-335 -105l331 -102v-123z" />
    <glyph glyph-name="equal" unicode="=" horiz-adv-x="538" 
d="M62 415h413v-113h-413v113zM62 187h413v-113h-413v113z" />
    <glyph glyph-name="greater" unicode="&#x3e;" horiz-adv-x="537" 
d="M61 148l331 102l-335 105v123l441 -162v-131l-437 -160v123z" />
    <glyph glyph-name="question" unicode="?" horiz-adv-x="561" 
d="M200 171l2 195q100 0 153 33t53 86q0 41 -31 63q-32 23 -94 23q-59 0 -104 -16q-47 -17 -89 -48l-59 91q55 47 119 68t132 21q62 0 107 -15t75 -42t45 -63t15 -77q0 -39 -13 -72q-14 -35 -40 -63q-27 -29 -67 -48t-96 -27v-109h-108zM257 -16v-1q-30 0 -51 21t-21 50
t21 50t51 21q29 0 48 -21q20 -22 20 -49q0 -28 -20 -50q-19 -21 -48 -21z" />
    <glyph glyph-name="at" unicode="@" horiz-adv-x="824" 
d="M382 -88l-7 3q-80 0 -142 25q-63 25 -106 70q-44 45 -66 106q-23 63 -23 135q0 77 26 141t73 108q48 45 116 69q67 24 153 24q76 0 144 -21t117 -61q49 -41 78 -99q28 -57 28 -135q0 -47 -10 -86q-11 -41 -30 -71t-48 -48t-63 -18q-30 0 -58 12t-45 33q-27 -23 -61 -36
q-33 -13 -70 -13q-39 0 -75 15t-63 42q-26 26 -43 63q-16 35 -16 80q0 43 16 78q17 37 43 63q27 27 63 42t75 15t71 -13q33 -13 60 -36l7 37h64v-256q0 -20 10 -33t25 -13q21 0 36 12t24 31q10 21 14 45q5 28 5 54q0 63 -21 111q-21 49 -60 80t-93 48q-56 17 -120 17
q-75 0 -132 -21t-95 -59q-37 -38 -57 -90q-19 -51 -19 -114q0 -58 18 -108q18 -49 53 -86q34 -36 86 -57q51 -21 118 -21v-64zM383 357l-1 1q-21 0 -39 -9t-30 -24q-13 -16 -20 -33t-7 -39q0 -19 8 -40q7 -17 20 -34q12 -15 30 -24t39 -9q20 0 39 8q18 8 32 23t21 34
q8 21 8 42t-8 42q-7 19 -21 33q-13 13 -32 21t-39 8z" />
    <glyph glyph-name="A" unicode="A" horiz-adv-x="699" 
d="M350 552l-115 -290h230zM509 150h-319l-59 -150h-130l283 675h131l283 -675h-129z" />
    <glyph glyph-name="B" unicode="B" horiz-adv-x="698" 
d="M82 675l348 -2q44 0 78 -15t58 -40q24 -26 36 -58q12 -33 12 -69q0 -39 -13 -72q-13 -35 -39 -60q48 -23 74 -68q26 -46 26 -96q0 -38 -13 -73q-13 -36 -39 -63q-25 -26 -63 -43q-36 -16 -87 -16h-378v675zM203 561v-166h207q17 0 33 8t24 19q10 13 14 27q5 17 5 29
t-5 29q-5 15 -15 27q-10 11 -27 19q-18 8 -39 8h-197zM203 282l-1 -176h242q21 0 39 8q16 7 27 20t17 29q6 17 6 33q0 36 -21 61t-66 25h-243z" />
    <glyph glyph-name="C" unicode="C" horiz-adv-x="693" 
d="M670 94l-2 -3q-48 -50 -121 -78q-72 -28 -153 -28q-74 0 -140 26q-64 25 -114 72q-49 46 -78 110q-28 62 -28 140q0 83 30 149q30 65 80 111q49 45 113 69q63 24 129 24q41 0 77 -7q42 -8 77 -22q39 -16 71 -36q35 -22 60 -46l-86 -81q-18 18 -42 33t-51 24
q-30 10 -54 14q-30 5 -51 5q-44 0 -85 -18t-72 -49t-49 -75t-18 -94q0 -52 19 -93q20 -42 51 -72t74 -48q42 -18 89 -18q22 0 50 5q23 4 51 14q25 9 48 24q23 16 39 34z" />
    <glyph glyph-name="D" unicode="D" horiz-adv-x="753" 
d="M205 563l-1 -450h180q44 0 81 18q38 18 65 48t42 71q15 40 15 87t-15 87t-42 72q-27 31 -64 49q-38 18 -81 18h-180zM81 676l300 3q69 0 129 -27t105 -72q45 -46 71 -107q26 -63 26 -132q0 -72 -25 -132q-25 -61 -69 -108q-42 -45 -104 -73q-60 -27 -130 -27h-303v675z
" />
    <glyph glyph-name="E" unicode="E" horiz-adv-x="612" 
d="M82 675h478v-112h-355v-164h335v-113h-335v-174h358v-112h-481v675z" />
    <glyph glyph-name="F" unicode="F" horiz-adv-x="595" 
d="M205 256v-256h-123v675h466v-112h-343v-194h323v-113h-323z" />
    <glyph glyph-name="G" unicode="G" horiz-adv-x="745" 
d="M691 85l-2 -4q-24 -24 -55 -41t-70 -31q-35 -13 -78 -19q-40 -6 -80 -6q-80 0 -147 27t-117 75t-78 112q-28 63 -28 141q0 76 28 139q28 64 77 111q48 47 114 72q67 26 143 26q93 0 168 -28q76 -28 127 -82l-83 -77q-15 16 -39 30q-27 15 -52 23q-32 10 -58 14
q-33 5 -57 5q-52 0 -96 -18q-43 -18 -75 -50q-31 -31 -49 -73t-18 -90q0 -49 18 -93q17 -42 50 -76q31 -33 77 -51q45 -18 99 -18q41 0 82 10q43 10 76 30v110h-141v112h264v-280z" />
    <glyph glyph-name="H" unicode="H" horiz-adv-x="774" 
d="M569 287h-364v-287h-123v675h123v-275h364v275h123v-675h-123v287z" />
    <glyph glyph-name="I" unicode="I" horiz-adv-x="286" 
d="M82 675h123v-675h-123v675z" />
    <glyph glyph-name="J" unicode="J" horiz-adv-x="562" 
d="M269 -13l1 -1q-35 0 -75 8q-35 7 -72 23q-32 14 -64 38q-30 22 -52 49l71 77q34 -36 81 -57t87 -21q23 0 45 8q21 7 38 23t26 39q9 24 9 57v444h123v-451q0 -63 -18 -108q-18 -44 -48 -73q-30 -28 -69 -42q-38 -13 -83 -13z" />
    <glyph glyph-name="K" unicode="K" horiz-adv-x="680" 
d="M288 275l-83 -87v-188h-123v675h123v-319l308 319h159l-298 -310l317 -365h-160z" />
    <glyph glyph-name="L" unicode="L" horiz-adv-x="571" 
d="M82 675h123v-563h347v-112h-470v675z" />
    <glyph glyph-name="M" unicode="M" horiz-adv-x="918" 
d="M205 472v-472h-123v675h126l251 -456l251 456h126v-675h-123v473l-222 -407h-65z" />
    <glyph glyph-name="N" unicode="N" horiz-adv-x="775" 
d="M205 495v-495h-123v675h123l364 -496v496h123v-675h-123z" />
    <glyph glyph-name="O" unicode="O" horiz-adv-x="796" 
d="M397 -13l-2 -1q-75 0 -141 27t-114 75q-49 49 -77 111t-28 137q0 70 29 136q28 63 77 112q48 48 114 75t141 27t141 -27t114 -75q49 -49 77 -112q29 -66 29 -136q0 -74 -28 -136t-77 -111q-48 -48 -114 -75t-141 -27zM395 102q47 0 91 18q43 18 75 50t50 75t18 91t-18 91
t-50 75t-75 50t-91 18t-90 -18t-74 -50t-50 -75t-18 -91t18 -91t50 -75t74 -50t90 -18z" />
    <glyph glyph-name="P" unicode="P" horiz-adv-x="676" 
d="M205 563l-2 -255h192q31 0 54 12t38 32q16 21 23 43q8 26 8 46q0 24 -7 45q-8 23 -22 39q-15 17 -37 27q-24 11 -54 11h-193zM203 196l-1 -195h-123v675h339q53 0 95 -21q43 -21 71 -54q29 -34 44 -75q15 -42 15 -86t-15 -87q-15 -45 -43 -78q-29 -35 -70 -57t-96 -22
h-216z" />
    <glyph glyph-name="Q" unicode="Q" horiz-adv-x="796" 
d="M304 -1h1q-57 15 -108 47q-48 31 -85 75q-35 42 -55 99t-20 117q0 70 29 136q28 63 77 112q48 48 114 75t141 27t141 -27t114 -75q49 -49 77 -112q29 -66 29 -136q0 -59 -18 -111t-51 -96t-78 -75q-46 -32 -99 -50l56 -13l157 -51v-123zM398 103q48 0 91 18t75 50t50 75
t18 91q0 47 -18 91q-18 43 -50 75t-75 50q-44 18 -91 18q-48 0 -90 -18t-74 -50t-50 -75q-18 -44 -18 -91t18 -91q18 -43 50 -75t74 -50t90 -18z" />
    <glyph glyph-name="R" unicode="R" horiz-adv-x="694" 
d="M205 563l-1 -230h216q23 0 42 11q18 10 30 27q12 16 18 38q6 21 6 42t-6 41t-18 36q-13 17 -30 26q-18 9 -40 9h-217zM415 220l-212 -3v-222h-123v675h357q49 0 86 -18q38 -18 63 -49q26 -32 39 -70q14 -40 14 -79q0 -31 -7 -59q-8 -30 -21 -57t-33 -51q-19 -23 -45 -40
l124 -249h-132z" />
    <glyph glyph-name="S" unicode="S" horiz-adv-x="620" 
d="M80 184l-3 -1q67 -41 135 -61q64 -19 120 -19q63 0 90 24t27 62q0 20 -7 33t-23 24q-15 10 -39 18t-57 15q-85 21 -138 45q-51 24 -82 51q-29 26 -40 57q-10 29 -10 63q0 39 15 74t45 60q31 26 74 41t99 15q33 0 65 -4q33 -4 74 -14q40 -10 75 -25q39 -17 69 -40l-49 -98
q-27 18 -57 29q-35 13 -63 20q-32 7 -60 12q-32 5 -48 5q-47 0 -76 -21q-28 -21 -28 -55q0 -14 6 -27t23 -27q16 -13 43 -25q24 -10 68 -22q74 -21 123 -42t78 -45t41 -53t12 -65q0 -48 -18 -85t-51 -63t-78 -39q-47 -14 -102 -14q-77 0 -156 24t-150 75z" />
    <glyph glyph-name="T" unicode="T" horiz-adv-x="616" 
d="M371 563v-563h-123v563h-231v112h582v-112h-228z" />
    <glyph glyph-name="U" unicode="U" horiz-adv-x="737" 
d="M195 675v-394q0 -46 15 -79q15 -34 39 -56t56 -33q33 -11 68 -11q34 0 67 11q32 11 54 33t36 56q13 32 13 80v392h123v-401q0 -70 -21 -124t-60 -90t-93 -54t-118 -18q-66 0 -121 18t-96 54t-63 90q-22 53 -22 125v401h123z" />
    <glyph glyph-name="V" unicode="V" horiz-adv-x="691" 
d="M2 675h133l212 -544l210 544h132l-278 -675h-131z" />
    <glyph glyph-name="W" unicode="W" horiz-adv-x="1013" 
d="M12 675h133l156 -517l145 517h121l148 -520l154 520h131l-217 -675h-129l-147 521l-146 -521h-131z" />
    <glyph glyph-name="X" unicode="X" horiz-adv-x="686" 
d="M344 248l-195 -248h-153l274 342l-260 333h152l185 -238l182 238h150l-261 -334l270 -341h-150z" />
    <glyph glyph-name="Y" unicode="Y" horiz-adv-x="695" 
d="M409 0h-123v230l-288 445h141l210 -344l210 344h138l-288 -445v-230z" />
    <glyph glyph-name="Z" unicode="Z" horiz-adv-x="612" 
d="M30 0v83l371 480h-357v112h524v-81l-376 -482h390v-112h-552z" />
    <glyph glyph-name="bracketleft" unicode="[" horiz-adv-x="300" 
d="M64 675h195v-107h-72v-711h72v-107h-195v925z" />
    <glyph glyph-name="backslash" unicode="\" horiz-adv-x="367" 
d="M230 0l-192 675h99l192 -675h-99z" />
    <glyph glyph-name="bracketright" unicode="]" horiz-adv-x="300" 
d="M41 -143h72v711h-72v107h195v-925h-195v107z" />
    <glyph glyph-name="asciicircum" unicode="^" horiz-adv-x="532" 
d="M369 320l-104 256l-102 -253h-123l160 352h131l161 -355h-123z" />
    <glyph glyph-name="underscore" unicode="_" horiz-adv-x="583" 
d="M0 -69h583v-107h-583v107z" />
    <glyph glyph-name="grave" unicode="`" horiz-adv-x="265" 
d="M28 696h137l72 -144h-113z" />
    <glyph glyph-name="a" unicode="a" horiz-adv-x="552" 
d="M230 85l1 -3q37 0 72 15q34 15 71 41v90l-123 -15q-21 -1 -39 -6q-17 -4 -31 -12q-13 -7 -21 -20q-7 -11 -7 -31q0 -29 18 -44t59 -15zM394 58h-2q-51 -39 -93 -56q-43 -18 -99 -18q-86 0 -130 42q-43 42 -43 109q0 77 51 117t135 48l159 12v11q0 41 -34 60
q-35 20 -94 20q-34 0 -78 -6q-42 -6 -86 -20l-24 93q51 18 99 26q51 9 103 9q116 0 175 -46q60 -47 60 -127v-335h-73z" />
    <glyph glyph-name="b" unicode="b" 
d="M332 -13l2 -1q-51 0 -99 20q-47 20 -81 51l-20 -58h-69v714h119v-202l-6 -66q32 29 72 45q42 17 87 17q48 0 92 -19q45 -20 81 -54q36 -35 57 -82q21 -48 21 -105t-21 -105t-55 -82t-81 -54q-45 -19 -99 -19zM322 94l-1 3q32 0 59 12q26 12 46 33t30 48q11 28 11 59
q0 30 -11 60q-10 28 -30 49t-46 33q-27 12 -58 12t-58 -12q-26 -12 -46 -33t-30 -49q-11 -30 -11 -60q0 -31 11 -61q10 -28 30 -49t46 -33q27 -12 58 -12z" />
    <glyph glyph-name="c" unicode="c" horiz-adv-x="527" 
d="M503 73v-1q-37 -41 -93 -64q-54 -22 -114 -22q-52 0 -100 18t-84 51q-35 32 -58 81q-22 47 -22 107t22 107q23 48 59 83t84 54q47 19 100 19q55 0 111 -21q55 -21 93 -62l-86 -75q-22 22 -52 37t-65 15q-30 0 -55 -12q-26 -12 -45 -31q-20 -19 -30 -48q-11 -30 -11 -61
q0 -32 11 -60q10 -27 30 -48t46 -33q27 -12 57 -12t60 14t56 36z" />
    <glyph glyph-name="d" unicode="d" 
d="M300 95l-1 -4q31 0 58 12q28 12 47 33q21 22 32 49q12 29 12 61t-12 60q-12 29 -31 49q-20 21 -46 33q-27 12 -58 12q-30 0 -57 -12q-26 -12 -46 -33t-30 -48q-11 -28 -11 -58t11 -60q10 -28 30 -49t45 -33t57 -12zM466 58l-3 -3q-38 -35 -82 -54q-46 -20 -95 -20
q-51 0 -99 20q-47 19 -81 54q-33 33 -55 83q-21 48 -21 105q0 58 21 106t55 82q34 35 81 54q45 19 97 19q44 0 85 -18q39 -17 75 -47l-7 69v202h119v-714h-70z" />
    <glyph glyph-name="e" unicode="e" horiz-adv-x="571" 
d="M291 412h-1q-53 0 -86 -35q-34 -35 -44 -84l250 9q-13 53 -44 82q-29 28 -75 28zM517 76h-2q-37 -44 -93 -66q-57 -23 -118 -23q-52 0 -102 18t-87 51t-60 81q-23 49 -23 107q0 62 21 111q21 50 57 83t83 51q46 18 98 18q53 0 98 -19q47 -20 81 -57t54 -93t18 -128h-384
q13 -55 57 -85q43 -30 102 -30q74 0 122 51z" />
    <glyph glyph-name="f" unicode="f" horiz-adv-x="303" 
d="M197 393v-394h-119v393h-39v102h39v41q0 94 58 136t159 42l-10 -102q-45 0 -67 -21t-21 -54v-41h89v-30l-10 -72h-79z" />
    <glyph glyph-name="g" unicode="g" 
d="M304 400l-1 -4q-32 0 -59 -12q-26 -12 -46 -33q-19 -20 -31 -49q-12 -28 -12 -60q0 -31 12 -58q12 -28 31 -48q19 -21 47 -33q27 -12 59 -12q30 0 56 12t45 33q20 21 30 49q11 30 11 60q0 31 -11 61q-10 28 -30 49q-19 21 -45 33t-56 12zM301 -229l-2 -4q-57 0 -118 12
q-59 11 -120 35l33 93q48 -17 99 -27q49 -10 90 -10q77 0 114 39q38 40 38 98v27q-31 -24 -69 -39t-83 -15q-52 0 -97 19q-46 19 -81 54q-33 33 -55 83q-21 48 -21 105t21 105q21 49 57 83t83 54q48 20 96 20q51 0 96 -19q46 -20 84 -54l20 60h70v-481q0 -56 -16 -98
q-16 -43 -48 -75q-31 -31 -80 -48t-111 -17z" />
    <glyph glyph-name="h" unicode="h" horiz-adv-x="615" 
d="M322 394l-1 1q-41 0 -76 -21t-63 -54v-320h-119v714h119v-200l-6 -85q33 36 77 57t98 21q41 0 77 -12q38 -13 65 -37q29 -26 45 -64q17 -40 17 -93v-301h-118v277q0 31 -9 53q-9 23 -25 36q-17 14 -37 21t-44 7z" />
    <glyph glyph-name="i" unicode="i" horiz-adv-x="249" 
d="M127 578h-3q-32 0 -54 22t-22 54t23 53t54 21t53 -21q23 -21 23 -53t-22 -54t-52 -22zM62 495h119v-495h-119v495z" />
    <glyph glyph-name="j" unicode="j" horiz-adv-x="249" 
d="M126 578h-2q-32 0 -54 22q-23 23 -23 54q0 32 23 53q22 21 54 21q30 0 53 -21t23 -53t-22 -54t-52 -22zM182 -36l1 -2q0 -45 -15 -81q-15 -35 -44 -63q-28 -26 -69 -40q-42 -14 -90 -14v108q41 0 70 27q28 27 28 65v531h119v-531z" />
    <glyph glyph-name="k" unicode="k" horiz-adv-x="567" 
d="M273 206l-89 -94v-112h-119v714h119v-448l219 229h144l-199 -210l221 -285h-136z" />
    <glyph glyph-name="l" unicode="l" horiz-adv-x="252" 
d="M67 714h118v-714h-118v714z" />
    <glyph glyph-name="m" unicode="m" horiz-adv-x="959" 
d="M316 394l3 -3q-39 0 -72 -21q-34 -21 -60 -55v-319h-120v495h81l21 -80q72 93 179 93q52 0 99 -24t72 -75q34 47 81 73q46 25 102 25q38 0 74 -12q37 -12 63 -37q28 -27 44 -64q17 -40 17 -93v-301h-119v277q0 29 -9 52q-9 22 -24 37q-14 14 -35 22q-18 7 -41 7
q-38 0 -69 -21q-33 -22 -60 -52v-9v-9v-301h-120v277q0 30 -9 52t-24 37t-34 22q-18 7 -40 7z" />
    <glyph glyph-name="n" unicode="n" horiz-adv-x="616" 
d="M322 394v-1q-42 0 -76 -21t-63 -54v-320h-119v495h80l21 -80q73 93 186 93q41 0 77 -12q38 -13 65 -37q29 -26 45 -64q17 -40 17 -93v-301h-119v277q0 30 -9 52t-25 37q-16 14 -37 22q-20 7 -43 7z" />
    <glyph glyph-name="o" unicode="o" horiz-adv-x="601" 
d="M300 -13l1 -1q-52 0 -100 18q-47 18 -85 51t-60 81q-22 47 -22 107t22 107q23 49 60 83q38 35 85 54t100 19q55 0 102 -19q48 -19 84 -54t59 -83q22 -47 22 -107q0 -59 -22 -106q-22 -48 -60 -81t-85 -51q-48 -18 -101 -18zM301 94v1q29 0 57 11q26 10 46 30q18 18 31 47
q12 27 12 60t-12 61q-12 29 -31 49q-20 21 -46 33q-27 12 -57 12q-31 0 -56 -12t-45 -33t-30 -49q-11 -30 -11 -61t11 -59t30 -47t45 -31t56 -12z" />
    <glyph glyph-name="p" unicode="p" horiz-adv-x="623" 
d="M321 400l1 3q-30 0 -57 -12q-26 -12 -46 -33q-19 -20 -31 -49t-12 -61q0 -30 11 -60q10 -28 30 -49t46 -33q27 -12 58 -12t58 12q26 12 46 33q19 21 30 48q11 28 11 59q0 30 -11 60q-10 28 -30 49t-46 33q-27 12 -58 12zM185 -233h-122v731h69l20 -58q34 32 81 51
q48 20 99 20q54 0 99 -19q47 -20 81 -54q36 -36 56 -82q21 -48 21 -106q0 -56 -20 -105q-19 -47 -54 -82t-81 -54q-45 -19 -97 -19q-49 0 -87 16q-40 17 -71 42l6 -61v-220z" />
    <glyph glyph-name="q" unicode="q" horiz-adv-x="621" 
d="M439 -236l-1 216l6 62q-31 -25 -71 -42q-38 -16 -87 -16q-52 0 -97 19q-47 19 -81 54q-33 33 -55 83q-21 48 -21 105t21 105t56 83t81 54q48 20 99 20q54 0 99 -19q46 -20 81 -51l19 58h69v-731h-118zM300 396l1 -4q-30 0 -57 -12q-26 -12 -46 -33q-19 -20 -31 -49
q-12 -28 -12 -60q0 -30 11 -58q10 -27 30 -48t46 -33q27 -12 58 -12t58 12q26 12 46 33q19 20 31 49t12 60q0 33 -12 61q-12 29 -31 49q-20 21 -46 33q-27 12 -58 12z" />
    <glyph glyph-name="r" unicode="r" horiz-adv-x="377" 
d="M65 0l-1 494h87l27 -100q40 53 87 83q48 30 103 30v-114q-62 0 -108 -27t-76 -69v-297h-119z" />
    <glyph glyph-name="s" unicode="s" horiz-adv-x="516" 
d="M64 150h-7q62 -32 121 -45q58 -13 97 -13q35 0 54 13t19 31q-2 22 -21 33t-60 18q-66 13 -112 32q-44 18 -68 39t-33 45t-9 48q-2 33 12 62q14 30 40 50q27 21 66 33t89 12q24 0 54 -3t60 -9q33 -7 57 -16q28 -11 47 -24l-41 -91q-16 9 -38 15q-26 7 -44 11q-30 6 -45 8
q-22 3 -42 3q-36 0 -63 -11q-25 -11 -24 -33q0 -18 17 -30q16 -12 62 -21q125 -27 176 -67q53 -41 53 -99q1 -33 -12 -61t-42 -49t-67 -33q-39 -12 -88 -12q-26 0 -63 5t-66 13q-35 9 -64 22q-30 13 -58 30z" />
    <glyph glyph-name="t" unicode="t" horiz-adv-x="344" 
d="M321 -13l-1 -1q-118 0 -177 54t-59 142v211h-54v102h54v121l119 40v-161h108v-87l-12 -15h-96v-204q-2 -42 29 -68t89 -26v-108z" />
    <glyph glyph-name="u" unicode="u" horiz-adv-x="607" 
d="M440 79l-1 -3q-75 -92 -182 -92q-39 0 -74 13q-36 14 -64 40q-29 27 -45 69q-17 43 -17 100v287h119v-270q0 -63 33 -93t83 -30q42 0 73 21t57 54v320h119v-495h-80z" />
    <glyph glyph-name="v" unicode="v" horiz-adv-x="525" 
d="M5 495h130l128 -336l127 336h130l-217 -495h-82z" />
    <glyph glyph-name="w" unicode="w" horiz-adv-x="826" 
d="M8 495h130l113 -330l113 330h99l113 -330l113 330h130l-197 -495h-93l-116 355l-116 -355h-93z" />
    <glyph glyph-name="x" unicode="x" horiz-adv-x="539" 
d="M266 163l-122 -163h-140l196 249l-188 246h146l113 -160l113 160h140l-188 -243l199 -252h-146z" />
    <glyph glyph-name="y" unicode="y" horiz-adv-x="515" 
d="M29 -126h1q28 0 56 14t50 36t39 51t27 57l-192 463h130l120 -320l123 320h130l-217 -508q-94 -223 -267 -223v110z" />
    <glyph glyph-name="z" unicode="z" horiz-adv-x="504" 
d="M32 0v102l274 291h-257v102h411v-102l-273 -291h282v-102h-437z" />
    <glyph glyph-name="braceleft" unicode="{" horiz-adv-x="334" 
d="M302 -194l-3 -6q-40 0 -76 12t-63 33q-28 22 -44 51t-16 66v164q2 35 -22 57q-23 22 -58 22v99q35 0 58 22q24 23 23 57v169q0 35 17 66q16 29 44 51q27 21 63 33t77 12v-99q-17 0 -32 -6t-26 -17t-17 -26t-6 -33v-153q0 -37 -20 -68t-48 -53q29 -23 48 -52
q20 -31 20 -66v-155q0 -18 6 -33q5 -13 17 -25q11 -11 26 -17t32 -6v-99z" />
    <glyph glyph-name="bar" unicode="|" horiz-adv-x="249" 
d="M65 714h118v-964h-118v964z" />
    <glyph glyph-name="braceright" unicode="}" horiz-adv-x="334" 
d="M33 -95l-4 7q34 0 59 23q24 23 23 57v159q0 35 20 66q19 30 48 51q-28 22 -48 53t-20 68v149q1 34 -23 59q-24 24 -58 24v99q41 0 77 -12t63 -33q28 -22 44 -51q17 -31 17 -66v-165q-1 -34 23 -57q23 -22 58 -22v-99q-35 0 -58 -22q-24 -22 -22 -57v-168q0 -37 -16 -66
t-44 -51q-27 -21 -63 -33t-76 -12v99z" />
    <glyph glyph-name="asciitilde" unicode="~" horiz-adv-x="506" 
d="M65 234l-1 -1q1 33 11 60q9 25 24 42q14 15 35 25q20 9 41 9q23 0 45 -7l48 -15l48 -15q22 -7 48 -7q16 0 29 10q14 11 17 37h35q0 -68 -27 -105t-80 -37q-26 0 -48 7l-48 15l-48 15q-22 7 -47 7q-20 0 -30 -10q-11 -10 -15 -30h-37z" />
    <glyph glyph-name="uni00A0" unicode="&#xa0;" horiz-adv-x="213" 
 />
    <glyph glyph-name="exclamdown" unicode="&#xa1;" horiz-adv-x="242" 
d="M122 508l-2 -1q31 0 53 -22q23 -23 23 -54q0 -32 -22 -54t-52 -22q-32 0 -54 22q-23 23 -23 54t23 54t54 23zM158 293l23 -374v-101h-123v101l23 374h77z" />
    <glyph glyph-name="cent" unicode="&#xa2;" horiz-adv-x="539" 
d="M503 73l-2 -5q-29 -32 -68 -53q-41 -22 -85 -29v-147h-114v150q-43 9 -78 31q-37 23 -63 55t-43 75q-16 41 -16 92t16 92q17 43 43 75q28 34 63 56q36 23 78 33v143h114v-140q45 -7 84 -27q40 -20 68 -51l-88 -75q-21 22 -51 36q-31 14 -64 14q-29 0 -55 -12
q-27 -13 -44 -31q-19 -20 -29 -48q-11 -30 -11 -61q0 -32 11 -60t30 -47t45 -31t56 -12q32 0 61 13q31 14 56 36z" />
    <glyph glyph-name="sterling" unicode="&#xa3;" horiz-adv-x="660" 
d="M52 0l-2 92l110 11l-28 171h-88v98l71 7l-9 52q-11 65 9 113q20 49 57 80q38 32 87 47t102 15q75 0 140 -27t113 -75l-61 -78q-49 31 -97 47q-53 17 -93 17q-29 0 -53 -7t-45 -23q-19 -15 -30 -39t-6 -57l10 -60h149v-99l-132 -5l29 -173h208l9 140h95v-247h-545z" />
    <glyph glyph-name="currency" unicode="&#xa4;" horiz-adv-x="689" 
d="M485 115l-3 3q-31 -19 -68 -30q-34 -10 -75 -10q-37 0 -72 9q-33 9 -66 26l-69 -69l-83 83l66 66q-19 28 -30 65q-11 38 -11 78q0 42 12 79q11 36 32 69l-68 67l83 83l71 -70q33 17 66 26q34 9 71 9q40 0 74 -10q37 -11 68 -30l73 73l83 -83l-71 -71q20 -30 30 -66
q11 -38 11 -78q0 -80 -39 -138l69 -70l-83 -83zM338 188l-1 2q29 0 57 11q26 10 46 30q18 18 31 47q12 27 12 59q0 31 -11 61q-10 28 -30 49t-46 33q-27 12 -58 12q-30 0 -56 -12t-45 -33q-20 -21 -30 -49q-11 -30 -11 -61t11 -59t30 -47t45 -31t56 -12z" />
    <glyph glyph-name="yen" unicode="&#xa5;" horiz-adv-x="696" 
d="M412 102v-102h-123v102h-203v102h203v46l-17 28h-186v102h125l-176 295h128l188 -330l185 330h130l-176 -295h108v-102h-169l-17 -28v-46h186v-102h-186z" />
    <glyph glyph-name="brokenbar" unicode="&#xa6;" horiz-adv-x="259" 
d="M68 675h123v-288h-123v288zM68 306h123v-306h-123v306z" />
    <glyph glyph-name="section" unicode="&#xa7;" horiz-adv-x="598" 
d="M174 236l-2 -3q0 -18 7 -31q7 -14 24 -24q18 -11 45 -20q22 -7 72 -19q27 2 44 7q22 7 35 16q15 10 24 24t9 30q0 26 -14 45q-13 17 -44 31q-24 11 -47 14q-24 3 -50 3q-45 0 -74 -21t-29 -52zM297 -235l-6 -7q-62 0 -128 21q-67 21 -125 63l55 101q52 -31 99 -50
q51 -20 90 -20q38 0 63 19q26 20 26 51q-2 28 -22 41q-21 14 -70 27q-74 19 -124 47q-48 27 -75 57q-28 31 -38 60t-10 57q0 49 28 89q28 41 81 60q-33 31 -46 65q-12 33 -12 61q0 33 14 66q14 32 39 56q26 24 63 39q38 15 86 15q24 0 54 -3q26 -3 61 -11q32 -7 63 -21
q33 -14 59 -33l-46 -105q-40 28 -90 42q-51 14 -92 14q-38 0 -56 -15t-18 -41q0 -13 5 -25q4 -10 16 -19q10 -8 32 -16q24 -9 50 -17q69 -20 113 -45q45 -26 72 -54t39 -60q12 -31 12 -65q0 -52 -27 -88t-74 -56q26 -26 36 -55q11 -31 11 -61q0 -41 -15 -75t-42 -58
q-28 -25 -66 -38t-85 -13z" />
    <glyph glyph-name="dieresis" unicode="&#xa8;" horiz-adv-x="434" 
d="M110 572v-1q-32 0 -54 21q-23 21 -23 56q0 31 23 54q22 22 54 22q29 0 51 -22q23 -23 23 -54q0 -34 -23 -55t-51 -21zM326 571v-1q-32 0 -54 21q-23 21 -23 56q0 31 23 54q22 22 54 22q29 0 51 -22q23 -23 23 -54q0 -34 -23 -55t-51 -21z" />
    <glyph glyph-name="copyright" unicode="&#xa9;" horiz-adv-x="786" 
d="M393 -13v-1q-71 0 -136 27q-64 27 -112 75t-75 111t-27 137q0 72 27 136t75 112t112 75t136 27q73 0 138 -27q64 -27 112 -75t75 -112q27 -65 27 -136q0 -73 -27 -136t-75 -111t-112 -75q-65 -27 -138 -27zM393 20l-3 -1q66 0 122 25t100 69t68 101t24 122q0 66 -25 122
q-26 59 -67 101q-42 43 -99 69q-56 25 -121 25t-121 -25q-57 -26 -99 -69q-41 -42 -67 -101q-25 -56 -25 -122t25 -122q25 -55 68 -100q42 -44 99 -69q56 -25 121 -25zM561 183h-3q-31 -31 -72 -49q-40 -18 -89 -18q-43 0 -85 17q-41 17 -71 45t-48 69t-18 87t18 87
q18 40 48 70q31 31 71 47q42 17 86 17q48 0 90 -18q41 -18 72 -50l-59 -59q-17 23 -45 35t-58 12q-27 0 -52 -11q-24 -10 -42 -30q-19 -20 -29 -45q-10 -24 -10 -54q0 -28 11 -55q10 -25 29 -45q18 -19 42 -30q23 -10 53 -10q28 0 57 12q30 13 47 34z" />
    <glyph glyph-name="ordfeminine" unicode="&#xaa;" horiz-adv-x="365" 
d="M166 454v-1q14 0 27 5q14 5 26 12v52l-39 -6q-18 -1 -33 -8q-13 -6 -13 -26q0 -9 8 -19q8 -9 24 -9zM234 426v-2q-46 -28 -96 -28q-47 0 -72 23q-24 23 -24 56q0 39 29 60q29 22 77 26l71 5v18q0 16 -12 23q-13 8 -41 8q-20 0 -45 -3q-23 -3 -48 -11l-14 67q29 10 56 14
q32 5 57 5q65 0 99 -26q33 -25 33 -71v-187h-55z" />
    <glyph glyph-name="guillemotleft" unicode="&#xab;" horiz-adv-x="533" 
d="M31 182v138l218 158v-125l-155 -102l155 -98v-128zM275 182v138l219 158v-125l-156 -102l155 -98v-128z" />
    <glyph glyph-name="logicalnot" unicode="&#xac;" horiz-adv-x="672" 
d="M483 76v225h-426v108h545v-333h-119z" />
    <glyph glyph-name="registered" unicode="&#xae;" horiz-adv-x="786" 
d="M393 -13v-1q-71 0 -136 27q-64 27 -112 75t-75 111t-27 137q0 72 27 136t75 112t112 75t136 27q73 0 138 -27q64 -27 112 -75t75 -112q27 -65 27 -136q0 -73 -27 -136t-75 -111t-112 -75q-65 -27 -138 -27zM393 20l-3 -1q66 0 122 25t100 69t68 101t24 122q0 66 -25 122
q-26 59 -67 101q-42 43 -99 69q-56 25 -121 25t-121 -25q-57 -26 -99 -69q-41 -42 -67 -101q-25 -56 -25 -122t25 -122q25 -55 68 -100q42 -44 99 -69q56 -25 121 -25zM313 468v-127h117q25 0 37 21t12 45q0 23 -12 42t-37 19h-117zM408 271l-98 -1v-141h-79v406h217
q25 0 47 -11t36 -28t22 -40q8 -24 8 -47q0 -37 -18 -75t-52 -54l73 -150h-87z" />
    <glyph glyph-name="macron" unicode="&#xaf;" horiz-adv-x="381" 
d="M42 659h297v-90h-297v90z" />
    <glyph glyph-name="degree" unicode="&#xb0;" horiz-adv-x="398" 
d="M38 532l-2 -1q0 33 12 61t33 49t51 33t65 12q36 0 66 -12t51 -33t33 -49t12 -61t-12 -61q-12 -29 -33 -50t-51 -33t-66 -12q-39 0 -69 12q-31 12 -50 33t-30 50q-10 27 -10 62zM196 453h-2q34 0 56 21q23 21 23 55q0 37 -23 57t-56 20q-32 0 -54 -21q-23 -21 -23 -56
q0 -36 23 -56t56 -20z" />
    <glyph glyph-name="plusminus" unicode="&#xb1;" horiz-adv-x="498" 
d="M297 262v-130h-104v130h-136v105h136v128h104v-128h143v-105h-143zM57 89h383v-89h-383v89z" />
    <glyph glyph-name="two.sups" unicode="&#xb2;" horiz-adv-x="338" 
d="M41 340l-1 58q0 28 12 49t30 36t39 27q6 3 19 10.5t20 11.5q18 10 30 21t12 24q0 14 -12 23t-32 9q-24 0 -51 -8q-25 -7 -48 -27l-41 53q36 31 78 45q44 14 79 14q58 0 92 -28q35 -29 35 -73q0 -26 -12 -44q-13 -19 -30 -32q-18 -13 -39 -24t-39 -21q-19 -11 -30 -22
q-12 -12 -12 -27h165v-75h-264z" />
    <glyph glyph-name="three.sups" unicode="&#xb3;" horiz-adv-x="339" 
d="M171 332l-9 -6q-34 0 -75 12q-40 12 -75 41l39 55q28 -17 54 -23q27 -6 47 -6q27 0 39 9t12 26q0 16 -18 27q-17 10 -53 10v64q23 0 38 3q14 3 22 9q7 6 10 13q3 8 3 15q0 14 -13 20q-14 6 -33 6q-29 0 -50 -6q-27 -8 -47 -16l-34 61q28 17 68 28q36 10 77 10q23 0 50 -5
q24 -5 42 -15q17 -10 28 -27t11 -39q0 -26 -15 -49q-15 -22 -40 -37q26 -14 41 -33t15 -45q0 -17 -8 -36q-7 -18 -24 -33t-42 -24t-60 -9z" />
    <glyph glyph-name="acute" unicode="&#xb4;" horiz-adv-x="265" 
d="M28 551l72 144h137l-96 -144h-113z" />
    <glyph glyph-name="mu" unicode="&#xb5;" horiz-adv-x="613" 
d="M184 -36l-1 -3q0 -45 -15 -81q-15 -35 -44 -63q-28 -26 -69 -40q-42 -14 -90 -14v108q22 0 39 7q18 8 31 19q13 12 21 29q8 18 8 36v531h119v-270q0 -31 9 -54t24 -38q14 -14 36 -22q20 -7 44 -7q39 0 72 21q32 20 60 53v320h119v-495h-80l-21 79q-38 -45 -84 -69
t-98 -24q-21 0 -40 4q-22 5 -40 13v-40z" />
    <glyph glyph-name="paragraph" unicode="&#xb6;" horiz-adv-x="773" 
d="M552 568l-74 3v-803h-119v401h-65q-62 0 -112 24t-83 62q-33 37 -51 84t-18 92q0 46 18 89q18 44 52 78q35 35 84 56q50 21 111 21h428v-107h-50v-803h-121v803z" />
    <glyph glyph-name="periodcentered" unicode="&#xb7;" horiz-adv-x="254" 
d="M128 243l-1 -1q-31 0 -54 23q-22 22 -22 54q0 31 23 54q22 22 54 22t54 -22t22 -54t-22 -54t-54 -22z" />
    <glyph glyph-name="cedilla" unicode="&#xb8;" horiz-adv-x="244" 
d="M51 -124l-2 -1q13 -12 27 -15t27 -3q14 0 24 7t10 21t-19 21q-18 7 -54 7l27 89h52l-15 -51q50 -3 69 -21q20 -18 20 -43q0 -31 -29 -55q-28 -24 -75 -24q-29 0 -49 9q-18 8 -28 20z" />
    <glyph glyph-name="one.sups" unicode="&#xb9;" horiz-adv-x="272" 
d="M54 340v75h52v175l-52 -29l-39 65l91 50h92v-261h52v-75h-196z" />
    <glyph glyph-name="ordmasculine" unicode="&#xba;" horiz-adv-x="367" 
d="M39 545v-1q0 29 11 56q10 26 30 45t45 30q27 11 57 11q31 0 59 -11q26 -10 46 -30q19 -19 30 -45q11 -27 11 -56q0 -32 -10 -58t-30 -46t-46 -30q-28 -11 -60 -11q-35 0 -62 12t-45 33t-27 47q-9 25 -9 54zM183 472l-3 -2q29 0 48 19q20 20 20 51q0 35 -19 54t-48 19
t-47 -20q-17 -19 -19 -51q0 -34 20 -52q19 -18 48 -18z" />
    <glyph glyph-name="guillemotright" unicode="&#xbb;" horiz-adv-x="533" 
d="M284 153l155 98l-156 102v125l219 -158v-138l-218 -157v128zM39 153l155 99l-155 101v125l218 -158v-138l-218 -157v128z" />
    <glyph glyph-name="onequarter" unicode="&#xbc;" horiz-adv-x="745" 
d="M409 675h99l-192 -675h-99zM54 340v75h52v175l-52 -29l-39 65l91 50h92v-261h52v-75h-196zM592 239l-82 -100h82v100zM683 65v-65h-91v65h-173v74l167 197h97v-197h34v-74h-34z" />
    <glyph glyph-name="onehalf" unicode="&#xbd;" horiz-adv-x="764" 
d="M410 675h99l-192 -675h-99zM54 340v75h52v175l-52 -29l-39 65l91 50h92v-261h52v-75h-196zM466 0l-2 58q0 28 12 49t30 36q17 14 41 27q38 20 41 22q18 10 30 21t12 24q0 14 -12 23t-33 9q-24 0 -51 -8q-26 -7 -48 -27l-42 53q36 31 78 45q44 14 78 14q58 0 92 -28
q35 -29 35 -73q0 -26 -12 -44q-13 -19 -30 -32q-18 -13 -39 -24t-39 -21q-19 -11 -30 -22q-12 -12 -12 -27h165v-75h-264z" />
    <glyph glyph-name="threequarters" unicode="&#xbe;" horiz-adv-x="786" 
d="M442 675h99l-192 -675h-99zM171 332l-9 -6q-34 0 -75 12q-40 12 -75 41l39 55q28 -17 54 -23q27 -6 47 -6q27 0 39 9t12 26q0 16 -18 27q-17 10 -53 10v64q23 0 38 3q14 3 22 9q7 6 10 13q3 8 3 15q0 14 -13 20q-14 6 -33 6q-29 0 -50 -6q-27 -8 -47 -16l-34 61
q28 17 68 28q36 10 77 10q23 0 50 -5q24 -5 42 -15q17 -10 28 -27t11 -39q0 -26 -15 -49q-15 -22 -40 -37q26 -14 41 -33t15 -45q0 -17 -8 -36q-7 -18 -24 -33t-42 -24t-60 -9zM625 233l-82 -100h82v100zM716 59v-65h-91v65h-174v74l167 197h98v-197h34v-74h-34z" />
    <glyph glyph-name="questiondown" unicode="&#xbf;" horiz-adv-x="554" 
d="M302 367v-1q-28 0 -49 21t-21 50t21 50t49 21q30 0 51 -21t21 -50q0 -28 -21 -49t-51 -21zM527 -92l-4 -4q-54 -48 -118 -68q-66 -21 -133 -21q-61 0 -106 15q-46 15 -75 40q-30 26 -45 61q-15 36 -15 78q0 39 13 72q14 34 40 61q27 27 67 45q42 19 96 26v108h107v-198
q-101 0 -155 -30t-54 -78q0 -42 37 -66q38 -24 93 -24q45 0 99 17q52 16 94 48z" />
    <glyph glyph-name="Agrave" unicode="&#xc0;" horiz-adv-x="699" 
d="M205 871h136l72 -144h-112zM350 552l-115 -290h230zM509 150h-319l-59 -150h-130l283 675h131l283 -675h-129z" />
    <glyph glyph-name="Aacute" unicode="&#xc1;" horiz-adv-x="699" 
d="M306 727l72 144h137l-96 -144h-113zM350 552l-115 -290h230zM509 150h-319l-59 -150h-130l283 675h131l283 -675h-129z" />
    <glyph glyph-name="Acircumflex" unicode="&#xc2;" horiz-adv-x="699" 
d="M360 826l-66 -99h-112l96 144h164l96 -144h-112zM350 552l-115 -290h230zM509 150h-319l-59 -150h-130l283 675h131l283 -675h-129z" />
    <glyph glyph-name="Atilde" unicode="&#xc3;" horiz-adv-x="699" 
d="M195 749l-4 -1q2 61 30 89q29 29 66 29q18 0 36 -6q32 -11 38 -13q13 -5 39 -13q20 -6 39 -6q11 0 22 6q10 6 12 23h47q0 -59 -24 -90t-65 -33q-19 0 -38 6q-26 8 -39 13t-39 13q-19 6 -39 6q-12 0 -21 -6t-11 -17h-49zM346 551l-115 -290h230zM505 149h-319l-59 -150
h-130l283 675h131l283 -675h-129z" />
    <glyph glyph-name="Adieresis" unicode="&#xc4;" horiz-adv-x="699" 
d="M248 737q-30 0 -53 21t-23 54q0 32 23 53t53 21q28 0 51 -21t23 -53q0 -33 -23 -54t-51 -21zM473 737h-1q-32 0 -54 21q-23 21 -23 54q0 32 23 53q22 21 54 21q28 0 51 -21t23 -53q0 -33 -22 -54t-51 -21zM349 552l-115 -290h230zM508 150h-319l-59 -150h-130l283 675
h131l283 -675h-129z" />
    <glyph glyph-name="Aring" unicode="&#xc5;" horiz-adv-x="699" 
d="M361 702l-1 -2q19 0 35 14q15 14 15 36q0 26 -15 39q-14 13 -34 13t-36 -14q-15 -14 -15 -36q0 -26 15 -38t36 -12zM349 550l-115 -290h230zM508 148l-320 -2l-59 -150h-130l278 662q-43 31 -43 93q0 50 35 83t90 33t89 -33q35 -33 35 -82q0 -35 -16 -61q-16 -27 -43 -40
l273 -653h-129z" />
    <glyph glyph-name="AE" unicode="&#xc6;" horiz-adv-x="995" 
d="M465 563h-69l-141 -289h210v289zM465 162h-265l-79 -162h-127l333 675h615v-112h-354v-165h334v-112h-334v-174h357v-112h-480v162z" />
    <glyph glyph-name="Ccedilla" unicode="&#xc7;" horiz-adv-x="694" 
d="M374 -193l-4 -4q-31 0 -49 9q-17 9 -27 20l14 39q14 -12 27 -15t27 -3q16 0 24 7q9 8 9 21q0 14 -19 21q-18 7 -54 7l24 77q-66 8 -123 36q-56 28 -99 74q-42 45 -66 105t-24 130q0 83 30 149q30 65 80 111q49 45 113 69q63 24 129 24q41 0 77 -7q42 -8 77 -22
q39 -16 71 -36q35 -22 60 -46l-86 -81q-18 18 -42 33t-51 24q-30 10 -54 14q-30 5 -51 5q-44 0 -85 -18t-72 -49t-49 -75t-18 -94q0 -52 19 -93q20 -42 51 -72t74 -48q42 -18 89 -18q22 0 50 5q23 4 51 14q25 9 48 24q23 16 39 34l85 -86q-48 -50 -120 -78q-71 -28 -149 -28
l-11 -36q49 -3 69 -21t20 -43q0 -31 -29 -55t-75 -24z" />
    <glyph glyph-name="Egrave" unicode="&#xc8;" horiz-adv-x="612" 
d="M179 871h136l72 -144h-112zM82 675h478v-112h-355v-164h335v-113h-335v-174h358v-112h-481v675z" />
    <glyph glyph-name="Eacute" unicode="&#xc9;" horiz-adv-x="612" 
d="M252 727l72 144h136l-96 -144h-112zM82 675h478v-112h-355v-164h335v-113h-335v-174h358v-112h-481v675z" />
    <glyph glyph-name="Ecircumflex" unicode="&#xca;" horiz-adv-x="612" 
d="M316 826l-66 -99h-111l96 144h164l96 -144h-113zM82 675h478v-112h-355v-164h335v-113h-335v-174h358v-112h-481v675z" />
    <glyph glyph-name="Edieresis" unicode="&#xcb;" horiz-adv-x="612" 
d="M208 737q-32 0 -54 21q-23 21 -23 54q0 32 23 53q22 21 54 21q28 0 51 -21t23 -53q0 -33 -23 -54t-51 -21zM432 737h-1q-31 0 -54 21q-22 21 -22 54q0 32 23 53q22 21 54 21q28 0 51 -21t23 -53q0 -33 -23 -54t-51 -21zM81 675h478v-112h-355v-164h335v-113h-335v-174
h358v-112h-481v675z" />
    <glyph glyph-name="Igrave" unicode="&#xcc;" horiz-adv-x="293" 
d="M-8 871h136l72 -144h-112zM89 675h123v-675h-123v675z" />
    <glyph glyph-name="Iacute" unicode="&#xcd;" horiz-adv-x="278" 
d="M83 727l72 144h136l-96 -144h-112zM82 675h123v-675h-123v675z" />
    <glyph glyph-name="Icircumflex" unicode="&#xce;" horiz-adv-x="286" 
d="M145 826l-66 -99h-112l96 144h164l96 -144h-112zM89 675h123v-675h-123v675z" />
    <glyph glyph-name="Idieresis" unicode="&#xcf;" horiz-adv-x="286" 
d="M30 737h-1q-31 0 -54 21q-22 21 -22 54q0 32 23 53q22 21 54 21q28 0 51 -21t23 -53q0 -33 -23 -54t-51 -21zM253 737q-31 0 -54 21t-23 54q0 32 23 53t54 21q29 0 51 -21q23 -21 23 -53q0 -33 -23 -54q-22 -21 -51 -21zM89 675h123v-675h-123v675z" />
    <glyph glyph-name="Eth" unicode="&#xd0;" horiz-adv-x="762" 
d="M205 288l-1 -175h189q42 0 78 18q38 19 65 49q28 32 45 72q16 39 16 87t-16 87q-17 41 -45 71q-29 30 -64 48q-36 18 -78 18h-189v-162h169v-113h-169zM81 289l-52 3v113h51v274h312q69 0 129 -27t105 -72q46 -46 71 -107q26 -63 26 -132t-26 -132q-26 -62 -70 -108
t-105 -73q-60 -27 -129 -27h-312v288z" />
    <glyph glyph-name="Ntilde" unicode="&#xd1;" horiz-adv-x="775" 
d="M224 749l-4 -1q2 61 30 89q29 29 66 29q18 0 36 -6q31 -11 38 -13q13 -5 39 -13q19 -6 39 -6q12 0 22 6t12 23h47q0 -59 -24 -90t-65 -33q-19 0 -38 6q-26 8 -39 13t-39 13q-20 6 -39 6q-12 0 -21 -6t-11 -17h-49zM201 494v-495h-123v675h123l364 -496v496h123v-675h-123
z" />
    <glyph glyph-name="Ograve" unicode="&#xd2;" horiz-adv-x="796" 
d="M246 871h136l72 -144h-112zM397 -13l-2 -1q-75 0 -141 27t-114 75q-49 49 -77 111t-28 137q0 70 29 136q28 63 77 112q48 48 114 75t141 27t141 -27t114 -75q49 -49 77 -112q29 -66 29 -136q0 -74 -28 -136t-77 -111q-48 -48 -114 -75t-141 -27zM395 102q47 0 91 18
q43 18 75 50t50 75t18 91t-18 91t-50 75t-75 50t-91 18t-90 -18t-74 -50t-50 -75t-18 -91t18 -91t50 -75t74 -50t90 -18z" />
    <glyph glyph-name="Oacute" unicode="&#xd3;" horiz-adv-x="796" 
d="M336 727l72 144h137l-96 -144h-113zM397 -13l-2 -1q-75 0 -141 27t-114 75q-49 49 -77 111t-28 137q0 70 29 136q28 63 77 112q48 48 114 75t141 27t141 -27t114 -75q49 -49 77 -112q29 -66 29 -136q0 -74 -28 -136t-77 -111q-48 -48 -114 -75t-141 -27zM395 102
q47 0 91 18q43 18 75 50t50 75t18 91t-18 91t-50 75t-75 50t-91 18t-90 -18t-74 -50t-50 -75t-18 -91t18 -91t50 -75t74 -50t90 -18z" />
    <glyph glyph-name="Ocircumflex" unicode="&#xd4;" horiz-adv-x="796" 
d="M399 826l-66 -99h-111l96 144h164l96 -144h-113zM397 -13l-2 -1q-75 0 -141 27t-114 75q-49 49 -77 111t-28 137q0 70 29 136q28 63 77 112q48 48 114 75t141 27t141 -27t114 -75q49 -49 77 -112q29 -66 29 -136q0 -74 -28 -136t-77 -111q-48 -48 -114 -75t-141 -27z
M395 102q47 0 91 18q43 18 75 50t50 75t18 91t-18 91t-50 75t-75 50t-91 18t-90 -18t-74 -50t-50 -75t-18 -91t18 -91t50 -75t74 -50t90 -18z" />
    <glyph glyph-name="Otilde" unicode="&#xd5;" horiz-adv-x="796" 
d="M237 749l-2 -1q2 61 30 89q29 29 66 29q17 0 35 -6q31 -11 38 -13q13 -5 39 -13q19 -6 39 -6q10 0 21 6q10 6 12 23h47q0 -59 -24 -90t-65 -33q-19 0 -39 6q-26 8 -39 13t-39 13q-20 6 -38 6q-27 0 -32 -23h-49zM395 -14l-2 -1q-75 0 -141 27t-114 75q-49 49 -77 111
t-28 137q0 70 29 136q28 63 77 112q48 48 114 75t141 27t141 -27t114 -75q49 -49 77 -112q29 -66 29 -136q0 -74 -28 -136t-77 -111q-48 -48 -114 -75t-141 -27zM393 101q47 0 91 18q43 18 75 50t50 75q18 44 18 91t-18 91q-18 43 -50 75t-75 50t-91 18t-90 -18t-74 -50
t-50 -75q-18 -44 -18 -91t18 -91q18 -43 50 -75t74 -50t90 -18z" />
    <glyph glyph-name="Odieresis" unicode="&#xd6;" horiz-adv-x="796" 
d="M291 737q-31 0 -54 21t-23 54q0 32 23 53t54 21q29 0 51 -21q23 -21 23 -53q0 -33 -23 -54q-22 -21 -51 -21zM515 737h-1q-32 0 -54 21t-22 54q0 32 23 53t54 21q29 0 51 -21q23 -21 23 -53q0 -33 -23 -54q-22 -21 -51 -21zM396 -13l-2 -1q-75 0 -141 27t-114 75
q-49 49 -77 111t-28 137q0 70 29 136q28 63 77 112q48 48 114 75t141 27t141 -27t114 -75q49 -49 77 -112q29 -66 29 -136q0 -74 -28 -136t-77 -111q-48 -48 -114 -75t-141 -27zM394 102q48 0 91 18t75 50t50 75t18 91t-18 91t-50 75t-75 50q-44 18 -91 18q-48 0 -90 -18
t-74 -50t-50 -75t-18 -91t18 -91t50 -75t74 -50t90 -18z" />
    <glyph glyph-name="multiply" unicode="&#xd7;" horiz-adv-x="471" 
d="M236 167l-108 -108l-76 76l108 108l-108 109l75 75l108 -108l109 108l76 -75l-109 -109l108 -108l-75 -76z" />
    <glyph glyph-name="Oslash" unicode="&#xd8;" horiz-adv-x="796" 
d="M164 337l-2 -2q0 -51 21 -96t56 -77l275 376q-25 15 -56 24q-30 9 -62 9q-48 0 -90 -18t-74 -50t-50 -75q-18 -44 -18 -91zM395 101h1q48 0 91 18t75 50t50 75q18 44 18 91q0 49 -19 91q-19 44 -51 75l-273 -373q49 -27 108 -27zM396 -15v1q-49 0 -94 12q-47 12 -84 34
l-83 -113h-73l107 146q-61 48 -97 118q-36 71 -36 153q0 70 29 136q28 63 77 112q48 48 114 75t141 27q54 0 99 -13q47 -14 89 -39l88 121h73l-113 -155q57 -50 90 -118q33 -69 33 -148q0 -74 -28 -136t-77 -111q-48 -48 -114 -75t-141 -27z" />
    <glyph glyph-name="Ugrave" unicode="&#xd9;" horiz-adv-x="737" 
d="M233 871h136l72 -144h-112zM195 675v-394q0 -46 15 -79q15 -34 39 -56t56 -33q33 -11 68 -11q34 0 67 11q32 11 54 33t36 56q13 32 13 80v392h123v-401q0 -70 -21 -124t-60 -90t-93 -54t-118 -18q-66 0 -121 18t-96 54t-63 90q-22 53 -22 125v401h123z" />
    <glyph glyph-name="Uacute" unicode="&#xda;" horiz-adv-x="737" 
d="M302 727l72 144h136l-96 -144h-112zM195 675v-394q0 -46 15 -79q15 -34 39 -56t56 -33q33 -11 68 -11q34 0 67 11q32 11 54 33t36 56q13 32 13 80v392h123v-401q0 -70 -21 -124t-60 -90t-93 -54t-118 -18q-66 0 -121 18t-96 54t-63 90q-22 53 -22 125v401h123z" />
    <glyph glyph-name="Ucircumflex" unicode="&#xdb;" horiz-adv-x="737" 
d="M367 826l-66 -99h-112l96 144h164l96 -144h-112zM195 675v-394q0 -46 15 -79q15 -34 39 -56t56 -33q33 -11 68 -11q34 0 67 11q32 11 54 33t36 56q13 32 13 80v392h123v-401q0 -70 -21 -124t-60 -90t-93 -54t-118 -18q-66 0 -121 18t-96 54t-63 90q-22 53 -22 125v401
h123z" />
    <glyph glyph-name="Udieresis" unicode="&#xdc;" horiz-adv-x="737" 
d="M256 737q-30 0 -53 21t-23 54q0 32 23 53t53 21q28 0 51 -21t23 -53q0 -33 -23 -54t-51 -21zM481 737h-1q-32 0 -54 21q-23 21 -23 54q0 32 23 53q22 21 54 21q28 0 51 -21t23 -53q0 -33 -22 -54t-51 -21zM194 675v-394q0 -46 15 -79q15 -34 39 -56t56 -33q33 -11 68 -11
q34 0 67 11q31 11 54 33q22 22 36 56q13 32 13 80v392h123v-401q0 -70 -21 -124t-60 -90t-93 -54t-118 -18q-65 0 -121 18t-96 54t-63 90q-22 53 -22 125v401h123z" />
    <glyph glyph-name="Yacute" unicode="&#xdd;" horiz-adv-x="695" 
d="M307 727l72 144h137l-96 -144h-113zM409 0h-123v230l-288 445h141l210 -344l210 344h138l-288 -445v-230z" />
    <glyph glyph-name="Thorn" unicode="&#xde;" horiz-adv-x="658" 
d="M205 451v-225h200q25 0 45 12t32 29q12 16 18 38q6 21 6 40t-6 39q-6 19 -18 34t-31 24t-45 9h-201zM205 114l-3 -117h-123v675h123v-112h232q47 0 84 -19q38 -20 63 -49q25 -30 39 -69q14 -40 14 -79q0 -42 -13 -81q-14 -41 -39 -74q-25 -32 -62 -54q-36 -21 -83 -21
h-232z" />
    <glyph glyph-name="germandbls" unicode="&#xdf;" horiz-adv-x="638" 
d="M296 395l10 -2q30 0 57 6q26 6 46 18q19 11 31 30q12 18 12 40q0 23 -10 39t-28 28t-42 18t-51 6q-62 0 -100 -31q-39 -31 -39 -91v-458h-118v474q0 51 20 93q19 40 54 67q36 28 81 41q48 14 99 14q52 0 99 -12t81 -36q35 -24 54 -58q20 -35 20 -79q0 -59 -31 -97
q-32 -40 -84 -59q66 -21 105 -63t39 -108q0 -45 -20 -82q-19 -36 -54 -60t-81 -36t-99 -12q-23 0 -45 3q-15 2 -45 8l1 108q16 -3 48 -7q26 -3 41 -3q27 0 53 8q24 8 42 21q19 15 29 31q11 19 11 39q0 24 -13 41q-14 18 -37 30q-24 12 -56 18t-68 6h-12v107z" />
    <glyph glyph-name="agrave" unicode="&#xe0;" horiz-adv-x="552" 
d="M141 696h136l72 -144h-112zM230 85l1 -3q37 0 72 15q34 15 71 41v90l-123 -15q-21 -1 -39 -6q-17 -4 -31 -12q-13 -7 -21 -20q-7 -11 -7 -31q0 -29 18 -44t59 -15zM394 58h-2q-51 -39 -93 -56q-43 -18 -99 -18q-86 0 -130 42q-43 42 -43 109q0 77 51 117t135 48l159 12
v11q0 41 -34 60q-35 20 -94 20q-34 0 -78 -6q-42 -6 -86 -20l-24 93q51 18 99 26q51 9 103 9q116 0 175 -46q60 -47 60 -127v-335h-73z" />
    <glyph glyph-name="aacute" unicode="&#xe1;" horiz-adv-x="552" 
d="M219 551l72 144h137l-96 -144h-113zM230 85l1 -3q37 0 72 15q34 15 71 41v90l-123 -15q-21 -1 -39 -6q-17 -4 -31 -12q-13 -7 -21 -20q-7 -11 -7 -31q0 -29 18 -44t59 -15zM394 58h-2q-51 -39 -93 -56q-43 -18 -99 -18q-86 0 -130 42q-43 42 -43 109q0 77 51 117t135 48
l159 12v11q0 41 -34 60q-35 20 -94 20q-34 0 -78 -6q-42 -6 -86 -20l-24 93q51 18 99 26q51 9 103 9q116 0 175 -46q60 -47 60 -127v-335h-73z" />
    <glyph glyph-name="acircumflex" unicode="&#xe2;" horiz-adv-x="552" 
d="M291 650l-66 -99h-112l90 144h176l90 -144h-112zM230 85l1 -3q37 0 72 15q34 15 71 41v90l-123 -15q-21 -1 -39 -6q-17 -4 -31 -12q-13 -7 -21 -20q-7 -11 -7 -31q0 -29 18 -44t59 -15zM394 58h-2q-51 -39 -93 -56q-43 -18 -99 -18q-86 0 -130 42q-43 42 -43 109
q0 77 51 117t135 48l159 12v11q0 41 -34 60q-35 20 -94 20q-34 0 -78 -6q-42 -6 -86 -20l-24 93q51 18 99 26q51 9 103 9q116 0 175 -46q60 -47 60 -127v-335h-73z" />
    <glyph glyph-name="atilde" unicode="&#xe3;" horiz-adv-x="552" 
d="M128 582q2 61 30 89q29 29 66 29q18 0 36 -6q24 -8 36 -13t38 -13q20 -6 39 -6q11 0 22 6q10 6 12 23h47q0 -60 -23 -92t-66 -32q-19 0 -39 6q-26 8 -39 13t-39 13q-20 6 -39 6q-12 0 -21 -6t-11 -17h-49zM230 85l1 -3q37 0 72 15q34 15 71 41v90l-123 -15q-21 -1 -39 -6
q-17 -4 -31 -12q-13 -7 -21 -20q-7 -11 -7 -31q0 -29 18 -44t59 -15zM394 58h-2q-51 -39 -93 -56q-43 -18 -99 -18q-86 0 -130 42q-43 42 -43 109q0 77 51 117t135 48l159 12v11q0 41 -34 60q-35 20 -94 20q-34 0 -78 -6q-42 -6 -86 -20l-24 93q51 18 99 26q51 9 103 9
q116 0 175 -46q60 -47 60 -127v-335h-73z" />
    <glyph glyph-name="adieresis" unicode="&#xe4;" horiz-adv-x="552" 
d="M182 572v-1q-30 0 -54 21t-24 56q0 32 24 54q23 22 54 22q29 0 51 -22q23 -23 23 -54q0 -34 -23 -55t-51 -21zM399 571l-1 -1q-32 0 -54 21q-23 21 -23 56q0 31 23 54q22 22 54 22q29 0 51 -22q23 -23 23 -54q0 -34 -22 -55t-51 -21zM229 83l1 -3q38 0 72 15t71 41v90
l-123 -15q-21 -1 -39 -6q-17 -4 -31 -12q-13 -7 -21 -20q-7 -11 -7 -31q0 -29 18 -44t59 -15zM393 56h-2q-51 -39 -93 -56q-44 -18 -99 -18q-87 0 -130 42t-43 109q0 77 51 117t135 48l159 12v11q0 41 -34 60q-35 20 -94 20q-35 0 -78 -6q-42 -6 -86 -20l-24 93q51 18 99 26
q51 9 103 9q116 0 175 -46q60 -47 60 -127v-335h-73z" />
    <glyph glyph-name="aring" unicode="&#xe5;" horiz-adv-x="552" 
d="M173 668l-2 -1q0 49 34 82q35 33 90 33q27 0 50 -9t39 -24q17 -16 26 -36q9 -21 9 -45q0 -51 -34 -84q-35 -33 -88 -33q-61 0 -93 33q-31 32 -31 84zM295 614v-2q19 0 35 14q15 14 15 38t-15 38q-16 14 -35 14q-20 0 -36 -14q-15 -14 -15 -36q0 -26 15 -39q14 -13 36 -13
zM228 82l1 -3q37 0 72 15q34 15 71 41v90l-123 -15q-21 -2 -39 -6q-17 -4 -31 -12q-13 -7 -21 -20q-7 -11 -7 -31q0 -29 18 -44t59 -15zM392 55h-2q-51 -39 -93 -56q-43 -18 -99 -18q-86 0 -130 42q-43 42 -43 109q0 76 51 117t135 48l159 12v11q0 41 -34 60q-35 20 -94 20
q-34 0 -78 -6q-42 -6 -86 -20l-24 93q51 18 99 26q51 9 103 9q116 0 175 -46q60 -46 60 -127v-335h-73z" />
    <glyph glyph-name="ae" unicode="&#xe6;" horiz-adv-x="911" 
d="M631 412v-1q-54 0 -87 -33q-32 -33 -43 -85l250 9q-13 53 -44 82q-29 28 -76 28zM230 84h1q43 0 81 18q37 18 80 50q-14 38 -17 77l-124 -15q-21 -2 -39 -6q-17 -4 -31 -12q-13 -7 -21 -20q-7 -11 -7 -31q0 -25 18 -43t59 -18zM859 75l-2 -1q-37 -43 -92 -66t-117 -23
t-117 24q-54 23 -94 68q-29 -23 -54 -39q-29 -19 -52 -29q-27 -12 -55 -18t-63 -6q-91 0 -138 41q-46 40 -46 110q0 75 51 117q50 41 135 49l159 12v11q0 41 -34 60q-35 20 -94 20q-34 0 -78 -6q-42 -6 -86 -20l-24 93q51 17 98 26q50 9 102 9q70 0 120 -18t78 -51
q36 33 82 51t97 18q52 0 97 -19q46 -20 81 -57t54 -93q20 -56 18 -128h-383q13 -54 56 -85q42 -30 101 -30q75 0 122 51z" />
    <glyph glyph-name="ccedilla" unicode="&#xe7;" horiz-adv-x="527" 
d="M268 -193l-2 -3q-31 0 -49 9q-17 9 -27 20l15 39q13 -12 27 -15t27 -3q15 0 23 7q9 7 9 21t-19 21q-18 7 -54 7l24 79q-41 7 -82 29q-38 20 -67 54q-29 33 -45 76q-17 45 -17 94q0 60 22 107q23 48 59 83q36 34 84 54q47 19 100 19q56 0 111 -21t93 -62l-86 -75
q-22 22 -52 37t-65 15q-29 0 -55 -12t-45 -31q-19 -20 -30 -48q-11 -30 -11 -61q0 -32 11 -60q11 -27 30 -48q20 -21 46 -33q27 -12 57 -12t60 14t56 36l86 -72q-37 -41 -93 -64q-54 -22 -114 -22h-2l-10 -36q49 -3 69 -21t20 -43q0 -31 -29 -55t-75 -24z" />
    <glyph glyph-name="egrave" unicode="&#xe8;" horiz-adv-x="571" 
d="M144 696h137l72 -144h-113zM291 412h-1q-53 0 -86 -35q-34 -35 -44 -84l250 9q-13 53 -44 82q-29 28 -75 28zM517 76h-2q-37 -44 -93 -66q-57 -23 -118 -23q-52 0 -102 18t-87 51t-60 81q-23 49 -23 107q0 62 21 111q21 50 57 83t83 51q46 18 98 18q53 0 98 -19
q47 -20 81 -57t54 -93t18 -128h-384q13 -55 57 -85q43 -30 102 -30q74 0 122 51z" />
    <glyph glyph-name="eacute" unicode="&#xe9;" horiz-adv-x="571" 
d="M234 551l72 144h137l-96 -144h-113zM291 412h-1q-53 0 -86 -35q-34 -35 -44 -84l250 9q-13 53 -44 82q-29 28 -75 28zM517 76h-2q-37 -44 -93 -66q-57 -23 -118 -23q-52 0 -102 18t-87 51t-60 81q-23 49 -23 107q0 62 21 111q21 50 57 83t83 51q46 18 98 18q53 0 98 -19
q47 -20 81 -57t54 -93t18 -128h-384q13 -55 57 -85q43 -30 102 -30q74 0 122 51z" />
    <glyph glyph-name="ecircumflex" unicode="&#xea;" horiz-adv-x="571" 
d="M295 650l-66 -99h-111l90 144h176l90 -144h-113zM291 412h-1q-53 0 -86 -35q-34 -35 -44 -84l250 9q-13 53 -44 82q-29 28 -75 28zM517 76h-2q-37 -44 -93 -66q-57 -23 -118 -23q-52 0 -102 18t-87 51t-60 81q-23 49 -23 107q0 62 21 111q21 50 57 83t83 51q46 18 98 18
q53 0 98 -19q47 -20 81 -57t54 -93t18 -128h-384q13 -55 57 -85q43 -30 102 -30q74 0 122 51z" />
    <glyph glyph-name="edieresis" unicode="&#xeb;" horiz-adv-x="571" 
d="M184 572v-1q-32 0 -54 21q-23 21 -23 56q0 31 23 54q22 22 54 22q29 0 51 -22q23 -23 23 -54q0 -34 -23 -55t-51 -21zM400 571l-1 -1q-31 0 -54 21q-22 21 -22 56q0 31 23 54q22 22 54 22q29 0 51 -22q23 -23 23 -54q0 -34 -23 -55t-51 -21zM290 410h-1q-53 0 -86 -35
q-34 -35 -44 -84l250 9q-13 53 -44 82q-29 28 -75 28zM516 74h-2q-38 -44 -93 -66q-57 -23 -118 -23q-53 0 -102 18t-87 51t-60 81q-23 49 -23 107q0 62 21 111q21 50 57 83t83 51q46 18 98 18q53 0 98 -19q46 -20 81 -57t54 -93q20 -56 18 -128h-384q13 -55 57 -85t102 -30
q74 0 122 51z" />
    <glyph glyph-name="igrave" unicode="&#xec;" horiz-adv-x="246" 
d="M-28 696h136l72 -144h-112zM61 495h118v-495h-118v495z" />
    <glyph glyph-name="iacute" unicode="&#xed;" horiz-adv-x="253" 
d="M73 551l72 144h136l-96 -144h-112zM65 495h119v-495h-119v495z" />
    <glyph glyph-name="icircumflex" unicode="&#xee;" horiz-adv-x="249" 
d="M125 650l-66 -99h-112l90 144h177l90 -144h-113zM62 495h118v-495h-118v495z" />
    <glyph glyph-name="idieresis" unicode="&#xef;" horiz-adv-x="249" 
d="M15 572v-1q-30 0 -54 21t-24 56q0 32 24 54q23 22 54 22q29 0 51 -22q23 -23 23 -54q0 -34 -23 -55q-22 -21 -51 -21zM232 571l-1 -1q-31 0 -54 21t-23 56q0 31 23 54q22 22 54 22q29 0 51 -22q23 -23 23 -54q0 -34 -22 -55q-23 -21 -51 -21zM60 493h118v-495h-118v495z
" />
    <glyph glyph-name="eth" unicode="&#xf0;" horiz-adv-x="600" 
d="M288 -13l-3 -3q-53 0 -99 18t-81 51q-34 33 -54 80q-19 45 -19 105q0 58 21 101t57 73t83 45t96 15q36 0 65 -7q34 -8 60 -19q-16 58 -51 93l-52 -52l-33 36l46 46q-21 13 -48 19q-25 6 -52 6q-28 0 -55 -6q-25 -6 -55 -15l-38 89q81 25 157 25q47 0 89 -9q44 -9 80 -31
l73 73l34 -34l-67 -68q51 -45 81 -123t30 -198v-9q0 -76 -21 -133q-21 -56 -57 -94q-37 -38 -84 -56q-48 -18 -103 -18zM292 98l2 -1q27 0 51 9t42 27q19 19 29 45q11 28 11 62q0 25 -10 45q-11 22 -28 36q-18 15 -42 24t-51 9q-28 0 -54 -9q-27 -9 -45 -25q-19 -16 -30 -39
q-10 -21 -10 -51q0 -31 11 -56q11 -24 29 -41q19 -17 42 -26q24 -9 53 -9z" />
    <glyph glyph-name="ntilde" unicode="&#xf1;" horiz-adv-x="616" 
d="M156 582h-3q2 61 30 89q29 29 66 29q17 0 35 -6q32 -11 38 -13q13 -5 39 -13q19 -6 39 -6q10 0 21 6q10 6 12 23h47q0 -60 -23 -92t-66 -32q-19 0 -39 6q-26 8 -39 13t-39 13q-20 6 -37 6q-27 0 -32 -23h-49zM319 394v-1q-41 0 -76 -21t-63 -54v-320h-119v495h80l21 -80
q74 93 186 93q41 0 77 -12q38 -13 65 -37q29 -26 45 -64q17 -40 17 -93v-301h-119v277q0 30 -9 52t-25 37q-16 14 -37 22q-20 7 -43 7z" />
    <glyph glyph-name="ograve" unicode="&#xf2;" horiz-adv-x="601" 
d="M159 696h137l72 -144h-113zM300 -13l1 -1q-52 0 -100 18q-47 18 -85 51t-60 81q-22 47 -22 107t22 107q23 49 60 83q38 35 85 54t100 19q55 0 102 -19q48 -19 84 -54t59 -83q22 -47 22 -107q0 -59 -22 -106q-22 -48 -60 -81t-85 -51q-48 -18 -101 -18zM301 94v1
q29 0 57 11q26 10 46 30q18 18 31 47q12 27 12 60t-12 61q-12 29 -31 49q-20 21 -46 33q-27 12 -57 12q-31 0 -56 -12t-45 -33t-30 -49q-11 -30 -11 -61t11 -59t30 -47t45 -31t56 -12z" />
    <glyph glyph-name="oacute" unicode="&#xf3;" horiz-adv-x="601" 
d="M235 551l72 144h137l-96 -144h-113zM300 -13l1 -1q-52 0 -100 18q-47 18 -85 51t-60 81q-22 47 -22 107t22 107q23 49 60 83q38 35 85 54t100 19q55 0 102 -19q48 -19 84 -54t59 -83q22 -47 22 -107q0 -59 -22 -106q-22 -48 -60 -81t-85 -51q-48 -18 -101 -18zM301 94v1
q29 0 57 11q26 10 46 30q18 18 31 47q12 27 12 60t-12 61q-12 29 -31 49q-20 21 -46 33q-27 12 -57 12q-31 0 -56 -12t-45 -33t-30 -49q-11 -30 -11 -61t11 -59t30 -47t45 -31t56 -12z" />
    <glyph glyph-name="ocircumflex" unicode="&#xf4;" horiz-adv-x="601" 
d="M301 650l-66 -99h-111l90 144h176l90 -144h-113zM300 -13l1 -1q-52 0 -100 18q-47 18 -85 51t-60 81q-22 47 -22 107t22 107q23 49 60 83q38 35 85 54t100 19q55 0 102 -19q48 -19 84 -54t59 -83q22 -47 22 -107q0 -59 -22 -106q-22 -48 -60 -81t-85 -51
q-48 -18 -101 -18zM301 94v1q29 0 57 11q26 10 46 30q18 18 31 47q12 27 12 60t-12 61q-12 29 -31 49q-20 21 -46 33q-27 12 -57 12q-31 0 -56 -12t-45 -33t-30 -49q-11 -30 -11 -61t11 -59t30 -47t45 -31t56 -12z" />
    <glyph glyph-name="otilde" unicode="&#xf5;" horiz-adv-x="601" 
d="M141 582h-3q2 61 30 89q29 29 66 29q18 0 36 -6q31 -11 38 -13q13 -5 39 -13q19 -6 39 -6q12 0 22 6t12 23h47q0 -61 -22 -92q-23 -32 -67 -32q-20 0 -39 6q-26 8 -39 13t-39 13q-19 6 -39 6q-12 0 -21 -6t-11 -17h-49zM297 -13l1 -1q-52 0 -100 18q-47 18 -85 51
q-37 33 -60 81q-22 47 -22 107t22 107q23 49 60 83q38 35 85 54t100 19q55 0 102 -19q48 -19 84 -54t59 -83q22 -47 22 -107q0 -59 -22 -106q-23 -48 -60 -81q-38 -33 -85 -51q-48 -18 -101 -18zM298 94v1q29 0 57 11q26 10 46 30q18 18 31 47q12 27 12 60t-12 61
q-12 29 -31 49q-20 21 -46 33q-27 12 -57 12t-56 -12t-45 -33q-20 -21 -30 -49q-11 -30 -11 -61t11 -59t30 -47t45 -31t56 -12z" />
    <glyph glyph-name="odieresis" unicode="&#xf6;" horiz-adv-x="601" 
d="M193 572v-1q-30 0 -54 21t-24 56q0 32 24 54q23 22 54 22q29 0 51 -22q23 -23 23 -54q0 -34 -23 -55q-22 -21 -51 -21zM410 571l-1 -1q-31 0 -54 21t-23 56q0 31 23 54q22 22 54 22q29 0 51 -22q23 -23 23 -54q0 -34 -22 -55q-23 -21 -51 -21zM299 -15l1 -1
q-52 0 -100 18q-47 18 -85 51q-37 33 -60 81q-22 47 -22 107t22 107q23 49 60 83q38 35 85 54t100 19q55 0 102 -19q48 -19 84 -54t59 -83q22 -47 22 -107q0 -59 -22 -106q-23 -48 -60 -81q-38 -33 -85 -51q-48 -18 -101 -18zM300 92v1q29 0 57 11q26 10 46 30q18 18 31 47
q12 27 12 60t-12 61q-12 29 -31 49q-20 21 -46 33q-27 12 -57 12t-56 -12t-45 -33q-20 -21 -30 -49q-11 -30 -11 -61t11 -59t30 -47t45 -31t56 -12z" />
    <glyph glyph-name="divide" unicode="&#xf7;" horiz-adv-x="520" 
d="M264 342l-1 -1q-29 0 -48 21q-20 22 -20 50t20 48t48 20t48 -20t20 -48q0 -29 -19 -49q-20 -21 -48 -21zM47 285h425v-79h-425v79zM263 14l-1 -1q-28 0 -48 21q-20 22 -20 50t20 48t48 20t48 -20t20 -48q0 -29 -19 -49q-19 -21 -48 -21z" />
    <glyph glyph-name="oslash" unicode="&#xf8;" horiz-adv-x="603" 
d="M157 245l-2 -1q0 -67 44 -108l184 235q-18 13 -39 21q-22 8 -45 8q-31 0 -56 -12t-45 -33t-30 -49q-11 -30 -11 -61zM298 94l-1 2q29 0 57 11q26 10 46 30q18 18 31 47q12 27 12 60t-10 59q-11 29 -28 47l-182 -234q34 -22 75 -22zM297 -12l-1 -4q-39 0 -78 11
q-38 11 -69 30l-85 -108h-37l98 125q-44 35 -69 85q-26 52 -26 116q0 60 22 107q23 49 60 83q38 35 85 54t100 19q44 0 83 -12q38 -12 72 -35l91 116h37l-105 -134q42 -35 66 -84t24 -113q0 -59 -22 -106q-23 -48 -60 -81q-38 -33 -85 -51q-48 -18 -101 -18z" />
    <glyph glyph-name="ugrave" unicode="&#xf9;" horiz-adv-x="607" 
d="M173 696h137l72 -144h-113zM440 79l-1 -3q-75 -92 -182 -92q-39 0 -74 13q-36 14 -64 40q-29 27 -45 69q-17 43 -17 100v287h119v-270q0 -63 33 -93t83 -30q42 0 73 21t57 54v320h119v-495h-80z" />
    <glyph glyph-name="uacute" unicode="&#xfa;" horiz-adv-x="607" 
d="M247 551l72 144h137l-96 -144h-113zM440 79l-1 -3q-75 -92 -182 -92q-39 0 -74 13q-36 14 -64 40q-29 27 -45 69q-17 43 -17 100v287h119v-270q0 -63 33 -93t83 -30q42 0 73 21t57 54v320h119v-495h-80z" />
    <glyph glyph-name="ucircumflex" unicode="&#xfb;" horiz-adv-x="607" 
d="M309 650l-66 -99h-112l90 144h176l90 -144h-112zM440 79l-1 -3q-75 -92 -182 -92q-39 0 -74 13q-36 14 -64 40q-29 27 -45 69q-17 43 -17 100v287h119v-270q0 -63 33 -93t83 -30q42 0 73 21t57 54v320h119v-495h-80z" />
    <glyph glyph-name="udieresis" unicode="&#xfc;" horiz-adv-x="607" 
d="M207 572l-1 -1q-31 0 -55 21t-24 56q0 32 24 54q23 22 55 22q29 0 51 -22q23 -23 23 -54q0 -34 -22 -55t-51 -21zM422 571l-1 -1q-31 0 -54 21t-23 56q0 31 23 54q22 22 54 22q29 0 51 -22q23 -23 23 -54q0 -34 -22 -55q-23 -21 -51 -21zM438 77l-1 -3q-75 -92 -182 -92
q-39 0 -74 13q-36 14 -64 40q-29 27 -45 69q-17 43 -17 100v287h119v-270q0 -63 33 -93t83 -30q42 0 73 21t57 54v320h119v-495h-80z" />
    <glyph glyph-name="yacute" unicode="&#xfd;" horiz-adv-x="515" 
d="M197 551l72 144h137l-96 -144h-113zM29 -126h1q28 0 56 14t50 36t39 51t27 57l-192 463h130l120 -320l123 320h130l-217 -508q-94 -223 -267 -223v110z" />
    <glyph glyph-name="thorn" unicode="&#xfe;" horiz-adv-x="623" 
d="M321 95l1 1q31 0 58 12q26 12 46 33t30 48q11 28 11 59q0 30 -11 60q-10 28 -30 49t-46 33q-27 12 -58 12q-30 0 -57 -12q-26 -12 -46 -33q-19 -20 -31 -49q-12 -28 -12 -61q0 -31 11 -59q11 -27 30 -48q20 -21 46 -33q27 -12 58 -12zM185 -235l-120 2v950h119v-254
q33 23 69 35q38 12 80 12q54 0 99 -19q46 -19 81 -54q36 -36 56 -82q21 -48 21 -106q0 -57 -21 -105t-55 -82t-80 -54q-44 -19 -96 -19q-46 0 -88 17q-40 16 -72 42l7 -83v-200z" />
    <glyph glyph-name="ydieresis" unicode="&#xff;" horiz-adv-x="515" 
d="M154 572l-1 -1q-31 0 -55 21t-24 56q0 32 24 54q23 22 55 22q29 0 51 -22q23 -23 23 -54q0 -34 -22 -55q-23 -21 -51 -21zM369 571l-1 -1q-32 0 -54 21q-23 21 -23 56q0 31 23 54q22 22 54 22q29 0 51 -22q23 -23 23 -54q0 -34 -22 -55t-51 -21zM27 -128h1q28 0 56 14
t50 36t39 51t27 57l-192 463h130l120 -320l123 320h130l-217 -508q-94 -223 -267 -223v110z" />
    <glyph glyph-name="Amacron" unicode="&#x100;" horiz-adv-x="699" 
d="M200 835h313v-90h-313v90zM350 552l-115 -290h230zM509 150h-319l-59 -150h-130l283 675h131l283 -675h-129z" />
    <glyph glyph-name="amacron" unicode="&#x101;" horiz-adv-x="552" 
d="M149 669h297v-90h-297v90zM230 85l1 -3q37 0 72 15q34 15 71 41v90l-123 -15q-21 -1 -39 -6q-17 -4 -31 -12q-13 -7 -21 -20q-7 -11 -7 -31q0 -29 18 -44t59 -15zM394 58h-2q-51 -39 -93 -56q-43 -18 -99 -18q-86 0 -130 42q-43 42 -43 109q0 77 51 117t135 48l159 12v11
q0 41 -34 60q-35 20 -94 20q-34 0 -78 -6q-42 -6 -86 -20l-24 93q51 18 99 26q51 9 103 9q116 0 175 -46q60 -47 60 -127v-335h-73z" />
    <glyph glyph-name="Abreve" unicode="&#x102;" horiz-adv-x="699" 
d="M275 879q3 -26 27 -49q23 -22 59 -22q35 0 57 21t27 50h69q-8 -75 -46 -115q-39 -40 -108 -40t-108 40q-40 41 -44 115h67zM350 552l-115 -290h230zM509 150h-319l-59 -150h-130l283 675h131l283 -675h-129z" />
    <glyph glyph-name="abreve" unicode="&#x103;" horiz-adv-x="552" 
d="M209 703l-1 -1q4 -26 27 -48q22 -22 59 -22q36 0 59 21q22 21 27 50h69q-8 -74 -46 -114q-39 -40 -108 -40q-70 0 -109 40q-38 40 -43 114h66zM229 84l1 -3q38 0 72 15t71 41v90l-123 -15q-21 -2 -39 -6q-17 -4 -31 -12q-13 -7 -21 -20q-7 -11 -7 -31q0 -29 18 -44
t59 -15zM393 57h-2q-51 -39 -93 -56q-44 -18 -99 -18q-87 0 -130 42t-43 109q0 76 51 117t135 48l159 12v11q0 41 -34 60q-35 20 -94 20q-35 0 -78 -6q-42 -6 -86 -20l-24 93q51 18 99 26q51 9 103 9q116 0 175 -46q60 -46 60 -127v-335h-73z" />
    <glyph glyph-name="Aogonek" unicode="&#x104;" horiz-adv-x="710" 
d="M349 552l-115 -290h230zM718 -164v-1q-38 -33 -99 -33q-59 0 -92 24t-33 71q0 35 20 63q19 26 51 46l-57 143h-319l-59 -150h-130l283 675h131l263 -627l6 2l10 -39l4 -11h-1q-64 -16 -89 -38q-24 -21 -24 -50q0 -16 13 -28q14 -12 33 -12q42 0 69 27z" />
    <glyph glyph-name="aogonek" unicode="&#x105;" horiz-adv-x="567" 
d="M430 -197q-58 0 -91 24t-33 71q0 44 29 75t72 50l-15 37q-51 -39 -93 -56q-43 -18 -99 -18q-86 0 -130 42q-43 42 -43 109q0 77 51 117t135 48l159 12v11q0 41 -34 60q-35 20 -94 20q-34 0 -78 -6q-42 -6 -86 -20l-24 93q51 18 99 26q51 9 103 9q116 0 175 -46
q60 -46 60 -127v-286l2 1l13 -50q-30 -7 -53 -17q-20 -9 -34 -21q-13 -11 -19 -24q-6 -12 -6 -26q0 -16 12 -28t32 -12q42 0 69 27l20 -62q-36 -33 -99 -33zM230 85l1 -3q37 0 72 15q34 15 71 41v90l-123 -15q-21 -1 -39 -6q-17 -4 -31 -12q-13 -7 -21 -20q-7 -11 -7 -31
q0 -29 18 -44t59 -15z" />
    <glyph glyph-name="Cacute" unicode="&#x106;" horiz-adv-x="693" 
d="M332 727l72 144h136l-96 -144h-112zM670 94l-2 -3q-48 -50 -121 -78q-72 -28 -153 -28q-74 0 -140 26q-64 25 -114 72q-49 46 -78 110q-28 62 -28 140q0 83 30 149q30 65 80 111q49 45 113 69q63 24 129 24q41 0 77 -7q42 -8 77 -22q39 -16 71 -36q35 -22 60 -46l-86 -81
q-18 18 -42 33t-51 24q-30 10 -54 14q-30 5 -51 5q-44 0 -85 -18t-72 -49t-49 -75t-18 -94q0 -52 19 -93q20 -42 51 -72t74 -48q42 -18 89 -18q22 0 50 5q23 4 51 14q25 9 48 24q23 16 39 34z" />
    <glyph glyph-name="cacute" unicode="&#x107;" horiz-adv-x="527" 
d="M233 551l72 144h136l-96 -144h-112zM503 73v-1q-37 -41 -93 -64q-54 -22 -114 -22q-52 0 -100 18t-84 51q-35 32 -58 81q-22 47 -22 107t22 107q23 48 59 83t84 54q47 19 100 19q55 0 111 -21q55 -21 93 -62l-86 -75q-22 22 -52 37t-65 15q-30 0 -55 -12q-26 -12 -45 -31
q-20 -19 -30 -48q-11 -30 -11 -61q0 -32 11 -60q10 -27 30 -48t46 -33q27 -12 57 -12t60 14t56 36z" />
    <glyph glyph-name="Ccircumflex" unicode="&#x108;" horiz-adv-x="693" 
d="M397 826l-66 -99h-112l96 144h164l96 -144h-112zM670 94l-2 -3q-48 -50 -121 -78q-72 -28 -153 -28q-74 0 -140 26q-64 25 -114 72q-49 46 -78 110q-28 62 -28 140q0 83 30 149q30 65 80 111q49 45 113 69q63 24 129 24q41 0 77 -7q42 -8 77 -22q39 -16 71 -36
q35 -22 60 -46l-86 -81q-18 18 -42 33t-51 24q-30 10 -54 14q-30 5 -51 5q-44 0 -85 -18t-72 -49t-49 -75t-18 -94q0 -52 19 -93q20 -42 51 -72t74 -48q42 -18 89 -18q22 0 50 5q23 4 51 14q25 9 48 24q23 16 39 34z" />
    <glyph glyph-name="ccircumflex" unicode="&#x109;" horiz-adv-x="527" 
d="M300 650l-66 -99h-112l90 144h177l90 -144h-113zM503 73v-1q-37 -41 -93 -64q-54 -22 -114 -22q-52 0 -100 18t-84 51q-35 32 -58 81q-22 47 -22 107t22 107q23 48 59 83t84 54q47 19 100 19q55 0 111 -21q55 -21 93 -62l-86 -75q-22 22 -52 37t-65 15q-30 0 -55 -12
q-26 -12 -45 -31q-20 -19 -30 -48q-11 -30 -11 -61q0 -32 11 -60q10 -27 30 -48t46 -33q27 -12 57 -12t60 14t56 36z" />
    <glyph glyph-name="Cdotaccent" unicode="&#x10a;" horiz-adv-x="693" 
d="M394 741v-1q-31 0 -53 22q-23 23 -23 55q0 31 23 54q22 22 53 22q29 0 51 -22q23 -23 23 -54q0 -17 -6 -30t-17 -24q-10 -10 -24 -16q-13 -6 -27 -6zM670 93l-2 -3q-48 -50 -121 -78q-72 -28 -153 -28q-74 0 -140 26q-64 26 -114 72q-49 46 -78 110q-28 62 -28 140
q0 83 30 149q30 65 80 111q49 45 113 69q63 24 129 24q41 0 77 -7q42 -8 77 -22q39 -16 71 -36q35 -22 60 -46l-86 -81q-18 18 -42 33t-51 24q-30 10 -54 14q-30 5 -51 5q-44 0 -85 -18t-72 -49t-49 -75q-18 -43 -18 -94q0 -52 19 -93q20 -42 51 -72t74 -48q42 -18 89 -18
q22 0 50 5q23 4 51 14q25 9 48 24q23 16 39 34z" />
    <glyph glyph-name="cdotaccent" unicode="&#x10b;" horiz-adv-x="527" 
d="M300 571l-1 -1q-31 0 -54 21q-22 21 -22 56q0 32 23 53q22 21 54 21q28 0 51 -21t23 -53q0 -34 -23 -55t-51 -21zM502 72v-1q-37 -41 -93 -64q-54 -22 -114 -22q-52 0 -100 18t-84 51q-35 32 -58 81q-22 47 -22 107t22 107q23 48 59 83q36 34 84 54q47 19 100 19
q56 0 111 -21t93 -62l-86 -75q-22 22 -52 37t-65 15q-29 0 -55 -12t-45 -31q-19 -20 -30 -48q-11 -30 -11 -61q0 -32 11 -60q11 -27 30 -48q20 -21 46 -33q27 -12 57 -12t60 14t56 36z" />
    <glyph glyph-name="Ccaron" unicode="&#x10c;" horiz-adv-x="693" 
d="M215 870h112l66 -99l66 99h112l-90 -144h-176zM670 94l-2 -3q-48 -50 -121 -78q-72 -28 -153 -28q-74 0 -140 26q-64 25 -114 72q-49 46 -78 110q-28 62 -28 140q0 83 30 149q30 65 80 111q49 45 113 69q63 24 129 24q41 0 77 -7q42 -8 77 -22q39 -16 71 -36
q35 -22 60 -46l-86 -81q-18 18 -42 33t-51 24q-30 10 -54 14q-30 5 -51 5q-44 0 -85 -18t-72 -49t-49 -75t-18 -94q0 -52 19 -93q20 -42 51 -72t74 -48q42 -18 89 -18q22 0 50 5q23 4 51 14q25 9 48 24q23 16 39 34z" />
    <glyph glyph-name="ccaron" unicode="&#x10d;" horiz-adv-x="527" 
d="M123 696h112l66 -99l66 99h113l-90 -144h-177zM503 73v-1q-37 -41 -93 -64q-54 -22 -114 -22q-52 0 -100 18t-84 51q-35 32 -58 81q-22 47 -22 107t22 107q23 48 59 83t84 54q47 19 100 19q55 0 111 -21q55 -21 93 -62l-86 -75q-22 22 -52 37t-65 15q-30 0 -55 -12
q-26 -12 -45 -31q-20 -19 -30 -48q-11 -30 -11 -61q0 -32 11 -60q10 -27 30 -48t46 -33q27 -12 57 -12t60 14t56 36z" />
    <glyph glyph-name="Dcaron" unicode="&#x10e;" horiz-adv-x="753" 
d="M155 870h111l66 -99l66 99h113l-90 -144h-176zM205 563l-1 -450h180q44 0 81 18q38 18 65 48t42 71q15 40 15 87t-15 87t-42 72q-27 31 -64 49q-38 18 -81 18h-180zM81 676l300 3q69 0 129 -27t105 -72q45 -46 71 -107q26 -63 26 -132q0 -72 -25 -132q-25 -61 -69 -108
q-42 -45 -104 -73q-60 -27 -130 -27h-303v675z" />
    <glyph glyph-name="dcaron" unicode="&#x10f;" horiz-adv-x="762" 
d="M673 432l-1 -2q21 27 33 49q13 23 21 50q-34 2 -56 24q-23 23 -23 57q0 32 24 54q25 23 58 23q32 0 55 -26q22 -25 22 -63q0 -51 -25 -98q-25 -48 -84 -93zM299 93l-1 -4q31 0 58 12q28 12 47 33q21 22 32 49q12 29 12 61t-12 60q-12 29 -31 49q-20 21 -46 33
q-27 12 -58 12q-30 0 -57 -12q-26 -12 -46 -33q-19 -21 -30 -48q-11 -28 -11 -58t11 -60q10 -28 30 -49q19 -21 45 -33t57 -12zM465 56l-3 -3q-38 -35 -82 -54q-46 -20 -95 -20q-51 0 -99 20q-46 19 -81 54q-33 33 -55 83q-21 48 -21 105q0 58 21 106t55 82q35 35 81 54
q45 19 97 19q45 0 85 -18q39 -17 75 -47l-7 69v202h119v-714h-70z" />
    <glyph glyph-name="Dcroat" unicode="&#x110;" horiz-adv-x="762" 
d="M205 288l-1 -175h189q42 0 78 18q38 19 65 49q28 32 45 72q16 39 16 87t-16 87q-17 41 -45 71q-29 30 -64 48q-36 18 -78 18h-189v-162h169v-113h-169zM81 289l-52 3v113h51v274h312q69 0 129 -27t105 -72q46 -46 71 -107q26 -63 26 -132t-26 -132q-26 -62 -70 -108
t-105 -73q-60 -27 -129 -27h-312v288z" />
    <glyph glyph-name="dcroat" unicode="&#x111;" horiz-adv-x="625" 
d="M300 95l-1 -4q31 0 58 12q28 12 47 33q21 22 32 49q12 29 12 61t-12 60q-12 29 -31 49q-20 21 -46 33q-27 12 -58 12q-30 0 -57 -12q-26 -12 -46 -33t-30 -48q-11 -28 -11 -58t11 -60q10 -28 30 -49t45 -33t57 -12zM466 58l-3 -3q-38 -35 -82 -54q-46 -20 -95 -20
q-51 0 -99 20q-47 19 -81 54q-33 33 -55 83q-21 48 -21 105q0 58 21 106t55 82q34 35 81 54q45 19 97 19q44 0 85 -18q39 -17 75 -47l-7 69v44h-244v76h244v82h119v-82h55v-76h-55v-556h-70z" />
    <glyph glyph-name="Emacron" unicode="&#x112;" horiz-adv-x="612" 
d="M156 835h314v-90h-314v90zM82 675h478v-112h-355v-164h335v-113h-335v-174h358v-112h-481v675z" />
    <glyph glyph-name="emacron" unicode="&#x113;" horiz-adv-x="571" 
d="M141 670h297v-90h-297v90zM291 412h-1q-53 0 -86 -35q-34 -35 -44 -84l250 9q-13 53 -44 82q-29 28 -75 28zM517 76h-2q-37 -44 -93 -66q-57 -23 -118 -23q-52 0 -102 18t-87 51t-60 81q-23 49 -23 107q0 62 21 111q21 50 57 83t83 51q46 18 98 18q53 0 98 -19
q47 -20 81 -57t54 -93t18 -128h-384q13 -55 57 -85q43 -30 102 -30q74 0 122 51z" />
    <glyph glyph-name="Ebreve" unicode="&#x114;" horiz-adv-x="612" 
d="M230 879q4 -26 27 -49q22 -22 57 -22q36 0 59 21q22 21 27 50h69q-8 -75 -46 -115q-39 -40 -108 -40t-108 40q-40 41 -44 115h67zM82 675h478v-112h-355v-164h335v-113h-335v-174h358v-112h-481v675z" />
    <glyph glyph-name="ebreve" unicode="&#x115;" horiz-adv-x="571" 
d="M208 703v-1q4 -26 27 -48q22 -22 57 -22q38 0 60 21t27 50h68q-8 -74 -46 -114q-39 -40 -108 -40t-108 40q-40 41 -44 114h67zM291 411h-1q-53 0 -86 -35q-34 -35 -44 -84l250 9q-13 53 -44 82q-29 28 -75 28zM517 75h-2q-37 -43 -93 -66q-57 -23 -118 -23q-52 0 -102 18
t-87 51t-60 81q-23 49 -23 107q0 61 21 111t57 83t83 51q46 18 98 18q53 0 98 -19q47 -19 81 -57t54 -93q20 -56 18 -128h-384q13 -55 57 -85q43 -30 102 -30q74 0 122 51z" />
    <glyph glyph-name="Edotaccent" unicode="&#x116;" horiz-adv-x="612" 
d="M317 741h-1q-32 0 -54 22q-23 23 -23 55q0 31 23 54q22 22 54 22q29 0 51 -22q23 -23 23 -54q0 -33 -22 -55t-51 -22zM81 675h478v-112h-355v-164h335v-113h-335v-174h358v-112h-481v675z" />
    <glyph glyph-name="edotaccent" unicode="&#x117;" horiz-adv-x="571" 
d="M295 571l-1 -1q-32 0 -54 21t-22 56q0 32 23 53t54 21q29 0 51 -21q23 -21 23 -53q0 -34 -23 -55q-22 -21 -51 -21zM290 411h-1q-53 0 -86 -35q-34 -35 -44 -84l250 9q-13 53 -44 82q-29 28 -75 28zM516 75h-2q-38 -43 -93 -66q-57 -23 -118 -23q-53 0 -102 18t-87 51
t-60 81q-23 49 -23 107q0 61 21 111t57 83t83 51q46 18 98 18q53 0 98 -19q46 -19 81 -57t54 -93q20 -56 18 -128h-384q13 -55 57 -85t102 -30q74 0 122 51z" />
    <glyph glyph-name="Eogonek" unicode="&#x118;" horiz-adv-x="605" 
d="M577 -164l1 -2q-36 -33 -99 -33q-58 0 -91 24t-33 71q0 33 16 58q17 26 43 45h-332v675h478v-112h-355v-164h335v-113h-335v-174h358v-112h-7q-30 -7 -53 -17q-20 -9 -34 -21q-13 -11 -19 -24q-6 -12 -6 -26q0 -16 12 -28t32 -12q42 0 69 27z" />
    <glyph glyph-name="eogonek" unicode="&#x119;" horiz-adv-x="571" 
d="M291 412h-1q-53 0 -86 -35q-34 -35 -44 -84l250 9q-13 53 -44 82q-29 28 -75 28zM442 -156v-4q-34 -33 -99 -33q-58 0 -91 24t-33 72q0 25 11 47t27 38q-45 7 -87 29q-40 21 -72 54q-31 32 -49 76q-18 43 -18 96q0 61 21 111t57 83t83 51q46 18 98 18q53 0 98 -19
q46 -19 81 -57t54 -93q20 -56 18 -128h-384q13 -55 57 -85t102 -30q74 0 122 51l78 -70q-40 -45 -97 -68l-9 -3l-24 -8q-45 -15 -61 -34t-16 -43q0 -17 12 -29t32 -12q42 0 69 27z" />
    <glyph glyph-name="Ecaron" unicode="&#x11a;" horiz-adv-x="612" 
d="M138 870h112l66 -99l66 99h113l-90 -144h-177zM82 675h478v-112h-355v-164h335v-113h-335v-174h358v-112h-481v675z" />
    <glyph glyph-name="ecaron" unicode="&#x11b;" horiz-adv-x="571" 
d="M118 696h112l66 -99l66 99h113l-90 -144h-177zM291 412h-1q-53 0 -86 -35q-34 -35 -44 -84l250 9q-13 53 -44 82q-29 28 -75 28zM517 76h-2q-37 -44 -93 -66q-57 -23 -118 -23q-52 0 -102 18t-87 51t-60 81q-23 49 -23 107q0 62 21 111q21 50 57 83t83 51q46 18 98 18
q53 0 98 -19q47 -20 81 -57t54 -93t18 -128h-384q13 -55 57 -85q43 -30 102 -30q74 0 122 51z" />
    <glyph glyph-name="Gcircumflex" unicode="&#x11c;" horiz-adv-x="745" 
d="M391 826l-66 -99h-112l96 144h165l96 -144h-113zM691 85l-2 -4q-24 -24 -55 -41t-70 -31q-35 -13 -78 -19q-40 -6 -80 -6q-80 0 -147 27t-117 75t-78 112q-28 63 -28 141q0 76 28 139q28 64 77 111q48 47 114 72q67 26 143 26q93 0 168 -28q76 -28 127 -82l-83 -77
q-15 16 -39 30q-27 15 -52 23q-32 10 -58 14q-33 5 -57 5q-52 0 -96 -18q-43 -18 -75 -50q-31 -31 -49 -73t-18 -90q0 -49 18 -93q17 -42 50 -76q31 -33 77 -51q45 -18 99 -18q41 0 82 10q43 10 76 30v110h-141v112h264v-280z" />
    <glyph glyph-name="gcircumflex" unicode="&#x11d;" 
d="M309 650l-66 -99h-112l90 144h176l90 -144h-112zM304 400l-1 -4q-32 0 -59 -12q-26 -12 -46 -33q-19 -20 -31 -49q-12 -28 -12 -60q0 -31 12 -58q12 -28 31 -48q19 -21 47 -33q27 -12 59 -12q30 0 56 12t45 33q20 21 30 49q11 30 11 60q0 31 -11 61q-10 28 -30 49
q-19 21 -45 33t-56 12zM301 -229l-2 -4q-57 0 -118 12q-59 11 -120 35l33 93q48 -17 99 -27q49 -10 90 -10q77 0 114 39q38 40 38 98v27q-31 -24 -69 -39t-83 -15q-52 0 -97 19q-46 19 -81 54q-33 33 -55 83q-21 48 -21 105t21 105q21 49 57 83t83 54q48 20 96 20
q51 0 96 -19q46 -20 84 -54l20 60h70v-481q0 -56 -16 -98q-16 -43 -48 -75q-31 -31 -80 -48t-111 -17z" />
    <glyph glyph-name="Gbreve" unicode="&#x11e;" horiz-adv-x="745" 
d="M312 879q3 -26 27 -49q23 -22 59 -22q34 0 57 21q22 21 27 50h69q-8 -75 -46 -115q-39 -40 -108 -40t-108 40q-40 41 -44 115h67zM691 85l-2 -4q-24 -24 -55 -41t-70 -31q-35 -13 -78 -19q-40 -6 -80 -6q-80 0 -147 27t-117 75t-78 112q-28 63 -28 141q0 76 28 139
q28 64 77 111q48 47 114 72q67 26 143 26q93 0 168 -28q76 -28 127 -82l-83 -77q-15 16 -39 30q-27 15 -52 23q-32 10 -58 14q-33 5 -57 5q-52 0 -96 -18q-43 -18 -75 -50q-31 -31 -49 -73t-18 -90q0 -49 18 -93q17 -42 50 -76q31 -33 77 -51q45 -18 99 -18q41 0 82 10
q43 10 76 30v110h-141v112h264v-280z" />
    <glyph glyph-name="gbreve" unicode="&#x11f;" 
d="M220 703l-1 -1q5 -26 27 -48t59 -22t59 21t27 50h69q-8 -74 -46 -114q-39 -40 -108 -40q-70 0 -109 40q-38 40 -43 114h66zM303 399l-1 -4q-32 0 -59 -12q-26 -12 -46 -33q-19 -20 -31 -49t-12 -60t12 -58q12 -28 31 -48q19 -21 47 -33q27 -12 59 -12q31 0 56 12t45 33
t30 49q11 30 11 60q0 31 -11 61q-10 28 -30 49t-45 33t-56 12zM300 -230l-2 -4q-56 0 -118 12q-59 11 -120 35l33 93q48 -16 99 -27q49 -10 90 -10q76 0 114 39q38 40 38 98v27q-32 -24 -69 -39t-83 -15q-52 0 -97 19q-47 20 -81 54q-33 33 -55 83q-21 48 -21 105t21 105
q21 49 57 83t83 54q48 20 96 20q51 0 96 -19q47 -19 84 -54l20 60h70v-481q0 -56 -16 -98q-17 -44 -48 -75t-80 -48t-111 -17z" />
    <glyph glyph-name="Gdotaccent" unicode="&#x120;" horiz-adv-x="745" 
d="M393 741v-1q-31 0 -53 22q-23 23 -23 55q0 31 23 54q22 22 53 22q29 0 51 -22q23 -23 23 -54q0 -17 -6 -30t-17 -24q-10 -10 -24 -16t-27 -6zM691 84l-2 -4q-24 -24 -55 -41t-70 -31q-35 -13 -78 -19q-40 -6 -80 -6q-80 0 -147 27t-117 75t-78 112q-28 63 -28 141
q0 76 28 139q28 64 77 111q48 46 114 72q67 26 143 26q93 0 168 -28q76 -28 127 -82l-83 -77q-15 17 -39 30q-27 15 -52 23q-32 10 -58 14q-33 5 -57 5q-52 0 -96 -18q-43 -18 -75 -50q-31 -31 -49 -73t-18 -90q0 -50 18 -93q17 -42 50 -76q31 -33 77 -51q45 -18 99 -18
q41 0 82 10q43 10 76 30v110h-141v112h264v-280z" />
    <glyph glyph-name="gdotaccent" unicode="&#x121;" 
d="M309 571l-1 -1q-32 0 -54 21q-23 21 -23 56q0 32 23 53q22 21 54 21q28 0 51 -21t23 -53q0 -34 -22 -55t-51 -21zM303 399l-1 -4q-32 0 -59 -12q-26 -12 -46 -33q-19 -20 -31 -49t-12 -60t12 -58q12 -28 31 -48q19 -21 47 -33q27 -12 59 -12q31 0 56 12t45 33t30 49
q11 30 11 60q0 31 -11 61q-10 28 -30 49t-45 33t-56 12zM300 -230l-2 -4q-56 0 -118 12q-59 11 -120 35l33 93q48 -16 99 -27q49 -10 90 -10q76 0 114 39q38 40 38 98v27q-32 -24 -69 -39t-83 -15q-52 0 -97 19q-47 20 -81 54q-33 33 -55 83q-21 48 -21 105t21 105
q21 49 57 83t83 54q48 20 96 20q51 0 96 -19q47 -19 84 -54l20 60h70v-481q0 -56 -16 -98q-17 -44 -48 -75t-80 -48t-111 -17z" />
    <glyph glyph-name="Gcommaaccent" unicode="&#x122;" horiz-adv-x="745" 
d="M691 85l-2 -4q-24 -24 -55 -41t-70 -31q-35 -13 -78 -19q-40 -6 -80 -6q-80 0 -147 27t-117 75t-78 112q-28 63 -28 141q0 76 28 139q28 64 77 111q48 47 114 72q67 26 143 26q93 0 168 -28q76 -28 127 -82l-83 -77q-15 16 -39 30q-27 15 -52 23q-32 10 -58 14
q-33 5 -57 5q-52 0 -96 -18q-43 -18 -75 -50q-31 -31 -49 -73t-18 -90q0 -49 18 -93q17 -42 50 -76q31 -33 77 -51q45 -18 99 -18q41 0 82 10q43 10 76 30v110h-141v112h264v-280zM347 -309h1q18 25 29 45q12 23 18 46q-30 1 -52 23q-21 21 -21 53t22 54t55 22q32 0 53 -25
t21 -60q0 -47 -24 -93t-81 -90z" />
    <glyph glyph-name="gcommaaccent" unicode="&#x123;" 
d="M298 561q-17 0 -30 7q-14 8 -24 19t-16 27q-6 15 -6 33q0 47 24 93q24 47 80 89l23 -24q-18 -24 -30 -45t-18 -47q32 -2 53 -24q21 -23 21 -54q0 -29 -23 -52q-22 -22 -54 -22zM304 400l-1 -4q-32 0 -59 -12q-26 -12 -46 -33q-19 -20 -31 -49q-12 -28 -12 -60
q0 -31 12 -58q12 -28 31 -48q19 -21 47 -33q27 -12 59 -12q30 0 56 12t45 33q20 21 30 49q11 30 11 60q0 31 -11 61q-10 28 -30 49q-19 21 -45 33t-56 12zM301 -229l-2 -4q-57 0 -118 12q-59 11 -120 35l33 93q48 -17 99 -27q49 -10 90 -10q77 0 114 39q38 40 38 98v27
q-31 -24 -69 -39t-83 -15q-52 0 -97 19q-46 19 -81 54q-33 33 -55 83q-21 48 -21 105t21 105q21 49 57 83t83 54q48 20 96 20q51 0 96 -19q46 -20 84 -54l20 60h70v-481q0 -56 -16 -98q-16 -43 -48 -75q-31 -31 -80 -48t-111 -17z" />
    <glyph glyph-name="Hcircumflex" unicode="&#x124;" horiz-adv-x="774" 
d="M380 826l-66 -99h-112l96 144h165l96 -144h-113zM569 287h-364v-287h-123v675h123v-275h364v275h123v-675h-123v287z" />
    <glyph glyph-name="hcircumflex" unicode="&#x125;" horiz-adv-x="615" 
d="M326 875l-66 -99h-112l96 144h164l96 -144h-112zM322 394l-1 1q-41 0 -76 -21t-63 -54v-320h-119v714h119v-200l-6 -85q33 36 77 57t98 21q41 0 77 -12q38 -13 65 -37q29 -26 45 -64q17 -40 17 -93v-301h-118v277q0 31 -9 53q-9 23 -25 36q-17 14 -37 21t-44 7z" />
    <glyph glyph-name="Hbar" unicode="&#x126;" horiz-adv-x="775" 
d="M578 502h-364v-102h364v102zM578 287h-364v-287h-123v502h-57v76h57v97h123v-97h364v97h123v-97h30v-76h-30v-502h-123v287z" />
    <glyph glyph-name="hbar" unicode="&#x127;" horiz-adv-x="614" 
d="M321 394l-3 1q-42 0 -76 -21t-63 -54v-320h-118v558h-55v75h55v81h118v-81h245v-75h-245v-44l-6 -85q35 36 78 57t99 21q38 0 76 -12t66 -37q29 -26 45 -64q17 -40 17 -93v-301h-119v277q0 31 -9 53q-9 23 -25 36q-17 14 -37 21t-43 7z" />
    <glyph glyph-name="Itilde" unicode="&#x128;" horiz-adv-x="286" 
d="M-20 749l-2 -1q2 61 30 89q29 29 66 29q17 0 35 -6q31 -11 38 -13q13 -5 39 -13q20 -6 39 -6q11 0 21 6t12 23h47q0 -59 -24 -90t-65 -33q-20 0 -39 6q-26 8 -39 13t-39 13q-20 6 -38 6q-27 0 -32 -23h-49zM87 674h123v-675h-123v675z" />
    <glyph glyph-name="itilde" unicode="&#x129;" horiz-adv-x="249" 
d="M-40 582q2 61 30 89q29 29 66 29q18 0 36 -6q24 -8 36 -13t38 -13q20 -6 39 -6q11 0 22 6q10 6 12 23h47q0 -60 -23 -92t-66 -32q-19 0 -39 6q-26 8 -39 13t-39 13q-20 6 -39 6q-12 0 -21 -6t-11 -17h-49zM62 495h118v-495h-118v495z" />
    <glyph glyph-name="Imacron" unicode="&#x12a;" horiz-adv-x="286" 
d="M-5 839h297v-90h-297v90zM89 675h123v-675h-123v675z" />
    <glyph glyph-name="imacron" unicode="&#x12b;" horiz-adv-x="249" 
d="M-29 659h297v-90h-297v90zM61 495h118v-495h-118v495z" />
    <glyph glyph-name="Ibreve" unicode="&#x12c;" horiz-adv-x="286" 
d="M58 880q3 -26 27 -49q23 -22 59 -22q34 0 57 21q22 21 27 50h69q-8 -75 -46 -115q-39 -40 -108 -40t-108 40q-40 41 -44 115h67zM89 675h123v-675h-123v675z" />
    <glyph glyph-name="ibreve" unicode="&#x12d;" horiz-adv-x="249" 
d="M38 703l-4 2q2 -13 9 -27q8 -14 19 -24t27 -16q15 -6 33 -6q38 0 60 21t27 50h68q-8 -74 -46 -114q-39 -40 -108 -40t-108 40q-40 41 -44 114h67zM57 497h118v-495h-118v495z" />
    <glyph glyph-name="Iogonek" unicode="&#x12e;" horiz-adv-x="288" 
d="M228 -164q-36 -33 -99 -33q-58 0 -91 24t-33 71q0 40 24 69q24 28 62 48v659h123v-675h-7q-30 -7 -53 -17q-20 -9 -34 -21q-13 -11 -19 -24q-6 -12 -6 -26q0 -16 12 -28t32 -12q42 0 69 27z" />
    <glyph glyph-name="iogonek" unicode="&#x12f;" horiz-adv-x="251" 
d="M124 578h-3q-32 0 -54 22t-22 54t23 53q22 21 54 21q30 0 53 -21t23 -53t-22 -54t-52 -22zM106 -197v-1q-59 0 -92 24t-33 71q0 38 22 66q23 29 57 48v483h118v-475l5 -20q-64 -16 -89 -38q-24 -21 -24 -50q0 -16 13 -28t33 -12q42 0 69 27l20 -62q-36 -33 -99 -33z" />
    <glyph glyph-name="Idotaccent" unicode="&#x130;" horiz-adv-x="286" 
d="M145 741h-1q-32 0 -54 22q-23 23 -23 55q0 31 23 54q22 22 54 22q29 0 51 -22q23 -23 23 -54q0 -33 -22 -55t-51 -22zM89 675h123v-675h-123v675z" />
    <glyph glyph-name="dotlessi" unicode="&#x131;" horiz-adv-x="249" 
d="M65 495h119v-495h-119v495z" />
    <glyph glyph-name="IJ" unicode="&#x132;" horiz-adv-x="848" 
d="M82 675h123v-675h-123v675zM555 -13l2 -1q-35 0 -75 8q-35 7 -72 23q-32 14 -64 38t-53 49l71 77q34 -36 81 -57t87 -21q23 0 45 8q21 7 38 23t26 39q9 24 9 57v444h123v-451q0 -63 -18 -108q-18 -44 -48 -73q-30 -28 -69 -42q-38 -13 -83 -13z" />
    <glyph glyph-name="ij" unicode="&#x133;" horiz-adv-x="497" 
d="M375 578h-3q-32 0 -54 22t-22 54t23 53t54 21t53 -21q23 -21 23 -53t-22 -54t-52 -22zM124 578h-3q-32 0 -54 22t-22 54t23 53q22 21 54 21q30 0 53 -21t23 -53t-22 -54t-52 -22zM427 -36v-2q0 -45 -15 -81q-15 -37 -43 -63t-69 -40q-42 -14 -90 -14v108q21 0 38 7
q16 7 31 20q13 12 21 29q8 18 8 36v531h119v-531zM59 493h119v-495h-119v495z" />
    <glyph glyph-name="Jcircumflex" unicode="&#x134;" horiz-adv-x="576" 
d="M438 826l-66 -99h-112l96 144h164l96 -144h-112zM269 -13l1 -1q-35 0 -75 8q-35 7 -72 23q-32 14 -64 38q-30 22 -52 49l71 77q34 -36 81 -57t87 -21q23 0 45 8q21 7 38 23t26 39q9 24 9 57v444h123v-451q0 -63 -18 -108q-18 -44 -48 -73q-30 -28 -69 -42
q-38 -13 -83 -13z" />
    <glyph glyph-name="jcircumflex" unicode="&#x135;" horiz-adv-x="249" 
d="M124 650l-66 -99h-112l90 144h176l90 -144h-112zM183 -36v-1q0 -45 -15 -81q-15 -37 -43 -63t-69 -40q-42 -14 -90 -14v108q21 0 38 7q18 8 31 19q13 12 21 29q8 18 8 36v531h119v-531z" />
    <glyph glyph-name="Kcommaaccent" unicode="&#x136;" horiz-adv-x="680" 
d="M288 275l-83 -87v-188h-123v675h123v-319l308 319h159l-298 -310l317 -365h-160zM299 -305v1q18 25 29 45q13 24 17 46q-30 1 -52 23q-21 21 -21 53q0 31 23 54q22 22 54 22q17 0 30 -7q14 -8 24 -19t16 -27q6 -15 6 -33q0 -47 -24 -93t-80 -90z" />
    <glyph glyph-name="kcommaaccent" unicode="&#x137;" horiz-adv-x="567" 
d="M273 206l-89 -94v-112h-119v714h119v-448l219 229h144l-199 -210l221 -285h-136zM247 -305v1q18 22 30 45t18 46q-30 1 -52 23q-21 21 -21 53t22 54t54 22q17 0 30 -7q14 -8 24 -19t16 -27q6 -15 6 -33q0 -47 -24 -93t-81 -90z" />
    <glyph glyph-name="kgreenlandic" unicode="&#x138;" horiz-adv-x="566" 
d="M272 207l-88 -93v-114h-119v495h119v-229l219 229h143l-199 -209l222 -286h-136z" />
    <glyph glyph-name="Lacute" unicode="&#x139;" horiz-adv-x="574" 
d="M83 727l72 144h136l-96 -144h-112zM86 675h123v-563h347v-112h-470v675z" />
    <glyph glyph-name="lacute" unicode="&#x13a;" horiz-adv-x="252" 
d="M71 752l72 144h137l-96 -144h-113zM67 714h118v-714h-118v714z" />
    <glyph glyph-name="Lcommaaccent" unicode="&#x13b;" horiz-adv-x="571" 
d="M82 675h123v-563h347v-112h-470v675zM252 -305h2q18 25 29 45q12 23 18 46q-30 1 -52 23q-21 21 -21 53t22 54t54 22t53 -25t21 -60q0 -47 -24 -93t-81 -90z" />
    <glyph glyph-name="lcommaaccent" unicode="&#x13c;" horiz-adv-x="252" 
d="M66 714h118v-714h-118v714zM76 -305h2q18 25 29 45q12 23 18 46q-30 1 -52 23q-21 21 -21 53t22 54t54 22t53 -25t21 -60q0 -47 -24 -93t-81 -90z" />
    <glyph glyph-name="Lcaron" unicode="&#x13d;" horiz-adv-x="571" 
d="M314 432l-1 -2q21 27 33 49q13 23 21 50q-34 2 -56 24q-23 23 -23 57q0 31 23 54t57 23t57 -26q22 -25 22 -63q0 -51 -25 -98q-26 -48 -84 -93zM80 673h123v-563h347v-112h-470v675z" />
    <glyph glyph-name="lcaron" unicode="&#x13e;" horiz-adv-x="402" 
d="M67 714h118v-714h-118v714zM312 432l-1 -2q21 27 33 49q13 23 21 50q-34 2 -56 24q-23 23 -23 57q0 32 24 54q25 23 58 23q32 0 55 -26q22 -25 22 -63q0 -51 -25 -98q-26 -48 -84 -93z" />
    <glyph glyph-name="Ldot" unicode="&#x13f;" horiz-adv-x="588" 
d="M436 304q-33 0 -55 22t-22 54t22 54t55 22q30 0 52 -22t22 -54t-22 -54t-52 -22zM82 675h123v-563h347v-112h-470v675z" />
    <glyph glyph-name="ldot" unicode="&#x140;" horiz-adv-x="380" 
d="M67 714h118v-714h-118v714zM326 291v-1q-31 0 -54 23q-22 22 -22 54t22 54t54 22t54 -22t22 -54t-22 -54t-54 -22z" />
    <glyph glyph-name="Lslash" unicode="&#x141;" horiz-adv-x="579" 
d="M90 235l-69 -46v68l69 46v372h123v-289l121 81v-68l-121 -81v-206h347v-112h-470v235z" />
    <glyph glyph-name="lslash" unicode="&#x142;" horiz-adv-x="269" 
d="M73 0v299l-56 -36v61l56 36v354h119v-279l60 39v-61l-60 -39v-374h-119z" />
    <glyph glyph-name="Nacute" unicode="&#x143;" horiz-adv-x="775" 
d="M319 727l72 144h137l-96 -144h-113zM205 495v-495h-123v675h123l364 -496v496h123v-675h-123z" />
    <glyph glyph-name="nacute" unicode="&#x144;" horiz-adv-x="616" 
d="M257 551l72 144h137l-96 -144h-113zM322 394v-1q-42 0 -76 -21t-63 -54v-320h-119v495h80l21 -80q73 93 186 93q41 0 77 -12q38 -13 65 -37q29 -26 45 -64q17 -40 17 -93v-301h-119v277q0 30 -9 52t-25 37q-16 14 -37 22q-20 7 -43 7z" />
    <glyph glyph-name="Ncommaaccent" unicode="&#x145;" horiz-adv-x="775" 
d="M205 495v-495h-123v675h123l364 -496v496h123v-675h-123zM326 -305v1q18 25 29 45q13 24 17 46q-30 1 -52 23q-21 21 -21 53q0 31 23 54q22 22 54 22q17 0 30 -7q14 -8 24 -19t16 -27q6 -15 6 -33q0 -47 -24 -93t-80 -90z" />
    <glyph glyph-name="ncommaaccent" unicode="&#x146;" horiz-adv-x="616" 
d="M322 394v-1q-42 0 -76 -21t-63 -54v-320h-119v495h80l21 -80q73 93 186 93q41 0 77 -12q38 -13 65 -37q29 -26 45 -64q17 -40 17 -93v-301h-119v277q0 30 -9 52t-25 37q-16 14 -37 22q-20 7 -43 7zM255 -306v1q18 25 29 45q13 24 17 46q-30 1 -52 23q-21 21 -21 53
q0 31 23 54q22 22 54 22q17 0 30 -7q14 -8 24 -19t16 -27q6 -15 6 -33q0 -46 -24 -93q-24 -46 -80 -90z" />
    <glyph glyph-name="Ncaron" unicode="&#x147;" horiz-adv-x="775" 
d="M205 870h112l66 -99l66 99h112l-90 -144h-176zM205 495v-495h-123v675h123l364 -496v496h123v-675h-123z" />
    <glyph glyph-name="ncaron" unicode="&#x148;" horiz-adv-x="616" 
d="M147 696h112l66 -99l66 99h112l-90 -144h-176zM322 394v-1q-42 0 -76 -21t-63 -54v-320h-119v495h80l21 -80q73 93 186 93q41 0 77 -12q38 -13 65 -37q29 -26 45 -64q17 -40 17 -93v-301h-119v277q0 30 -9 52t-25 37q-16 14 -37 22q-20 7 -43 7z" />
    <glyph glyph-name="napostrophe" unicode="&#x149;" horiz-adv-x="761" 
d="M44 432l-1 -2q21 27 33 49q13 23 21 50q-34 2 -56 24q-23 23 -23 57q0 32 24 54q25 23 58 23q32 0 55 -26q22 -25 22 -63q0 -51 -25 -98q-26 -48 -84 -93zM477 392v-1q-42 0 -76 -21q-35 -21 -63 -54v-320h-119v495h80l21 -80q74 93 186 93q41 0 77 -12q38 -13 65 -37
q29 -26 45 -64q17 -40 17 -93v-301h-119v277q0 30 -9 52t-25 37q-16 14 -37 22q-20 7 -43 7z" />
    <glyph glyph-name="Eng" unicode="&#x14a;" horiz-adv-x="774" 
d="M479 -245l-3 -2q-65 0 -122 30q-56 30 -97 81l71 78q28 -34 65 -51t68 -17q43 0 75 29q31 28 31 84v12l-364 495v-495h-123v675h123l364 -496v496h123v-694q0 -55 -17 -98t-45 -71q-29 -29 -67 -42q-40 -14 -82 -14z" />
    <glyph glyph-name="eng" unicode="&#x14b;" horiz-adv-x="618" 
d="M342 -127v-2q22 0 39 7q18 8 31 19q13 12 21 29q8 18 8 36v36h-4v277q0 29 -9 52q-9 22 -25 37q-16 14 -37 22q-20 7 -43 7q-41 0 -76 -21t-63 -54v-320h-119v495h80l21 -80q74 93 186 93q41 0 77 -12q38 -13 65 -37q29 -26 45 -64q17 -40 17 -93v-222h4v-115
q0 -45 -15 -81q-15 -35 -44 -63q-28 -26 -69 -40q-42 -14 -90 -14v108z" />
    <glyph glyph-name="Omacron" unicode="&#x14c;" horiz-adv-x="796" 
d="M246 835h313v-90h-313v90zM397 -13l-2 -1q-75 0 -141 27t-114 75q-49 49 -77 111t-28 137q0 70 29 136q28 63 77 112q48 48 114 75t141 27t141 -27t114 -75q49 -49 77 -112q29 -66 29 -136q0 -74 -28 -136t-77 -111q-48 -48 -114 -75t-141 -27zM395 102q47 0 91 18
q43 18 75 50t50 75t18 91t-18 91t-50 75t-75 50t-91 18t-90 -18t-74 -50t-50 -75t-18 -91t18 -91t50 -75t74 -50t90 -18z" />
    <glyph glyph-name="omacron" unicode="&#x14d;" horiz-adv-x="601" 
d="M148 669h297v-90h-297v90zM300 -13l1 -1q-52 0 -100 18q-47 18 -85 51t-60 81q-22 47 -22 107t22 107q23 49 60 83q38 35 85 54t100 19q55 0 102 -19q48 -19 84 -54t59 -83q22 -47 22 -107q0 -59 -22 -106q-22 -48 -60 -81t-85 -51q-48 -18 -101 -18zM301 94v1
q29 0 57 11q26 10 46 30q18 18 31 47q12 27 12 60t-12 61q-12 29 -31 49q-20 21 -46 33q-27 12 -57 12q-31 0 -56 -12t-45 -33t-30 -49q-11 -30 -11 -61t11 -59t30 -47t45 -31t56 -12z" />
    <glyph glyph-name="Obreve" unicode="&#x14e;" horiz-adv-x="796" 
d="M316 879q4 -26 27 -49q22 -22 57 -22q37 0 59 21t27 50h69q-8 -75 -46 -115q-39 -40 -108 -40t-108 40q-40 41 -44 115h67zM397 -13l-2 -1q-75 0 -141 27t-114 75q-49 49 -77 111t-28 137q0 70 29 136q28 63 77 112q48 48 114 75t141 27t141 -27t114 -75q49 -49 77 -112
q29 -66 29 -136q0 -74 -28 -136t-77 -111q-48 -48 -114 -75t-141 -27zM395 102q47 0 91 18q43 18 75 50t50 75t18 91t-18 91t-50 75t-75 50t-91 18t-90 -18t-74 -50t-50 -75t-18 -91t18 -91t50 -75t74 -50t90 -18z" />
    <glyph glyph-name="obreve" unicode="&#x14f;" horiz-adv-x="601" 
d="M215 703l-4 2q1 -13 9 -27t19 -24t27 -16q15 -6 33 -6q37 0 60 21q22 21 27 50h68q-8 -74 -46 -114q-39 -40 -108 -40t-108 40q-40 41 -44 114h67zM296 -11l1 -1q-52 0 -100 18q-47 18 -85 51t-60 81q-22 47 -22 107t22 107q23 49 60 83q38 35 85 54t100 19q55 0 102 -19
q48 -19 84 -54t59 -83q22 -47 22 -107q0 -59 -22 -106q-22 -48 -60 -81t-85 -51q-48 -18 -101 -18zM297 96v1q29 0 57 11q26 10 46 30q18 18 31 47q12 27 12 60t-12 61q-12 29 -31 49q-20 21 -46 33q-27 12 -57 12q-31 0 -56 -12t-45 -33t-30 -49q-11 -30 -11 -61t11 -59
t30 -47t45 -31q25 -12 56 -12z" />
    <glyph glyph-name="Ohungarumlaut" unicode="&#x150;" horiz-adv-x="796" 
d="M605 875l-78 -144h-100l54 144h124zM440 875l-78 -144h-100l54 144h124zM397 -13l-2 -1q-75 0 -141 27t-114 75q-49 49 -77 111t-28 137q0 70 29 136q28 63 77 112q48 48 114 75t141 27t141 -27t114 -75q49 -49 77 -112q29 -66 29 -136q0 -74 -28 -136t-77 -111
q-48 -48 -114 -75t-141 -27zM395 102q47 0 91 18q43 18 75 50t50 75t18 91t-18 91t-50 75t-75 50t-91 18t-90 -18t-74 -50t-50 -75t-18 -91t18 -91t50 -75t74 -50t90 -18z" />
    <glyph glyph-name="ohungarumlaut" unicode="&#x151;" horiz-adv-x="601" 
d="M505 695l-78 -144h-101l54 144h125zM339 695l-78 -144h-99l54 144h123zM300 -13l1 -1q-52 0 -100 18q-47 18 -85 51t-60 81q-22 47 -22 107t22 107q23 49 60 83q38 35 85 54t100 19q55 0 102 -19q48 -19 84 -54t59 -83q22 -47 22 -107q0 -59 -22 -106q-22 -48 -60 -81
t-85 -51q-48 -18 -101 -18zM301 94v1q29 0 57 11q26 10 46 30q18 18 31 47q12 27 12 60t-12 61q-12 29 -31 49q-20 21 -46 33q-27 12 -57 12q-31 0 -56 -12t-45 -33t-30 -49q-11 -30 -11 -61t11 -59t30 -47t45 -31t56 -12z" />
    <glyph glyph-name="OE" unicode="&#x152;" horiz-adv-x="1057" 
d="M527 109l2 458h-141q-44 0 -85 -18q-39 -17 -70 -50q-30 -32 -48 -73q-18 -42 -18 -89q0 -45 17 -88q16 -41 45 -73q27 -30 68 -49q39 -18 83 -18h147zM370 -1v-3q-68 0 -128 27t-105 72t-71 107q-26 63 -26 132t26 132q25 61 71 108q44 46 105 73q60 27 128 27h637v-112
h-355v-164h335v-113h-335v-174h358v-112h-640z" />
    <glyph glyph-name="oe" unicode="&#x153;" horiz-adv-x="982" 
d="M702 412q-53 0 -86 -35q-34 -35 -44 -84l251 9q-13 53 -45 82q-31 28 -76 28zM300 95v1q29 0 57 11q26 10 46 30q18 18 31 47q12 27 12 60q0 32 -12 61t-31 49q-20 21 -46 33q-27 12 -57 12t-56 -12t-45 -33q-20 -21 -30 -49q-11 -30 -11 -61t11 -59t30 -47t45 -31
t56 -12zM929 77l-2 1q-37 -43 -92 -66t-117 -23t-117 24q-54 23 -94 68q-36 -42 -92 -67q-54 -24 -115 -24q-52 0 -100 18q-47 18 -85 51q-37 33 -60 81q-22 47 -22 107t22 107q23 49 60 83q38 35 85 54t100 19q60 0 113 -24t90 -67q37 43 90 66q54 23 111 23q52 0 97 -19
q47 -19 81 -57t54 -93q20 -56 18 -128h-384q13 -55 57 -85q43 -30 102 -30q74 0 122 51z" />
    <glyph glyph-name="Racute" unicode="&#x154;" horiz-adv-x="694" 
d="M269 727l72 144h137l-96 -144h-113zM205 563l-1 -230h216q23 0 42 11q18 10 30 27q12 16 18 38q6 21 6 42t-6 41t-18 36q-13 17 -30 26q-18 9 -40 9h-217zM415 220l-212 -3v-222h-123v675h357q49 0 86 -18q38 -18 63 -49q26 -32 39 -70q14 -40 14 -79q0 -31 -7 -59
q-8 -30 -21 -57t-33 -51q-19 -23 -45 -40l124 -249h-132z" />
    <glyph glyph-name="racute" unicode="&#x155;" horiz-adv-x="377" 
d="M139 551l72 144h137l-96 -144h-113zM65 0l-1 494h87l27 -100q40 53 87 83q48 30 103 30v-114q-62 0 -108 -27t-76 -69v-297h-119z" />
    <glyph glyph-name="Rcommaaccent" unicode="&#x156;" horiz-adv-x="694" 
d="M205 563l-1 -230h216q23 0 42 11q18 10 30 27q12 16 18 38q6 21 6 42t-6 41t-18 36q-13 17 -30 26q-18 9 -40 9h-217zM415 220l-212 -3v-222h-123v675h357q49 0 86 -18q38 -18 63 -49q26 -32 39 -70q14 -40 14 -79q0 -31 -7 -59q-8 -30 -21 -57t-33 -51q-19 -23 -45 -40
l124 -249h-132zM297 -310q18 25 29 45q12 23 18 46q-30 1 -52 23q-21 21 -21 53t22 54t55 22q32 0 53 -25q21 -26 21 -60q0 -46 -24 -93t-79 -90z" />
    <glyph glyph-name="rcommaaccent" unicode="&#x157;" horiz-adv-x="376" 
d="M65 0l1 494h86l28 -100q38 53 86 83t103 30v-114q-61 0 -108 -27t-78 -69v-297h-118zM76 -306h2q18 25 29 45q12 23 18 46q-30 1 -52 23q-21 21 -21 53t22 54t54 22t53 -25q21 -26 21 -60q0 -46 -24 -93t-81 -90z" />
    <glyph glyph-name="Rcaron" unicode="&#x158;" horiz-adv-x="694" 
d="M150 870h112l66 -99l66 99h112l-90 -144h-176zM205 563l-1 -230h216q23 0 42 11q18 10 30 27q12 16 18 38q6 21 6 42t-6 41t-18 36q-13 17 -30 26q-18 9 -40 9h-217zM415 220l-212 -3v-222h-123v675h357q49 0 86 -18q38 -18 63 -49q26 -32 39 -70q14 -40 14 -79
q0 -31 -7 -59q-8 -30 -21 -57t-33 -51q-19 -23 -45 -40l124 -249h-132z" />
    <glyph glyph-name="rcaron" unicode="&#x159;" horiz-adv-x="377" 
d="M44 696h111l66 -99l66 99h113l-90 -144h-176zM65 0l1 494h86l28 -100q38 53 86 83t103 30v-114q-61 0 -108 -27t-78 -69v-297h-118z" />
    <glyph glyph-name="Sacute" unicode="&#x15a;" horiz-adv-x="620" 
d="M257 727l72 144h137l-96 -144h-113zM80 184l-3 -1q67 -41 135 -61q64 -19 120 -19q63 0 90 24t27 62q0 20 -7 33t-23 24q-15 10 -39 18t-57 15q-85 21 -138 45q-51 24 -82 51q-29 26 -40 57q-10 29 -10 63q0 39 15 74t45 60q31 26 74 41t99 15q33 0 65 -4q33 -4 74 -14
q40 -10 75 -25q39 -17 69 -40l-49 -98q-27 18 -57 29q-35 13 -63 20q-32 7 -60 12q-32 5 -48 5q-47 0 -76 -21q-28 -21 -28 -55q0 -14 6 -27t23 -27q16 -13 43 -25q24 -10 68 -22q74 -21 123 -42t78 -45t41 -53t12 -65q0 -48 -18 -85t-51 -63t-78 -39q-47 -14 -102 -14
q-77 0 -156 24t-150 75z" />
    <glyph glyph-name="sacute" unicode="&#x15b;" horiz-adv-x="516" 
d="M209 551l72 144h137l-96 -144h-113zM64 150h-7q62 -32 121 -45q58 -13 97 -13q35 0 54 13t19 31q-2 22 -21 33t-60 18q-66 13 -112 32q-44 18 -68 39t-33 45t-9 48q-2 33 12 62q14 30 40 50q27 21 66 33t89 12q24 0 54 -3t60 -9q33 -7 57 -16q28 -11 47 -24l-41 -91
q-16 9 -38 15q-26 7 -44 11q-30 6 -45 8q-22 3 -42 3q-36 0 -63 -11q-25 -11 -24 -33q0 -18 17 -30q16 -12 62 -21q125 -27 176 -67q53 -41 53 -99q1 -33 -12 -61t-42 -49t-67 -33q-39 -12 -88 -12q-26 0 -63 5t-66 13q-35 9 -64 22q-30 13 -58 30z" />
    <glyph glyph-name="Scircumflex" unicode="&#x15c;" horiz-adv-x="620" 
d="M334 826l-66 -99h-112l96 144h165l96 -144h-113zM80 184l-3 -1q67 -41 135 -61q64 -19 120 -19q63 0 90 24t27 62q0 20 -7 33t-23 24q-15 10 -39 18t-57 15q-85 21 -138 45q-51 24 -82 51q-29 26 -40 57q-10 29 -10 63q0 39 15 74t45 60q31 26 74 41t99 15q33 0 65 -4
q33 -4 74 -14q40 -10 75 -25q39 -17 69 -40l-49 -98q-27 18 -57 29q-35 13 -63 20q-32 7 -60 12q-32 5 -48 5q-47 0 -76 -21q-28 -21 -28 -55q0 -14 6 -27t23 -27q16 -13 43 -25q24 -10 68 -22q74 -21 123 -42t78 -45t41 -53t12 -65q0 -48 -18 -85t-51 -63t-78 -39
q-47 -14 -102 -14q-77 0 -156 24t-150 75z" />
    <glyph glyph-name="scircumflex" unicode="&#x15d;" horiz-adv-x="516" 
d="M279 650l-66 -99h-112l90 144h176l90 -144h-112zM64 150h-7q62 -32 121 -45q58 -13 97 -13q35 0 54 13t19 31q-2 22 -21 33t-60 18q-66 13 -112 32q-44 18 -68 39t-33 45t-9 48q-2 33 12 62q14 30 40 50q27 21 66 33t89 12q24 0 54 -3t60 -9q33 -7 57 -16q28 -11 47 -24
l-41 -91q-16 9 -38 15q-26 7 -44 11q-30 6 -45 8q-22 3 -42 3q-36 0 -63 -11q-25 -11 -24 -33q0 -18 17 -30q16 -12 62 -21q125 -27 176 -67q53 -41 53 -99q1 -33 -12 -61t-42 -49t-67 -33q-39 -12 -88 -12q-26 0 -63 5t-66 13q-35 9 -64 22q-30 13 -58 30z" />
    <glyph glyph-name="Scedilla" unicode="&#x15e;" horiz-adv-x="620" 
d="M80 184l-3 -1q67 -41 135 -61q64 -19 120 -19q63 0 90 24t27 62q0 20 -7 33t-23 24q-15 10 -39 18t-57 15q-85 21 -138 45q-51 24 -82 51q-29 26 -40 57q-10 29 -10 63q0 39 15 74t45 60q31 26 74 41t99 15q33 0 65 -4q33 -4 74 -14q40 -10 75 -25q39 -17 69 -40l-49 -98
q-27 18 -57 29q-35 13 -63 20q-32 7 -60 12q-32 5 -48 5q-47 0 -76 -21q-28 -21 -28 -55q0 -14 6 -27t23 -27q16 -13 43 -25q24 -10 68 -22q74 -21 123 -42t78 -45t41 -53t12 -65q0 -48 -18 -85t-51 -63t-78 -39q-47 -14 -102 -14q-77 0 -156 24t-150 75zM282 -306v1
q18 25 29 45q13 24 17 46q-30 1 -52 23q-21 21 -21 53q0 31 23 54q22 22 54 22q17 0 30 -7q14 -8 24 -19t16 -27q6 -15 6 -33q0 -46 -24 -93q-24 -46 -80 -90z" />
    <glyph glyph-name="scedilla" unicode="&#x15f;" horiz-adv-x="516" 
d="M64 150h-7q62 -32 121 -45q58 -13 97 -13q35 0 54 13t19 31q-2 22 -21 33t-60 18q-66 13 -112 32q-44 18 -68 39t-33 45t-9 48q-2 33 12 62q14 30 40 50q27 21 66 33t89 12q24 0 54 -3t60 -9q33 -7 57 -16q28 -11 47 -24l-41 -91q-16 9 -38 15q-26 7 -44 11q-30 6 -45 8
q-22 3 -42 3q-36 0 -63 -11q-25 -11 -24 -33q0 -18 17 -30q16 -12 62 -21q125 -27 176 -67q53 -41 53 -99q1 -33 -12 -61t-42 -49t-67 -33q-39 -12 -88 -12q-26 0 -63 5t-66 13q-35 9 -64 22q-30 13 -58 30zM205 -305h1q18 25 29 45q12 23 18 46q-30 1 -52 23q-21 21 -21 53
t22 54t55 22q32 0 53 -25t21 -60q0 -47 -24 -93t-81 -90z" />
    <glyph glyph-name="Scaron" unicode="&#x160;" horiz-adv-x="620" 
d="M146 870h111l66 -99l66 99h113l-90 -144h-176zM80 184l-3 -1q67 -41 135 -61q64 -19 120 -19q63 0 90 24t27 62q0 20 -7 33t-23 24q-15 10 -39 18t-57 15q-85 21 -138 45q-51 24 -82 51q-29 26 -40 57q-10 29 -10 63q0 39 15 74t45 60q31 26 74 41t99 15q33 0 65 -4
q33 -4 74 -14q40 -10 75 -25q39 -17 69 -40l-49 -98q-27 18 -57 29q-35 13 -63 20q-32 7 -60 12q-32 5 -48 5q-47 0 -76 -21q-28 -21 -28 -55q0 -14 6 -27t23 -27q16 -13 43 -25q24 -10 68 -22q74 -21 123 -42t78 -45t41 -53t12 -65q0 -48 -18 -85t-51 -63t-78 -39
q-47 -14 -102 -14q-77 0 -156 24t-150 75z" />
    <glyph glyph-name="scaron" unicode="&#x161;" horiz-adv-x="516" 
d="M99 696h111l66 -99l66 99h113l-90 -144h-176zM64 150h-7q62 -32 121 -45q58 -13 97 -13q35 0 54 13t19 31q-2 22 -21 33t-60 18q-66 13 -112 32q-44 18 -68 39t-33 45t-9 48q-2 33 12 62q14 30 40 50q27 21 66 33t89 12q24 0 54 -3t60 -9q33 -7 57 -16q28 -11 47 -24
l-41 -91q-16 9 -38 15q-26 7 -44 11q-30 6 -45 8q-22 3 -42 3q-36 0 -63 -11q-25 -11 -24 -33q0 -18 17 -30q16 -12 62 -21q125 -27 176 -67q53 -41 53 -99q1 -33 -12 -61t-42 -49t-67 -33q-39 -12 -88 -12q-26 0 -63 5t-66 13q-35 9 -64 22q-30 13 -58 30z" />
    <glyph glyph-name="Tcedilla" unicode="&#x162;" horiz-adv-x="616" 
d="M371 563v-563h-123v563h-231v112h582v-112h-228zM264 -305l1 1q18 25 29 45q12 23 18 46q-30 1 -52 23q-21 21 -21 53t22 54t54 22q17 0 30 -7q14 -8 24 -19t16 -27q6 -15 6 -33q0 -47 -24 -93t-81 -90z" />
    <glyph glyph-name="tcedilla" unicode="&#x163;" horiz-adv-x="344" 
d="M321 -13l-1 -1q-118 0 -177 54t-59 142v211h-54v102h54v121l119 40v-161h108v-87l-12 -15h-96v-204q-2 -42 29 -68t89 -26v-108zM143 -306q18 25 29 45q12 23 18 46q-30 1 -52 23q-21 21 -21 53t22 54t55 22q32 0 53 -25q21 -26 21 -60q0 -46 -24 -93t-79 -90z" />
    <glyph glyph-name="Tcaron" unicode="&#x164;" horiz-adv-x="616" 
d="M135 870h112l66 -99l66 99h112l-90 -144h-176zM371 563v-563h-123v563h-231v112h582v-112h-228z" />
    <glyph glyph-name="tcaron" unicode="&#x165;" horiz-adv-x="498" 
d="M408 432l-1 -2q21 27 33 49q13 23 21 50q-34 2 -56 24q-23 23 -23 57q0 31 23 54t57 23t57 -26q22 -25 22 -63q0 -51 -25 -98q-26 -48 -84 -93zM320 -15l-1 -1q-119 0 -177 54q-59 54 -59 142v211h-54v102h54v121l119 40v-161h108v-87l-12 -15h-96v-204q-2 -42 29 -68
t89 -26v-108z" />
    <glyph glyph-name="Tbar" unicode="&#x166;" horiz-adv-x="628" 
d="M377 346v-346h-123v346h-155v76h155v141h-231v112h582v-112h-228v-141h166v-76h-166z" />
    <glyph glyph-name="tbar" unicode="&#x167;" horiz-adv-x="352" 
d="M327 -13l-1 -1q-118 0 -177 54t-59 142v53h-60v75h60v83h-54v102h54v121l119 40v-161h108v-87l-12 -15h-96v-83h103v-75h-103v-46q-2 -42 29 -68t89 -26v-108z" />
    <glyph glyph-name="Utilde" unicode="&#x168;" horiz-adv-x="737" 
d="M205 749l-1 -1q2 61 30 89q29 29 66 29q18 0 36 -6q24 -8 36 -13t38 -13q20 -6 39 -6q11 0 22 6q10 6 12 23h47q0 -59 -24 -90t-65 -33q-19 0 -38 6q-26 8 -39 13t-39 13q-19 6 -39 6q-12 0 -21 -6t-11 -17h-49zM194 674v-394q0 -46 15 -79q15 -34 39 -56t56 -33
q33 -11 68 -11q34 0 67 11q31 10 54 33q22 22 36 56q13 32 13 80v392h123v-401q0 -70 -21 -124t-60 -90t-93 -54t-118 -18q-65 0 -121 18t-96 54t-63 90q-22 53 -22 125v401h123z" />
    <glyph glyph-name="utilde" unicode="&#x169;" horiz-adv-x="607" 
d="M141 582h-1q2 61 30 89q29 29 66 29q17 0 35 -6q31 -11 38 -13q13 -5 39 -13q20 -6 39 -6q11 0 21 6t12 23h47q0 -60 -23 -92t-66 -32q-20 0 -39 6q-26 8 -39 13t-39 13q-19 6 -39 6q-27 0 -32 -23h-49zM439 79l-1 -3q-75 -92 -182 -92q-39 0 -74 13q-36 14 -64 40
q-28 27 -45 69q-17 43 -17 100v287h119v-270q0 -63 33 -93t83 -30q41 0 73 21t57 54v320h119v-495h-80z" />
    <glyph glyph-name="Umacron" unicode="&#x16a;" horiz-adv-x="737" 
d="M211 835h313v-90h-313v90zM195 675v-394q0 -46 15 -79q15 -34 39 -56t56 -33q33 -11 68 -11q34 0 67 11q32 11 54 33t36 56q13 32 13 80v392h123v-401q0 -70 -21 -124t-60 -90t-93 -54t-118 -18q-66 0 -121 18t-96 54t-63 90q-22 53 -22 125v401h123z" />
    <glyph glyph-name="umacron" unicode="&#x16b;" horiz-adv-x="607" 
d="M159 669h298v-90h-298v90zM440 79l-1 -3q-75 -92 -182 -92q-39 0 -74 13q-36 14 -64 40q-29 27 -45 69q-17 43 -17 100v287h119v-270q0 -63 33 -93t83 -30q42 0 73 21t57 54v320h119v-495h-80z" />
    <glyph glyph-name="Ubreve" unicode="&#x16c;" horiz-adv-x="737" 
d="M281 879q3 -26 27 -49q23 -22 59 -22q35 0 57 21t27 50h69q-8 -75 -46 -115q-39 -40 -108 -40t-108 40q-40 41 -44 115h67zM195 675v-394q0 -46 15 -79q15 -34 39 -56t56 -33q33 -11 68 -11q34 0 67 11q32 11 54 33t36 56q13 32 13 80v392h123v-401q0 -70 -21 -124
t-60 -90t-93 -54t-118 -18q-66 0 -121 18t-96 54t-63 90q-22 53 -22 125v401h123z" />
    <glyph glyph-name="ubreve" unicode="&#x16d;" horiz-adv-x="607" 
d="M219 703l-3 2q2 -13 9 -27q8 -14 19 -24t27 -16q15 -6 33 -6q36 0 59 21q22 21 27 50h68q-8 -74 -46 -114q-39 -40 -108 -40t-108 40q-40 41 -44 114h67zM437 81l-1 -3q-75 -92 -182 -92q-39 0 -74 13q-36 14 -64 40q-28 27 -45 69q-17 43 -17 100v287h119v-270
q0 -63 33 -93t83 -30q41 0 73 21t57 54v320h119v-495h-80z" />
    <glyph glyph-name="Uring" unicode="&#x16e;" horiz-adv-x="737" 
d="M244 847l-2 -3q0 50 34 83t90 33q28 0 50 -9t39 -24q17 -16 26 -36q9 -21 9 -46t-9 -46q-9 -22 -25 -36q-16 -15 -39 -24t-49 -9q-62 0 -93 33q-31 32 -31 84zM366 792v-2q19 0 35 14q15 14 15 36q0 26 -15 39q-14 13 -35 13q-20 0 -36 -14q-15 -14 -15 -36q0 -26 15 -38
t36 -12zM193 670v-394q0 -46 15 -79q15 -34 39 -56t56 -33q33 -11 68 -11q34 0 67 11q32 10 54 33q22 22 36 56q13 32 13 80v392h123v-401q0 -70 -21 -124t-60 -90t-93 -54t-118 -18q-66 0 -121 18t-96 54t-63 90q-22 53 -22 125v401h123z" />
    <glyph glyph-name="uring" unicode="&#x16f;" horiz-adv-x="607" 
d="M188 668l-2 -1q0 49 34 82t90 33q28 0 50 -9t39 -24q17 -16 26 -36q9 -21 9 -45q0 -51 -34 -84t-88 -33q-62 0 -93 33q-31 32 -31 84zM310 614v-2q19 0 35 14q15 14 15 38t-15 38q-16 14 -35 14q-20 0 -36 -14q-15 -14 -15 -36q0 -26 15 -39q14 -13 36 -13zM438 76l-1 -3
q-75 -92 -182 -92q-39 0 -74 13q-36 14 -64 40q-29 27 -45 69q-17 43 -17 100v287h119v-270q0 -63 33 -93t83 -30q42 0 73 21t57 54v320h119v-495h-80z" />
    <glyph glyph-name="Uhungarumlaut" unicode="&#x170;" horiz-adv-x="737" 
d="M567 875l-78 -144h-100l54 144h124zM402 875l-78 -144h-100l54 144h124zM195 675v-394q0 -46 15 -79q15 -34 39 -56t56 -33q33 -11 68 -11q34 0 67 11q32 11 54 33t36 56q13 32 13 80v392h123v-401q0 -70 -21 -124t-60 -90t-93 -54t-118 -18q-66 0 -121 18t-96 54t-63 90
q-22 53 -22 125v401h123z" />
    <glyph glyph-name="uhungarumlaut" unicode="&#x171;" horiz-adv-x="607" 
d="M509 695l-78 -144h-101l54 144h125zM343 695l-78 -144h-100l54 144h124zM440 79l-1 -3q-75 -92 -182 -92q-39 0 -74 13q-36 14 -64 40q-29 27 -45 69q-17 43 -17 100v287h119v-270q0 -63 33 -93t83 -30q42 0 73 21t57 54v320h119v-495h-80z" />
    <glyph glyph-name="Uogonek" unicode="&#x172;" horiz-adv-x="737" 
d="M405 -193l1 1q-59 0 -92 24t-33 71q0 25 11 49q10 22 30 39q-54 7 -102 29q-46 21 -79 57t-51 86t-18 113v401h123v-392q0 -46 15 -79q15 -34 39 -56t56 -33q33 -11 68 -11q34 0 67 11q32 11 54 33t36 56q13 32 13 80v392h123v-401q0 -61 -16 -108q-16 -48 -45 -84
q-28 -35 -69 -58q-39 -22 -90 -31q-44 -16 -61 -36q-16 -19 -16 -45q0 -16 13 -28q14 -12 33 -12q42 0 69 27l20 -62q-38 -33 -99 -33z" />
    <glyph glyph-name="uogonek" unicode="&#x173;" horiz-adv-x="613" 
d="M470 -197l-1 -5q-58 0 -91 24t-33 71t31 78q32 31 78 51l-14 53q-75 -92 -182 -92q-39 0 -74 13q-36 14 -64 40q-28 27 -45 69q-17 43 -17 100v287h119v-270q0 -63 33 -93t83 -30q41 0 73 21t57 54v320h119v-472l6 -23q-63 -16 -88 -38q-24 -21 -24 -50q0 -16 12 -28
t32 -12q42 0 69 27l20 -62q-36 -33 -99 -33z" />
    <glyph glyph-name="Wcircumflex" unicode="&#x174;" horiz-adv-x="1013" 
d="M510 826l-66 -99h-111l96 144h164l96 -144h-113zM12 675h133l156 -517l145 517h121l148 -520l154 520h131l-217 -675h-129l-147 521l-146 -521h-131z" />
    <glyph glyph-name="wcircumflex" unicode="&#x175;" horiz-adv-x="826" 
d="M411 650l-66 -99h-112l90 144h176l90 -144h-112zM8 495h130l113 -330l113 330h99l113 -330l113 330h130l-197 -495h-93l-116 355l-116 -355h-93z" />
    <glyph glyph-name="Ycircumflex" unicode="&#x176;" horiz-adv-x="695" 
d="M364 826l-66 -99h-111l96 144h164l96 -144h-113zM409 0h-123v230l-288 445h141l210 -344l210 344h138l-288 -445v-230z" />
    <glyph glyph-name="ycircumflex" unicode="&#x177;" horiz-adv-x="515" 
d="M254 650l-66 -99h-112l90 144h177l90 -144h-113zM29 -126h1q28 0 56 14t50 36t39 51t27 57l-192 463h130l120 -320l123 320h130l-217 -508q-94 -223 -267 -223v110z" />
    <glyph glyph-name="Ydieresis" unicode="&#x178;" horiz-adv-x="695" 
d="M253 737h-1q-32 0 -54 21t-22 54q0 32 23 53t54 21q29 0 51 -21q23 -21 23 -53q0 -33 -23 -54q-22 -21 -51 -21zM476 737q-32 0 -54 21q-23 21 -23 54q0 32 23 53q22 21 54 21q28 0 51 -21t23 -53q0 -33 -23 -54t-51 -21zM408 0h-123v230l-288 445h141l210 -344l210 344
h138l-288 -445v-230z" />
    <glyph glyph-name="Zacute" unicode="&#x179;" horiz-adv-x="612" 
d="M257 727l72 144h137l-96 -144h-113zM30 0v83l371 480h-357v112h524v-81l-376 -482h390v-112h-552z" />
    <glyph glyph-name="zacute" unicode="&#x17a;" horiz-adv-x="504" 
d="M197 551l72 144h136l-96 -144h-112zM32 0v102l274 291h-257v102h411v-102l-273 -291h282v-102h-437z" />
    <glyph glyph-name="Zdotaccent" unicode="&#x17b;" horiz-adv-x="612" 
d="M328 741h-1q-32 0 -54 22q-23 23 -23 55q0 31 23 54q22 22 54 22q29 0 51 -22q23 -23 23 -54q0 -33 -22 -55t-51 -22zM29 0v83l371 480h-357v112h524v-81l-376 -482h390v-112h-552z" />
    <glyph glyph-name="zdotaccent" unicode="&#x17c;" horiz-adv-x="504" 
d="M271 571l-1 -1q-32 0 -54 21t-22 56q0 32 23 53t54 21q29 0 51 -21q23 -21 23 -53q0 -34 -23 -55q-22 -21 -51 -21zM31 -1v102l274 291h-257v102h411v-102l-273 -291h282v-102h-437z" />
    <glyph glyph-name="Zcaron" unicode="&#x17d;" horiz-adv-x="612" 
d="M148 870h111l66 -99l66 99h113l-90 -144h-176zM30 0v83l371 480h-357v112h524v-81l-376 -482h390v-112h-552z" />
    <glyph glyph-name="zcaron" unicode="&#x17e;" horiz-adv-x="504" 
d="M89 696h112l66 -99l66 99h112l-90 -144h-176zM32 0v102l274 291h-257v102h411v-102l-273 -291h282v-102h-437z" />
    <glyph glyph-name="longs" unicode="&#x17f;" horiz-adv-x="282" 
d="M78 0v393h-39v102h39v41q0 94 58 136t159 42l-10 -102q-45 0 -67 -22t-21 -54v-536h-119z" />
    <glyph glyph-name="Schwa" unicode="&#x18f;" horiz-adv-x="778" 
d="M385 -13l-4 -3q-75 0 -141 28q-67 29 -118 79q-50 51 -79 121t-24 156h589q-6 41 -27 79q-20 36 -51 64q-30 27 -69 42t-83 15q-39 0 -79 -14q-39 -14 -69 -39l-85 85q46 40 107 63t127 23q75 0 141 -27t114 -75q49 -49 77 -112q29 -66 29 -136q0 -74 -28 -136
q-29 -64 -76 -111q-48 -48 -113 -75t-138 -27zM381 100l-3 -2q38 0 72 12t63 33t50 50t33 63h-439q14 -39 37 -66t54 -49q29 -20 64 -31q33 -10 69 -10z" />
    <glyph glyph-name="florin" unicode="&#x192;" horiz-adv-x="342" 
d="M10 -140q47 0 68 23t21 54v456h-55v102h55v41q0 94 57 136t159 42l-9 -102q-47 0 -68 -21t-21 -55v-41h89v-30l-8 -72h-81v-456q0 -94 -57 -136t-160 -42z" />
    <glyph glyph-name="DZcaron" unicode="&#x1c4;" horiz-adv-x="1365" 
d="M205 563l-1 -450h180q44 0 81 18q38 18 65 48t42 71q15 40 15 87t-15 87t-42 72q-27 31 -64 49q-38 18 -81 18h-180zM81 676l300 3q69 0 129 -27t105 -72q45 -46 71 -107q26 -63 26 -132q0 -72 -25 -132q-25 -61 -69 -108q-42 -45 -104 -73q-60 -27 -130 -27h-303v675z
M888 874h111l66 -99l66 99h113l-90 -144h-176zM779 4v83l371 480h-357v112h524v-81l-376 -482h390v-112h-552z" />
    <glyph glyph-name="Dzcaron" unicode="&#x1c5;" horiz-adv-x="1259" 
d="M205 563l-1 -450h180q44 0 81 18q38 18 65 48t42 71q15 40 15 87t-15 87t-42 72q-27 31 -64 49q-38 18 -81 18h-180zM834 692h111l66 -99l66 99h113l-90 -144h-176zM785 1v102l273 291h-256v102h411v-102l-274 -291h283v-102h-437zM81 676l300 3q69 0 129 -27t105 -72
q45 -46 71 -107q26 -63 26 -132q0 -72 -25 -132q-25 -61 -69 -108q-42 -45 -104 -73q-60 -27 -130 -27h-303v675z" />
    <glyph glyph-name="dzcaron" unicode="&#x1c6;" horiz-adv-x="1126" 
d="M711 696h112l66 -99l66 99h112l-90 -144h-176zM300 95l-1 -4q31 0 58 12q28 12 47 33q21 22 32 49q12 29 12 61t-12 60q-12 29 -31 49q-20 21 -46 33q-27 12 -58 12q-30 0 -57 -12q-26 -12 -46 -33t-30 -48q-11 -28 -11 -58t11 -60q10 -28 30 -49t45 -33t57 -12zM654 -4
v102l273 291h-256v102h411v-102l-273 -291h282v-102h-437zM466 58l-3 -3q-38 -35 -82 -54q-46 -20 -95 -20q-51 0 -99 20q-47 19 -81 54q-33 33 -55 83q-21 48 -21 105q0 58 21 106t55 82q34 35 81 54q45 19 97 19q44 0 85 -18q39 -17 75 -47l-7 69v202h119v-714h-70z" />
    <glyph glyph-name="LJ" unicode="&#x1c7;" horiz-adv-x="1134" 
d="M842 -13l3 -1q-35 0 -75 8q-35 7 -72 23q-32 14 -64 38t-53 49l72 77q34 -36 80 -57q45 -21 86 -21q23 0 45 8q21 7 38 23t26 39q9 24 9 57v444h123v-451q0 -63 -18 -108q-18 -44 -48 -73q-30 -28 -69 -42q-38 -13 -83 -13zM85 674h123v-563h347v-112h-470v675z" />
    <glyph glyph-name="Lj" unicode="&#x1c8;" horiz-adv-x="820" 
d="M82 675h123v-563h347v-112h-470v675zM697 578h-2q-32 0 -54 22q-23 23 -23 54q0 32 23 53t54 21t53 -21q23 -21 23 -53t-22 -54t-52 -22zM753 -36l1 -2q0 -45 -15 -81q-15 -35 -44 -63q-28 -26 -69 -40q-42 -14 -90 -14v108q42 0 70 27t28 65v531h119v-531z" />
    <glyph glyph-name="lj" unicode="&#x1c9;" horiz-adv-x="501" 
d="M378 578h-2q-32 0 -54 22q-23 23 -23 54q0 32 23 53q22 21 54 21q31 0 53 -21q23 -21 23 -53t-22 -54t-52 -22zM65 714h118v-714h-118v714zM434 -36l1 -2q0 -45 -15 -81q-15 -35 -44 -63q-28 -26 -69 -40q-42 -14 -90 -14v108q41 0 70 27q28 27 28 65v531h119v-531z" />
    <glyph glyph-name="NJ" unicode="&#x1ca;" horiz-adv-x="1336" 
d="M205 495v-495h-123v675h123l364 -496v496h123v-675h-123zM1043 -13l2 -1q-33 0 -73 8q-35 7 -72 23q-32 14 -64 38t-53 49l72 77q34 -36 80 -57q45 -21 86 -21q23 0 45 8q21 7 38 23t26 39q9 24 9 57v444h123v-451q0 -63 -18 -108q-18 -44 -48 -73q-30 -28 -69 -42
q-38 -13 -84 -13z" />
    <glyph glyph-name="Nj" unicode="&#x1cb;" horiz-adv-x="1024" 
d="M205 495v-495h-123v675h123l364 -496v496h123v-675h-123zM901 578h-2q-32 0 -54 22q-23 23 -23 54q0 32 23 53t54 21t53 -21q23 -21 23 -53t-22 -54t-52 -22zM957 -36l1 -2q0 -45 -15 -81q-15 -35 -44 -63q-28 -26 -69 -40q-42 -14 -90 -14v108q42 0 70 27t28 65v531h119
v-531z" />
    <glyph glyph-name="nj" unicode="&#x1cc;" horiz-adv-x="864" 
d="M741 578h-3q-32 0 -54 22t-22 54t23 53t54 21t53 -21q23 -21 23 -53t-22 -54t-52 -22zM796 -36v-2q0 -45 -15 -81q-15 -37 -43 -63t-69 -40q-42 -14 -90 -14v108q22 0 39 7q16 7 31 20q13 12 21 29q7 15 7 36v531h119v-531zM319 392v-1q-41 0 -76 -21t-63 -54v-320h-119
v495h80l21 -80q74 93 186 93q41 0 77 -12q38 -13 65 -37q29 -26 45 -64q17 -40 17 -93v-301h-119v277q0 30 -9 52t-25 37q-16 14 -37 22q-20 7 -43 7z" />
    <glyph glyph-name="Acaron" unicode="&#x1cd;" horiz-adv-x="699" 
d="M182 870h112l66 -99l66 99h112l-90 -144h-176zM350 552l-115 -290h230zM509 150h-319l-59 -150h-130l283 675h131l283 -675h-129z" />
    <glyph glyph-name="acaron" unicode="&#x1ce;" horiz-adv-x="552" 
d="M106 696h112l66 -99l66 99h112l-90 -144h-176zM230 85l1 -3q37 0 72 15q34 15 71 41v90l-123 -15q-21 -1 -39 -6q-17 -4 -31 -12q-13 -7 -21 -20q-7 -11 -7 -31q0 -29 18 -44t59 -15zM394 58h-2q-51 -39 -93 -56q-43 -18 -99 -18q-86 0 -130 42q-43 42 -43 109
q0 77 51 117t135 48l159 12v11q0 41 -34 60q-35 20 -94 20q-34 0 -78 -6q-42 -6 -86 -20l-24 93q51 18 99 26q51 9 103 9q116 0 175 -46q60 -47 60 -127v-335h-73z" />
    <glyph glyph-name="Icaron" unicode="&#x1cf;" horiz-adv-x="286" 
d="M-34 870h111l66 -99l66 99h113l-90 -144h-176zM92 675h123v-675h-123v675z" />
    <glyph glyph-name="icaron" unicode="&#x1d0;" horiz-adv-x="249" 
d="M-52 696h112l66 -99l66 99h112l-90 -144h-176zM64 495h118v-495h-118v495z" />
    <glyph glyph-name="Ocaron" unicode="&#x1d1;" horiz-adv-x="796" 
d="M224 870h112l66 -99l66 99h113l-90 -144h-177zM397 -13l-2 -1q-75 0 -141 27t-114 75q-49 49 -77 111t-28 137q0 70 29 136q28 63 77 112q48 48 114 75t141 27t141 -27t114 -75q49 -49 77 -112q29 -66 29 -136q0 -74 -28 -136t-77 -111q-48 -48 -114 -75t-141 -27z
M395 102q47 0 91 18q43 18 75 50t50 75t18 91t-18 91t-50 75t-75 50t-91 18t-90 -18t-74 -50t-50 -75t-18 -91t18 -91t50 -75t74 -50t90 -18z" />
    <glyph glyph-name="ocaron" unicode="&#x1d2;" horiz-adv-x="601" 
d="M125 696h112l66 -99l66 99h112l-90 -144h-176zM300 -13l1 -1q-52 0 -100 18q-47 18 -85 51t-60 81q-22 47 -22 107t22 107q23 49 60 83q38 35 85 54t100 19q55 0 102 -19q48 -19 84 -54t59 -83q22 -47 22 -107q0 -59 -22 -106q-22 -48 -60 -81t-85 -51q-48 -18 -101 -18z
M301 94v1q29 0 57 11q26 10 46 30q18 18 31 47q12 27 12 60t-12 61q-12 29 -31 49q-20 21 -46 33q-27 12 -57 12q-31 0 -56 -12t-45 -33t-30 -49q-11 -30 -11 -61t11 -59t30 -47t45 -31t56 -12z" />
    <glyph glyph-name="Ucaron" unicode="&#x1d3;" horiz-adv-x="737" 
d="M189 870h112l66 -99l66 99h112l-90 -144h-176zM195 675v-394q0 -46 15 -79q15 -34 39 -56t56 -33q33 -11 68 -11q34 0 67 11q32 11 54 33t36 56q13 32 13 80v392h123v-401q0 -70 -21 -124t-60 -90t-93 -54t-118 -18q-66 0 -121 18t-96 54t-63 90q-22 53 -22 125v401h123z
" />
    <glyph glyph-name="ucaron" unicode="&#x1d4;" horiz-adv-x="607" 
d="M126 696h111l66 -99l66 99h113l-90 -144h-176zM440 79l-1 -3q-75 -92 -182 -92q-39 0 -74 13q-36 14 -64 40q-29 27 -45 69q-17 43 -17 100v287h119v-270q0 -63 33 -93t83 -30q42 0 73 21t57 54v320h119v-495h-80z" />
    <glyph glyph-name="Udieresismacron" unicode="&#x1d5;" horiz-adv-x="737" 
d="M211 1028h313v-90h-313v90zM256 737q-30 0 -53 21t-23 54q0 32 23 53t53 21q28 0 51 -21t23 -53q0 -33 -23 -54t-51 -21zM481 737h-1q-32 0 -54 21q-23 21 -23 54q0 32 23 53q22 21 54 21q28 0 51 -21t23 -53q0 -33 -22 -54t-51 -21zM194 675v-394q0 -46 15 -79
q15 -34 39 -56t56 -33q33 -11 68 -11q34 0 67 11q31 11 54 33q22 22 36 56q13 32 13 80v392h123v-401q0 -70 -21 -124t-60 -90t-93 -54t-118 -18q-65 0 -121 18t-96 54t-63 90q-22 53 -22 125v401h123z" />
    <glyph glyph-name="udieresismacron" unicode="&#x1d6;" horiz-adv-x="607" 
d="M156 840h297v-90h-297v90zM197 554q-32 0 -54 22q-23 23 -23 57q0 29 23 52q22 22 54 22q13 0 27 -6t24 -16q11 -11 17 -24t6 -28q0 -34 -23 -57q-22 -22 -51 -22zM413 554h-1q-32 0 -54 22t-22 57q0 29 23 52q22 22 54 22q13 0 27 -6t24 -16q11 -11 17 -24t6 -28
q0 -34 -23 -57q-22 -22 -51 -22zM439 79l-1 -3q-75 -92 -182 -92q-39 0 -74 13q-36 14 -64 40q-28 27 -45 69q-17 43 -17 100v287h119v-270q0 -63 33 -93t83 -30q41 0 73 21t57 54v320h119v-495h-80z" />
    <glyph glyph-name="Udieresisacute" unicode="&#x1d7;" horiz-adv-x="737" 
d="M307 932l72 144h136l-96 -144h-112zM256 737q-30 0 -53 21t-23 54q0 32 23 53t53 21q28 0 51 -21t23 -53q0 -33 -23 -54t-51 -21zM481 737h-1q-32 0 -54 21q-23 21 -23 54q0 32 23 53q22 21 54 21q28 0 51 -21t23 -53q0 -33 -22 -54t-51 -21zM194 675v-394q0 -46 15 -79
q15 -34 39 -56t56 -33q33 -11 68 -11q34 0 67 11q31 11 54 33q22 22 36 56q13 32 13 80v392h123v-401q0 -70 -21 -124t-60 -90t-93 -54t-118 -18q-65 0 -121 18t-96 54t-63 90q-22 53 -22 125v401h123z" />
    <glyph glyph-name="udieresisacute" unicode="&#x1d8;" horiz-adv-x="607" 
d="M242 748l72 144h137l-96 -144h-113zM197 554q-32 0 -54 22q-23 23 -23 57q0 29 23 52q22 22 54 22q13 0 27 -6t24 -16q11 -11 17 -24t6 -28q0 -34 -23 -57q-22 -22 -51 -22zM413 554h-1q-32 0 -54 22t-22 57q0 29 23 52q22 22 54 22q13 0 27 -6t24 -16q11 -11 17 -24
t6 -28q0 -34 -23 -57q-22 -22 -51 -22zM439 79l-1 -3q-75 -92 -182 -92q-39 0 -74 13q-36 14 -64 40q-28 27 -45 69q-17 43 -17 100v287h119v-270q0 -63 33 -93t83 -30q41 0 73 21t57 54v320h119v-495h-80z" />
    <glyph glyph-name="Udieresiscaron" unicode="&#x1d9;" horiz-adv-x="737" 
d="M189 1080h112l66 -99l66 99h112l-90 -144h-176zM256 737q-30 0 -53 21t-23 54q0 32 23 53t53 21q28 0 51 -21t23 -53q0 -33 -23 -54t-51 -21zM481 737h-1q-32 0 -54 21q-23 21 -23 54q0 32 23 53q22 21 54 21q28 0 51 -21t23 -53q0 -33 -22 -54t-51 -21zM194 675v-394
q0 -46 15 -79q15 -34 39 -56t56 -33q33 -11 68 -11q34 0 67 11q31 11 54 33q22 22 36 56q13 32 13 80v392h123v-401q0 -70 -21 -124t-60 -90t-93 -54t-118 -18q-65 0 -121 18t-96 54t-63 90q-22 53 -22 125v401h123z" />
    <glyph glyph-name="udieresiscaron" unicode="&#x1da;" horiz-adv-x="607" 
d="M123 893h112l66 -99l66 99h112l-90 -144h-176zM197 554q-32 0 -54 22q-23 23 -23 57q0 29 23 52q22 22 54 22q13 0 27 -6t24 -16q11 -11 17 -24t6 -28q0 -34 -23 -57q-22 -22 -51 -22zM413 554h-1q-32 0 -54 22t-22 57q0 29 23 52q22 22 54 22q13 0 27 -6t24 -16
q11 -11 17 -24t6 -28q0 -34 -23 -57q-22 -22 -51 -22zM439 79l-1 -3q-75 -92 -182 -92q-39 0 -74 13q-36 14 -64 40q-28 27 -45 69q-17 43 -17 100v287h119v-270q0 -63 33 -93t83 -30q41 0 73 21t57 54v320h119v-495h-80z" />
    <glyph glyph-name="Udieresisgrave" unicode="&#x1db;" horiz-adv-x="737" 
d="M224 1080h136l72 -144h-112zM256 737q-30 0 -53 21t-23 54q0 32 23 53t53 21q28 0 51 -21t23 -53q0 -33 -23 -54t-51 -21zM481 737h-1q-32 0 -54 21q-23 21 -23 54q0 32 23 53q22 21 54 21q28 0 51 -21t23 -53q0 -33 -22 -54t-51 -21zM194 675v-394q0 -46 15 -79
q15 -34 39 -56t56 -33q33 -11 68 -11q34 0 67 11q31 11 54 33q22 22 36 56q13 32 13 80v392h123v-401q0 -70 -21 -124t-60 -90t-93 -54t-118 -18q-65 0 -121 18t-96 54t-63 90q-22 53 -22 125v401h123z" />
    <glyph glyph-name="udieresisgrave" unicode="&#x1dc;" horiz-adv-x="607" 
d="M159 890h137l72 -144h-113zM198 554q-32 0 -54 22q-23 23 -23 57q0 29 23 52q22 22 54 22q14 0 27 -6q14 -6 24 -16q11 -11 17 -24t6 -28q0 -34 -23 -57q-22 -22 -51 -22zM414 554q-32 0 -54 22q-23 23 -23 57q0 29 23 52q22 22 54 22q14 0 27 -6q14 -6 24 -16
q11 -11 17 -24t6 -28q0 -34 -23 -57q-22 -22 -51 -22zM440 79l-1 -3q-75 -92 -182 -92q-39 0 -74 13q-36 14 -64 40q-29 27 -45 69q-17 43 -17 100v287h119v-270q0 -63 33 -93t83 -30q42 0 73 21t57 54v320h119v-495h-80z" />
    <glyph glyph-name="Oogonek" unicode="&#x1ea;" horiz-adv-x="796" 
d="M406 -201l-4 -5q-59 0 -92 24t-33 71q0 32 15 56q15 25 40 42q-63 11 -117 42q-52 30 -94 77q-40 45 -63 104q-23 60 -23 123q0 70 29 136q28 63 77 112q48 48 114 75t141 27t141 -27t114 -75q49 -49 77 -112q29 -66 29 -136q0 -61 -21 -117q-21 -55 -57 -100
q-35 -44 -87 -76q-51 -32 -109 -45q-64 -16 -89 -38q-24 -21 -24 -50q0 -16 13 -28t33 -12q42 0 69 27l20 -62q-37 -33 -99 -33zM393 98q47 0 91 18q43 18 75 50t50 75t18 91t-18 91t-50 75t-75 50t-91 18t-90 -18t-74 -50t-50 -75t-18 -91t18 -91t50 -75t74 -50t90 -18z
" />
    <glyph glyph-name="oogonek" unicode="&#x1eb;" horiz-adv-x="601" 
d="M297 -201v-1q-58 0 -91 24t-33 71q0 33 16 58t42 43q-41 11 -77 33q-36 23 -63 54t-42 72t-15 90q0 60 22 107q23 49 60 83q38 35 85 54t100 19q55 0 102 -19q48 -19 84 -54t59 -83q22 -47 22 -107q0 -49 -15 -89q-15 -39 -41 -72q-26 -32 -61 -54q-36 -23 -76 -33
q-30 -7 -53 -17q-20 -9 -34 -21q-13 -11 -19 -24q-6 -12 -6 -26q0 -16 12 -28t32 -12q42 0 69 27l20 -62q-36 -33 -99 -33zM300 94v1q29 0 57 11q26 10 46 30q18 18 31 47q12 27 12 60t-12 61q-12 29 -31 49q-20 21 -46 33q-27 12 -57 12t-56 -12t-45 -33q-20 -21 -30 -49
q-11 -30 -11 -61t11 -59t30 -47t45 -31t56 -12z" />
    <glyph glyph-name="DZ" unicode="&#x1f1;" horiz-adv-x="1362" 
d="M205 563l-1 -450h180q44 0 81 18q38 18 65 48t42 71q15 40 15 87t-15 87t-42 72q-27 31 -64 49q-38 18 -81 18h-180zM81 676l300 3q69 0 129 -27t105 -72q45 -46 71 -107q26 -63 26 -132q0 -72 -25 -132q-25 -61 -69 -108q-42 -45 -104 -73q-60 -27 -130 -27h-303v675z
M776 4v83l371 480h-357v112h524v-81l-376 -482h390v-112h-552z" />
    <glyph glyph-name="Dz" unicode="&#x1f2;" horiz-adv-x="1256" 
d="M205 563l-1 -450h180q44 0 81 18q38 18 65 48t42 71q15 40 15 87t-15 87t-42 72q-27 31 -64 49q-38 18 -81 18h-180zM784 1v102l273 291h-256v102h411v-102l-274 -291h283v-102h-437zM81 676l300 3q69 0 129 -27t105 -72q45 -46 71 -107q26 -63 26 -132q0 -72 -25 -132
q-25 -61 -69 -108q-42 -45 -104 -73q-60 -27 -130 -27h-303v675z" />
    <glyph glyph-name="dz" unicode="&#x1f3;" horiz-adv-x="1126" 
d="M300 95l-1 -4q31 0 58 12q28 12 47 33q21 22 32 49q12 29 12 61t-12 60q-12 29 -31 49q-20 21 -46 33q-27 12 -58 12q-30 0 -57 -12q-26 -12 -46 -33t-30 -48q-11 -28 -11 -58t11 -60q10 -28 30 -49t45 -33t57 -12zM653 -4v102l273 291h-256v102h411v-102l-273 -291h282
v-102h-437zM466 58l-3 -3q-38 -35 -82 -54q-46 -20 -95 -20q-51 0 -99 20q-47 19 -81 54q-33 33 -55 83q-21 48 -21 105q0 58 21 106t55 82q34 35 81 54q45 19 97 19q44 0 85 -18q39 -17 75 -47l-7 69v202h119v-714h-70z" />
    <glyph glyph-name="Gacute" unicode="&#x1f4;" horiz-adv-x="745" 
d="M341 727l72 144h136l-96 -144h-112zM691 85l-2 -4q-24 -24 -55 -41t-70 -31q-35 -13 -78 -19q-40 -6 -80 -6q-80 0 -147 27t-117 75t-78 112q-28 63 -28 141q0 76 28 139q28 64 77 111q48 47 114 72q67 26 143 26q93 0 168 -28q76 -28 127 -82l-83 -77q-15 16 -39 30
q-27 15 -52 23q-32 10 -58 14q-33 5 -57 5q-52 0 -96 -18q-43 -18 -75 -50q-31 -31 -49 -73t-18 -90q0 -49 18 -93q17 -42 50 -76q31 -33 77 -51q45 -18 99 -18q41 0 82 10q43 10 76 30v110h-141v112h264v-280z" />
    <glyph glyph-name="gacute" unicode="&#x1f5;" 
d="M242 551l72 144h136l-96 -144h-112zM304 400l-1 -4q-32 0 -59 -12q-26 -12 -46 -33q-19 -20 -31 -49q-12 -28 -12 -60q0 -31 12 -58q12 -28 31 -48q19 -21 47 -33q27 -12 59 -12q30 0 56 12t45 33q20 21 30 49q11 30 11 60q0 31 -11 61q-10 28 -30 49q-19 21 -45 33
t-56 12zM301 -229l-2 -4q-57 0 -118 12q-59 11 -120 35l33 93q48 -17 99 -27q49 -10 90 -10q77 0 114 39q38 40 38 98v27q-31 -24 -69 -39t-83 -15q-52 0 -97 19q-46 19 -81 54q-33 33 -55 83q-21 48 -21 105t21 105q21 49 57 83t83 54q48 20 96 20q51 0 96 -19
q46 -20 84 -54l20 60h70v-481q0 -56 -16 -98q-16 -43 -48 -75q-31 -31 -80 -48t-111 -17z" />
    <glyph glyph-name="Aringacute" unicode="&#x1fa;" horiz-adv-x="699" 
d="M303 882l72 144h137l-96 -144h-113zM363 689l-1 -1q19 0 35 14q15 14 15 36q0 26 -15 38t-34 12q-23 0 -37 -13q-15 -13 -15 -36q0 -26 15 -38t37 -12zM349 551l-115 -290h230zM508 149l-319 -1l-59 -150h-130l275 654q-38 33 -38 87q0 50 34 83t91 33q54 0 88 -33
t34 -82q0 -31 -15 -58t-41 -42l269 -641h-129z" />
    <glyph glyph-name="aringacute" unicode="&#x1fb;" horiz-adv-x="552" 
d="M238 818l72 144h136l-96 -144h-112zM178 668l-2 -1q0 49 34 82t90 33q28 0 50 -9t39 -24q17 -16 26 -36q9 -21 9 -45q0 -51 -34 -84t-88 -33q-62 0 -93 33q-31 32 -31 84zM300 614v-2q19 0 35 14q15 14 15 38t-15 38q-16 14 -35 14q-20 0 -36 -14q-15 -14 -15 -36
q0 -26 15 -39q14 -13 36 -13zM228 82l1 -3q37 0 72 15q34 15 71 41v90l-123 -15q-21 -2 -39 -6q-17 -4 -31 -12q-13 -7 -21 -20q-7 -11 -7 -31q0 -29 18 -44t59 -15zM392 55h-2q-51 -39 -93 -56q-43 -18 -99 -18q-86 0 -130 42q-43 42 -43 109q0 76 51 117t135 48l159 12v11
q0 41 -34 60q-35 20 -94 20q-34 0 -78 -6q-42 -6 -86 -20l-24 93q51 18 99 26q51 9 103 9q116 0 175 -46q60 -46 60 -127v-335h-73z" />
    <glyph glyph-name="AEacute" unicode="&#x1fc;" horiz-adv-x="995" 
d="M539 727l72 144h137l-96 -144h-113zM465 563h-69l-141 -289h210v289zM465 162h-265l-79 -162h-127l333 675h615v-112h-354v-165h334v-112h-334v-174h357v-112h-480v162z" />
    <glyph glyph-name="aeacute" unicode="&#x1fd;" horiz-adv-x="911" 
d="M362 551l72 144h137l-96 -144h-113zM631 412v-1q-54 0 -87 -33q-32 -33 -43 -85l250 9q-13 53 -44 82q-29 28 -76 28zM230 84h1q43 0 81 18q37 18 80 50q-14 38 -17 77l-124 -15q-21 -2 -39 -6q-17 -4 -31 -12q-13 -7 -21 -20q-7 -11 -7 -31q0 -25 18 -43t59 -18zM859 75
l-2 -1q-37 -43 -92 -66t-117 -23t-117 24q-54 23 -94 68q-29 -23 -54 -39q-29 -19 -52 -29q-27 -12 -55 -18t-63 -6q-91 0 -138 41q-46 40 -46 110q0 75 51 117q50 41 135 49l159 12v11q0 41 -34 60q-35 20 -94 20q-34 0 -78 -6q-42 -6 -86 -20l-24 93q51 17 98 26
q50 9 102 9q70 0 120 -18t78 -51q36 33 82 51t97 18q52 0 97 -19q46 -20 81 -57t54 -93q20 -56 18 -128h-383q13 -54 56 -85q42 -30 101 -30q75 0 122 51z" />
    <glyph glyph-name="Oslashacute" unicode="&#x1fe;" horiz-adv-x="796" 
d="M338 727l72 144h136l-96 -144h-112zM164 337l-1 -3q0 -52 21 -97q21 -46 57 -77l274 377q-24 15 -56 25q-30 9 -63 9q-48 0 -90 -18t-74 -50t-50 -75q-18 -44 -18 -91zM396 100l1 1q47 0 91 18q43 18 75 50t50 75q18 44 18 91q0 48 -18 90t-50 74l-273 -373
q50 -26 106 -26zM397 -15l-3 -1q-48 0 -93 12q-47 12 -84 34l-82 -112h-73l105 144q-60 47 -97 119q-36 71 -36 153q0 70 29 136q28 63 77 112q48 48 114 75t141 27q55 0 101 -13q48 -13 90 -39l89 122h73l-114 -156q57 -50 90 -117t33 -147q0 -74 -28 -136t-77 -111
q-48 -48 -114 -75t-141 -27z" />
    <glyph glyph-name="oslashacute" unicode="&#x1ff;" horiz-adv-x="603" 
d="M238 551l72 144h137l-96 -144h-113zM157 245l-2 -1q0 -67 44 -108l184 235q-18 13 -39 21q-22 8 -45 8q-31 0 -56 -12t-45 -33t-30 -49q-11 -30 -11 -61zM298 94l-1 2q29 0 57 11q26 10 46 30q18 18 31 47q12 27 12 60t-10 59q-11 29 -28 47l-182 -234q34 -22 75 -22z
M297 -12l-1 -4q-39 0 -78 11q-38 11 -69 30l-85 -108h-37l98 125q-44 35 -69 85q-26 52 -26 116q0 60 22 107q23 49 60 83q38 35 85 54t100 19q44 0 83 -12q38 -12 72 -35l91 116h37l-105 -134q42 -35 66 -84t24 -113q0 -59 -22 -106q-23 -48 -60 -81q-38 -33 -85 -51
q-48 -18 -101 -18z" />
    <glyph glyph-name="Adblgrave" unicode="&#x200;" horiz-adv-x="699" 
d="M149 871h124l54 -144h-100zM314 871h124l54 -144h-100zM350 552l-115 -290h230zM509 150h-319l-59 -150h-130l283 675h131l283 -675h-129z" />
    <glyph glyph-name="adblgrave" unicode="&#x201;" horiz-adv-x="552" 
d="M91 695h123l54 -144h-99zM256 695h124l54 -144h-100zM230 85l1 -3q37 0 72 15q34 15 71 41v90l-123 -15q-21 -1 -39 -6q-17 -4 -31 -12q-13 -7 -21 -20q-7 -11 -7 -31q0 -29 18 -44t59 -15zM394 58h-2q-51 -39 -93 -56q-43 -18 -99 -18q-86 0 -130 42q-43 42 -43 109
q0 77 51 117t135 48l159 12v11q0 41 -34 60q-35 20 -94 20q-34 0 -78 -6q-42 -6 -86 -20l-24 93q51 18 99 26q51 9 103 9q116 0 175 -46q60 -47 60 -127v-335h-73z" />
    <glyph glyph-name="Ainvertedbreve" unicode="&#x202;" horiz-adv-x="699" 
d="M204 724l-4 -1q4 73 44 114q39 41 110 41q69 0 108 -40q40 -41 47 -114h-69q-5 29 -27 50q-23 21 -57 21q-35 0 -58 -22q-24 -23 -27 -49h-67zM346 551l-115 -290h230zM505 149h-319l-59 -150h-130l283 675h131l283 -675h-129z" />
    <glyph glyph-name="ainvertedbreve" unicode="&#x203;" horiz-adv-x="552" 
d="M135 549l-1 -2q4 73 44 114q39 40 108 40t108 -40q40 -41 47 -114h-69q-4 29 -27 51q-22 22 -58 22q-35 0 -58 -22q-24 -23 -27 -49h-67zM229 83l1 -3q38 0 72 15t71 41v90l-123 -15q-21 -1 -39 -6q-17 -4 -31 -12q-13 -7 -21 -20q-7 -11 -7 -31q0 -29 18 -44t59 -15z
M393 56h-2q-51 -39 -93 -56q-44 -18 -99 -18q-87 0 -130 42t-43 109q0 77 51 117t135 48l159 12v11q0 41 -34 60q-35 20 -94 20q-35 0 -78 -6q-42 -6 -86 -20l-24 93q51 18 99 26q51 9 103 9q116 0 175 -46q60 -47 60 -127v-335h-73z" />
    <glyph glyph-name="Edblgrave" unicode="&#x204;" horiz-adv-x="612" 
d="M126 871h124l54 -144h-100zM291 871h124l54 -144h-100zM82 675h478v-112h-355v-164h335v-113h-335v-174h358v-112h-481v675z" />
    <glyph glyph-name="edblgrave" unicode="&#x205;" horiz-adv-x="571" 
d="M90 695h124l54 -144h-100zM255 695h124l54 -144h-100zM291 412h-1q-53 0 -86 -35q-34 -35 -44 -84l250 9q-13 53 -44 82q-29 28 -75 28zM517 76h-2q-37 -44 -93 -66q-57 -23 -118 -23q-52 0 -102 18t-87 51t-60 81q-23 49 -23 107q0 62 21 111q21 50 57 83t83 51
q46 18 98 18q53 0 98 -19q47 -20 81 -57t54 -93t18 -128h-384q13 -55 57 -85q43 -30 102 -30q74 0 122 51z" />
    <glyph glyph-name="Einvertedbreve" unicode="&#x206;" horiz-adv-x="612" 
d="M163 724l-4 -1q4 73 44 114q39 41 110 41q69 0 108 -40q40 -41 47 -114h-69q-5 29 -27 50t-57 21t-58 -22q-24 -23 -27 -49h-67zM78 674h478v-112h-355v-164h335v-113h-335v-174h358v-112h-481v675z" />
    <glyph glyph-name="einvertedbreve" unicode="&#x207;" horiz-adv-x="571" 
d="M141 549l-1 -2q4 73 44 114q39 40 108 40t108 -40q40 -41 47 -114h-68q-5 29 -27 51t-59 22q-35 0 -58 -22q-24 -23 -27 -49h-67zM290 410h-1q-53 0 -86 -35q-34 -35 -44 -84l250 9q-13 53 -44 82q-29 28 -75 28zM516 74h-2q-38 -44 -93 -66q-57 -23 -118 -23
q-53 0 -102 18t-87 51t-60 81q-23 49 -23 107q0 62 21 111q21 50 57 83t83 51q46 18 98 18q53 0 98 -19q46 -20 81 -57t54 -93q20 -56 18 -128h-384q13 -55 57 -85t102 -30q74 0 122 51z" />
    <glyph glyph-name="Idblgrave" unicode="&#x208;" horiz-adv-x="286" 
d="M-66 871h124l54 -144h-100zM99 871h125l54 -144h-101zM90 675h123v-675h-123v675z" />
    <glyph glyph-name="idblgrave" unicode="&#x209;" horiz-adv-x="249" 
d="M-75 695h123l54 -144h-99zM89 695h125l54 -144h-101zM62 495h118v-495h-118v495z" />
    <glyph glyph-name="Iinvertedbreve" unicode="&#x20a;" horiz-adv-x="286" 
d="M-9 724l-2 -1q4 73 44 114q39 41 108 41t108 -40q40 -41 47 -114h-69q-5 29 -27 50t-57 21t-58 -22q-24 -23 -27 -49h-67zM87 674h123v-675h-123v675z" />
    <glyph glyph-name="iinvertedbreve" unicode="&#x20b;" horiz-adv-x="249" 
d="M-29 549l-1 -2q4 73 44 114q39 40 108 40t108 -40q40 -41 47 -114h-68q-5 29 -27 51t-59 22q-35 0 -58 -22q-24 -23 -27 -49h-67zM60 493h118v-495h-118v495z" />
    <glyph glyph-name="Odblgrave" unicode="&#x20c;" horiz-adv-x="796" 
d="M196 871h124l54 -144h-100zM361 871h125l54 -144h-101zM397 -13l-2 -1q-75 0 -141 27t-114 75q-49 49 -77 111t-28 137q0 70 29 136q28 63 77 112q48 48 114 75t141 27t141 -27t114 -75q49 -49 77 -112q29 -66 29 -136q0 -74 -28 -136t-77 -111q-48 -48 -114 -75
t-141 -27zM395 102q47 0 91 18q43 18 75 50t50 75t18 91t-18 91t-50 75t-75 50t-91 18t-90 -18t-74 -50t-50 -75t-18 -91t18 -91t50 -75t74 -50t90 -18z" />
    <glyph glyph-name="odblgrave" unicode="&#x20d;" horiz-adv-x="601" 
d="M94 695h124l54 -144h-100zM259 695h124l54 -144h-100zM300 -13l1 -1q-52 0 -100 18q-47 18 -85 51t-60 81q-22 47 -22 107t22 107q23 49 60 83q38 35 85 54t100 19q55 0 102 -19q48 -19 84 -54t59 -83q22 -47 22 -107q0 -59 -22 -106q-22 -48 -60 -81t-85 -51
q-48 -18 -101 -18zM301 94v1q29 0 57 11q26 10 46 30q18 18 31 47q12 27 12 60t-12 61q-12 29 -31 49q-20 21 -46 33q-27 12 -57 12q-31 0 -56 -12t-45 -33t-30 -49q-11 -30 -11 -61t11 -59t30 -47t45 -31t56 -12z" />
    <glyph glyph-name="Oinvertedbreve" unicode="&#x20e;" horiz-adv-x="796" 
d="M249 724l-2 -1q4 73 44 114q39 41 108 41t108 -40q40 -41 47 -114h-69q-5 29 -27 50t-58 21q-35 0 -57 -22q-23 -23 -27 -49h-67zM395 -14l-2 -1q-75 0 -141 27t-114 75q-49 49 -77 111t-28 137q0 70 29 136q28 63 77 112q48 48 114 75t141 27t141 -27t114 -75
q49 -49 77 -112q29 -66 29 -136q0 -74 -28 -136t-77 -111q-48 -48 -114 -75t-141 -27zM393 101q47 0 91 18q43 18 75 50t50 75q18 44 18 91t-18 91q-18 43 -50 75t-75 50t-91 18t-90 -18t-74 -50t-50 -75q-18 -44 -18 -91t18 -91q18 -43 50 -75t74 -50t90 -18z" />
    <glyph glyph-name="oinvertedbreve" unicode="&#x20f;" horiz-adv-x="601" 
d="M148 549l-1 -2q4 73 44 114q39 40 108 40t108 -40q40 -41 47 -114h-68q-4 29 -27 51q-22 22 -59 22q-35 0 -58 -22q-24 -23 -27 -49h-67zM299 -15l1 -1q-52 0 -100 18q-47 18 -85 51q-37 33 -60 81q-22 47 -22 107t22 107q23 49 60 83q38 35 85 54t100 19q55 0 102 -19
q48 -19 84 -54t59 -83q22 -47 22 -107q0 -59 -22 -106q-23 -48 -60 -81q-38 -33 -85 -51q-48 -18 -101 -18zM300 92v1q29 0 57 11q26 10 46 30q18 18 31 47q12 27 12 60t-12 61q-12 29 -31 49q-20 21 -46 33q-27 12 -57 12t-56 -12t-45 -33q-20 -21 -30 -49q-11 -30 -11 -61
t11 -59t30 -47t45 -31t56 -12z" />
    <glyph glyph-name="Rdblgrave" unicode="&#x210;" horiz-adv-x="694" 
d="M113 871h124l54 -144h-100zM278 871h124l54 -144h-100zM205 563l-1 -230h216q23 0 42 11q18 10 30 27q12 16 18 38q6 21 6 42t-6 41t-18 36q-13 17 -30 26q-18 9 -40 9h-217zM415 220l-212 -3v-222h-123v675h357q49 0 86 -18q38 -18 63 -49q26 -32 39 -70q14 -40 14 -79
q0 -31 -7 -59q-8 -30 -21 -57t-33 -51q-19 -23 -45 -40l124 -249h-132z" />
    <glyph glyph-name="rdblgrave" unicode="&#x211;" horiz-adv-x="375" 
d="M18 695h124l54 -144h-100zM183 695h124l54 -144h-100zM64 0l1 494h86l28 -100q38 53 86 83t103 30v-114q-62 0 -108 -27t-78 -69v-297h-118z" />
    <glyph glyph-name="Rinvertedbreve" unicode="&#x212;" horiz-adv-x="694" 
d="M168 724l-3 -1q4 73 44 114q39 41 109 41q69 0 108 -40q40 -41 47 -114h-69q-5 29 -27 50q-23 21 -57 21q-35 0 -58 -22q-24 -23 -27 -49h-67zM202 562l-1 -230h216q23 0 42 11q18 11 30 27t18 38q6 21 6 42q0 22 -6 41t-18 36q-13 17 -30 26q-18 9 -40 9h-217zM412 219
l-212 -3v-222h-123v675h357q48 0 86 -18t63 -49q26 -32 39 -70q14 -40 14 -79q0 -31 -7 -59q-7 -30 -21 -57t-33 -51q-19 -23 -45 -40l124 -249h-132z" />
    <glyph glyph-name="rinvertedbreve" unicode="&#x213;" horiz-adv-x="379" 
d="M71 549l-1 -2q4 73 44 114q39 40 108 40t108 -40q40 -41 47 -114h-68q-5 29 -27 51t-59 22q-35 0 -58 -22q-24 -23 -27 -49h-67zM64 -2l-1 494h87l27 -100q40 53 87 83q48 30 103 30v-114q-61 0 -108 -27q-46 -27 -76 -69v-297h-119z" />
    <glyph glyph-name="Udblgrave" unicode="&#x214;" horiz-adv-x="737" 
d="M167 871h124l54 -144h-100zM332 871h124l54 -144h-100zM195 675v-394q0 -46 15 -79q15 -34 39 -56t56 -33q33 -11 68 -11q34 0 67 11q32 11 54 33t36 56q13 32 13 80v392h123v-401q0 -70 -21 -124t-60 -90t-93 -54t-118 -18q-66 0 -121 18t-96 54t-63 90q-22 53 -22 125
v401h123z" />
    <glyph glyph-name="udblgrave" unicode="&#x215;" horiz-adv-x="607" 
d="M114 695h123l54 -144h-99zM279 695h124l54 -144h-100zM440 79l-1 -3q-75 -92 -182 -92q-39 0 -74 13q-36 14 -64 40q-29 27 -45 69q-17 43 -17 100v287h119v-270q0 -63 33 -93t83 -30q42 0 73 21t57 54v320h119v-495h-80z" />
    <glyph glyph-name="Uinvertedbreve" unicode="&#x216;" horiz-adv-x="737" 
d="M214 724l-2 -1q4 73 44 114q39 41 108 41t108 -40q40 -41 47 -114h-69q-5 29 -27 50q-23 21 -57 21q-35 0 -58 -22q-24 -23 -27 -49h-67zM193 674v-394q0 -46 15 -79q15 -34 39 -56t56 -33q33 -11 68 -11q34 0 67 11q32 10 54 33q22 22 36 56q13 32 13 80v392h123v-401
q0 -70 -21 -124t-60 -90t-93 -54t-118 -18q-66 0 -121 18t-96 54t-63 90q-22 53 -22 125v401h123z" />
    <glyph glyph-name="uinvertedbreve" unicode="&#x217;" horiz-adv-x="607" 
d="M153 549l-1 -2q4 73 44 114q39 40 108 40t108 -40q40 -41 47 -114h-68q-5 29 -27 51t-59 22q-35 0 -58 -22q-24 -23 -27 -49h-67zM439 77l-1 -3q-75 -92 -182 -92q-39 0 -74 13q-36 14 -64 40q-28 27 -45 69q-17 43 -17 100v287h119v-270q0 -63 33 -93t83 -30q41 0 73 21
t57 54v320h119v-495h-80z" />
    <glyph glyph-name="Scommaaccent" unicode="&#x218;" horiz-adv-x="620" 
d="M80 184l-3 -1q67 -41 135 -61q64 -19 120 -19q63 0 90 24t27 62q0 20 -7 33t-23 24q-15 10 -39 18t-57 15q-85 21 -138 45q-51 24 -82 51q-29 26 -40 57q-10 29 -10 63q0 39 15 74t45 60q31 26 74 41t99 15q33 0 65 -4q33 -4 74 -14q40 -10 75 -25q39 -17 69 -40l-49 -98
q-27 18 -57 29q-35 13 -63 20q-32 7 -60 12q-32 5 -48 5q-47 0 -76 -21q-28 -21 -28 -55q0 -14 6 -27t23 -27q16 -13 43 -25q24 -10 68 -22q74 -21 123 -42t78 -45t41 -53t12 -65q0 -48 -18 -85t-51 -63t-78 -39q-47 -14 -102 -14q-77 0 -156 24t-150 75zM280 -306h1
q18 25 29 45q12 23 18 46q-30 1 -52 23q-21 21 -21 53t22 54t55 22q32 0 53 -25q21 -26 21 -60q0 -46 -24 -93t-81 -90z" />
    <glyph glyph-name="scommaaccent" unicode="&#x219;" horiz-adv-x="516" 
d="M64 150h-7q62 -32 121 -45q58 -13 97 -13q35 0 54 13t19 31q-2 22 -21 33t-60 18q-66 13 -112 32q-44 18 -68 39t-33 45t-9 48q-2 33 12 62q14 30 40 50q27 21 66 33t89 12q24 0 54 -3t60 -9q33 -7 57 -16q28 -11 47 -24l-41 -91q-16 9 -38 15q-26 7 -44 11q-30 6 -45 8
q-22 3 -42 3q-36 0 -63 -11q-25 -11 -24 -33q0 -18 17 -30q16 -12 62 -21q125 -27 176 -67q53 -41 53 -99q1 -33 -12 -61t-42 -49t-67 -33q-39 -12 -88 -12q-26 0 -63 5t-66 13q-35 9 -64 22q-30 13 -58 30zM206 -305v1q18 22 30 45t18 46q-30 1 -52 23q-21 21 -21 53t22 54
t54 22q17 0 30 -7q14 -8 24 -19t16 -27q6 -15 6 -33q0 -47 -24 -93t-81 -90z" />
    <glyph glyph-name="uni021A" unicode="&#x21a;" horiz-adv-x="629" 
d="M371 563v-563h-123v563h-231v112h582v-112h-228zM263 -305v1q18 25 29 45q13 24 17 46q-30 1 -52 23q-21 21 -21 53q0 31 23 54q22 22 54 22q17 0 30 -7q14 -8 24 -19t16 -27q6 -15 6 -33q0 -47 -24 -93t-80 -90z" />
    <glyph glyph-name="uni021B" unicode="&#x21b;" horiz-adv-x="346" 
d="M321 -13l-1 -1q-118 0 -177 54t-59 142v211h-54v102h54v121l119 40v-161h108v-87l-12 -15h-96v-204q-2 -42 29 -68t89 -26v-108zM129 -306v1q18 25 29 45q13 24 17 46q-30 1 -52 23q-21 21 -21 53q0 31 23 54q22 22 54 22q17 0 30 -7q14 -8 24 -19t16 -27q6 -15 6 -33
q0 -46 -24 -93q-24 -46 -80 -90z" />
    <glyph glyph-name="schwa" unicode="&#x259;" horiz-adv-x="570" 
d="M277 -13l-5 2q-52 0 -97 19q-47 20 -81 57t-54 93t-18 129h383q-12 53 -52 84q-41 32 -99 32q-36 0 -68 -13t-58 -39l-78 70q38 43 93 66q57 23 119 23q57 0 105 -19q49 -19 87 -54t60 -82t22 -105q0 -59 -21 -107q-21 -49 -57 -83t-83 -54q-45 -19 -98 -19zM276 85v1
q26 0 47 9t38 26q16 16 27 38q10 21 15 45l-252 -9q13 -53 47 -82q32 -28 78 -28z" />
    <glyph glyph-name="circumflex" unicode="&#x2c6;" horiz-adv-x="379" 
d="M189 650l-66 -99h-112l90 144h177l90 -144h-113z" />
    <glyph glyph-name="caron" unicode="&#x2c7;" horiz-adv-x="379" 
d="M11 696h112l66 -99l66 99h113l-90 -144h-177z" />
    <glyph glyph-name="breve" unicode="&#x2d8;" horiz-adv-x="369" 
d="M98 703v-1q4 -26 27 -48q22 -22 57 -22q38 0 60 21t27 50h68q-8 -74 -46 -114q-39 -40 -108 -40t-108 40q-40 41 -44 114h67z" />
    <glyph glyph-name="dotaccent" unicode="&#x2d9;" horiz-adv-x="214" 
d="M108 571v-1q-32 0 -54 21q-23 21 -23 56q0 32 23 53q22 21 54 21q28 0 51 -21t23 -53q0 -34 -23 -55t-51 -21z" />
    <glyph glyph-name="ring" unicode="&#x2da;" horiz-adv-x="309" 
d="M31 667h-2q0 50 35 83q34 33 90 33q54 0 89 -33t35 -83q0 -51 -34 -84t-88 -33q-62 0 -93 33q-32 34 -32 84zM154 615l-1 -2q19 0 35 14q15 13 15 36q0 25 -15 39q-14 13 -34 13t-36 -14q-15 -13 -15 -36q0 -26 15 -38t36 -12z" />
    <glyph glyph-name="ogonek" unicode="&#x2db;" horiz-adv-x="280" 
d="M252 -168l1 -1q-36 -33 -99 -33q-58 0 -91 24t-33 71q0 33 16 58q17 26 42 44q26 18 60 30q39 14 70 20l13 -50q-63 -16 -88 -38q-24 -21 -24 -50q0 -16 12 -28t32 -12q42 0 69 27z" />
    <glyph glyph-name="tilde" unicode="&#x2dc;" horiz-adv-x="365" 
d="M19 582h-3q2 61 30 89q29 29 66 29q18 0 36 -6q31 -11 38 -13q13 -5 39 -13q19 -6 39 -6q12 0 22 6t12 23h47q0 -61 -22 -92q-23 -32 -67 -32q-20 0 -39 6q-26 8 -39 13t-39 13q-19 6 -39 6q-12 0 -21 -6t-11 -17h-49z" />
    <glyph glyph-name="hungarumlaut" unicode="&#x2dd;" horiz-adv-x="405" 
d="M375 695l-78 -144h-101l54 144h125zM209 695l-78 -144h-100l54 144h124z" />
    <glyph glyph-name="uni0401" unicode="&#x401;" horiz-adv-x="616" 
d="M204 737h-1q-31 0 -54 21q-22 21 -22 54q0 32 23 53q22 21 54 21q28 0 51 -21t23 -53q0 -33 -23 -54t-51 -21zM427 737q-31 0 -54 21t-23 54q0 32 23 53t54 21q29 0 51 -21q23 -21 23 -53q0 -33 -23 -54q-22 -21 -51 -21zM81 675h478v-112h-355v-164h335v-113h-335v-174
h358v-112h-481v675z" />
    <glyph glyph-name="uni0402" unicode="&#x402;" horiz-adv-x="820" 
d="M785 232h-3q0 -55 -18 -100q-18 -46 -51 -77q-32 -31 -81 -49q-48 -18 -109 -18v110q63 0 100 36t37 90q0 24 -9 47t-27 39t-47 27q-30 11 -69 11q-29 0 -79 -8q-46 -7 -94 -30v-309h-123v563h-179v112h482v-112h-180v-144q55 23 102 32q49 9 95 9q58 0 104 -15
q48 -16 80 -43q33 -29 51 -72t18 -99z" />
    <glyph glyph-name="uni0403" unicode="&#x403;" horiz-adv-x="575" 
d="M233 727l72 144h137l-96 -144h-113zM197 563v-563h-123v675h464v-112h-341z" />
    <glyph glyph-name="uni0404" unicode="&#x404;" horiz-adv-x="714" 
d="M662 94l-1 -2q-49 -51 -118 -79q-68 -28 -146 -28q-73 0 -138 27t-113 75q-47 47 -76 111q-28 62 -28 137t28 138q29 65 76 112q48 48 113 75t138 27q77 0 149 -29q70 -28 120 -81l-87 -81q-15 18 -36 33t-46 24q-28 10 -51 14q-28 5 -49 5q-41 0 -76 -13
q-38 -14 -65 -37q-30 -25 -50 -57q-21 -33 -30 -70h267v-112h-268q9 -39 30 -72q20 -32 50 -57q27 -23 65 -37q35 -13 77 -13q22 0 50 5q22 4 49 14q22 8 45 23q20 13 36 32z" />
    <glyph glyph-name="uni0405" unicode="&#x405;" horiz-adv-x="639" 
d="M80 184l-3 -1q67 -41 135 -61q64 -19 120 -19q63 0 90 24t27 62q0 20 -7 33t-23 24q-15 10 -39 18t-57 15q-85 21 -138 45q-51 24 -82 51q-29 26 -40 57q-10 29 -10 63q0 39 15 74t45 60q31 26 74 41t99 15q33 0 65 -4q33 -4 74 -14q40 -10 75 -25q39 -17 69 -40l-49 -98
q-27 18 -57 29q-35 13 -63 20q-32 7 -60 12q-32 5 -48 5q-47 0 -76 -21q-28 -21 -28 -55q0 -14 6 -27t23 -27q16 -13 43 -25q24 -10 68 -22q74 -21 123 -42t78 -45t41 -53t12 -65q0 -48 -18 -85t-51 -63t-78 -39q-47 -14 -102 -14q-77 0 -156 24t-150 75z" />
    <glyph glyph-name="uni0406" unicode="&#x406;" horiz-adv-x="271" 
d="M82 675h123v-675h-123v675z" />
    <glyph glyph-name="uni0407" unicode="&#x407;" horiz-adv-x="271" 
d="M23 737h-1q-32 0 -54 21q-23 21 -23 54q0 32 23 53q22 21 54 21q28 0 51 -21t23 -53q0 -33 -22 -54t-51 -21zM246 737h-1q-31 0 -54 21t-23 54q0 32 23 53t54 21q29 0 51 -21q23 -21 23 -53q0 -33 -22 -54q-23 -21 -51 -21zM80 675h123v-675h-123v675z" />
    <glyph glyph-name="uni0408" unicode="&#x408;" horiz-adv-x="568" 
d="M269 -13l1 -1q-35 0 -75 8q-35 7 -72 23q-32 14 -64 38q-30 22 -52 49l71 77q34 -36 81 -57t87 -21q23 0 45 8q21 7 38 23t26 39q9 24 9 57v444h123v-451q0 -63 -18 -108q-18 -44 -48 -73q-30 -28 -69 -42q-38 -13 -83 -13z" />
    <glyph glyph-name="uni0409" unicode="&#x409;" horiz-adv-x="1116" 
d="M253 192l-1 -4q0 -50 -16 -86q-17 -38 -46 -63q-30 -26 -70 -39q-42 -14 -90 -14v109q20 0 38 6q19 6 32 18q14 12 21 30q8 19 8 41v483h548v-259h205q47 0 83 -18q38 -19 62 -46q25 -28 39 -65q13 -35 13 -75q0 -41 -13 -77q-13 -37 -39 -67q-25 -30 -62 -48
q-36 -18 -82 -18h-328v563h-302v-371zM677 300v-196h175q26 0 44 9t30 24t18 33t6 36q0 38 -24 66t-75 28h-174z" />
    <glyph glyph-name="uni040A" unicode="&#x40a;" horiz-adv-x="1116" 
d="M685 304l1 -194h174q26 0 44 9q17 9 30 23q12 13 18 32q6 18 6 36q2 38 -24 66q-25 28 -76 28h-173zM563 289l-365 -2v-291h-123v675h123v-272h365v272h123v-259h204q48 0 84 -18q38 -19 62 -46q26 -29 38 -65t12 -75q0 -41 -13 -77q-13 -37 -39 -67t-61 -48
q-36 -18 -83 -18h-327v291z" />
    <glyph glyph-name="uni040B" unicode="&#x40b;" horiz-adv-x="855" 
d="M541 367l-3 -2q-50 0 -92 -18q-43 -18 -77 -48v-301h-123v563h-214v112h550v-112h-213v-147q45 31 91 47q49 17 102 17q46 0 90 -12t77 -39q34 -28 53 -67q20 -42 20 -98v-262h-123v256q0 57 -39 84t-99 27z" />
    <glyph glyph-name="uni040C" unicode="&#x40c;" horiz-adv-x="701" 
d="M275 727l72 144h137l-96 -144h-113zM288 275l-83 -87v-188h-123v675h123v-319l308 319h159l-298 -310l317 -365h-160z" />
    <glyph glyph-name="uni040E" unicode="&#x40e;" horiz-adv-x="669" 
d="M248 879h2q4 -26 27 -49q22 -22 57 -22q34 0 57 21q22 21 27 50h69q-8 -75 -46 -115q-39 -40 -108 -40t-108 40q-40 41 -44 115h67zM481 297l-2 2q-42 -91 -90 -150q-47 -58 -104 -93q-56 -35 -118 -48q-63 -13 -133 -12l8 109q72 0 128 18t99 58l-253 495h132l197 -392
l3 6l3 6l175 379h132z" />
    <glyph glyph-name="uni040F" unicode="&#x40f;" horiz-adv-x="742" 
d="M447 0l-11 -156h-107l-11 156h-244v675h123v-563h364v563h123v-675h-237z" />
    <glyph glyph-name="uni0410" unicode="&#x410;" horiz-adv-x="730" 
d="M350 552l-115 -290h230zM509 150h-319l-59 -150h-130l283 675h131l283 -675h-129z" />
    <glyph glyph-name="uni0411" unicode="&#x411;" horiz-adv-x="666" 
d="M197 304l1 -191h215q26 0 44 9q17 9 30 23q12 13 18 32q6 18 6 35q0 16 -6 33t-18 30q-12 14 -31 21q-21 8 -45 8h-214zM75 676l460 -3v-112h-339v-147h246q47 0 83 -18q38 -19 62 -46q25 -28 39 -65q13 -35 13 -75t-13 -76q-13 -37 -39 -67t-61 -48q-36 -18 -82 -18
h-369v675z" />
    <glyph glyph-name="uni0412" unicode="&#x412;" horiz-adv-x="704" 
d="M82 675l348 -2q44 0 78 -15t58 -40q24 -26 36 -58q12 -33 12 -69q0 -39 -13 -72q-13 -35 -39 -60q48 -23 74 -68q26 -46 26 -96q0 -38 -13 -73q-13 -36 -39 -63q-25 -26 -63 -43q-36 -16 -87 -16h-378v675zM203 561v-166h207q17 0 33 8t24 19q10 13 14 27q5 17 5 29
t-5 29q-5 15 -15 27q-10 11 -27 19q-18 8 -39 8h-197zM203 282l-1 -176h242q21 0 39 8q16 7 27 20t17 29q6 17 6 33q0 36 -21 61t-66 25h-243z" />
    <glyph glyph-name="uni0413" unicode="&#x413;" horiz-adv-x="575" 
d="M197 563v-563h-123v675h464v-112h-341z" />
    <glyph glyph-name="uni0414" unicode="&#x414;" horiz-adv-x="756" 
d="M530 563l-203 -1q-8 -143 -33 -251q-26 -110 -61 -199h297v451zM602 -1l-453 -1l-8 -114h-108v226h74q58 132 79 273q21 136 19 291h447v-563h66v-226h-108z" />
    <glyph glyph-name="uni0415" unicode="&#x415;" horiz-adv-x="616" 
d="M82 675h478v-112h-355v-164h335v-113h-335v-174h358v-112h-481v675z" />
    <glyph glyph-name="uni0416" unicode="&#x416;" horiz-adv-x="1131" 
d="M17 0l317 365l-297 310h159l307 -319v319h123v-320l309 320h159l-298 -310l317 -365h-159l-244 275l-84 -88v-187h-123v188l-83 87l-242 -275h-161z" />
    <glyph glyph-name="uni0417" unicode="&#x417;" horiz-adv-x="672" 
d="M347 -13l-1 -2q-88 0 -162 27q-72 27 -145 75l54 83q25 -16 62 -31q34 -14 67 -21q34 -8 66 -12q28 -4 59 -4q38 0 68 8q28 7 47 20q18 12 27 29t9 33q0 48 -57 74q-58 26 -163 26v105q69 0 111 9q41 9 65 23q22 13 30 30q7 15 7 32q0 21 -12 36t-33 24q-23 10 -49 14
q-32 5 -63 5q-60 0 -116 -14q-53 -13 -110 -41l-49 91q55 38 129 59q75 21 155 21q58 0 109 -12q50 -12 88 -36q39 -25 59 -58q21 -34 21 -78q0 -47 -29 -88q-29 -40 -87 -69q58 -24 89 -63q32 -40 32 -93q0 -38 -16 -73q-17 -37 -51 -65q-33 -28 -87 -46q-53 -18 -124 -18z
" />
    <glyph glyph-name="uni0418" unicode="&#x418;" horiz-adv-x="757" 
d="M74 0v675h123v-497l363 497h123v-675h-123v496l-363 -496h-123z" />
    <glyph glyph-name="uni0419" unicode="&#x419;" horiz-adv-x="757" 
d="M294 879q3 -26 27 -49q23 -22 59 -22q34 0 57 21q22 21 27 50h69q-8 -75 -46 -115q-39 -40 -108 -40q-70 0 -109 40q-38 40 -43 115h67zM74 0v675h123v-497l363 497h123v-675h-123v496l-363 -496h-123z" />
    <glyph glyph-name="uni041A" unicode="&#x41a;" horiz-adv-x="701" 
d="M288 275l-83 -87v-188h-123v675h123v-319l308 319h159l-298 -310l317 -365h-160z" />
    <glyph glyph-name="uni041B" unicode="&#x41b;" horiz-adv-x="751" 
d="M253 192v-2q0 -50 -16 -86q-17 -38 -46 -63q-30 -26 -70 -39q-42 -14 -90 -14v109q20 0 38 6q19 6 32 18t21 30q8 19 8 41v483h548v-675h-123v562h-302v-370z" />
    <glyph glyph-name="uni041C" unicode="&#x41c;" horiz-adv-x="891" 
d="M205 472v-472h-123v675h126l251 -456l251 456h126v-675h-123v473l-222 -407h-65z" />
    <glyph glyph-name="uni041D" unicode="&#x41d;" horiz-adv-x="758" 
d="M569 287h-364v-287h-123v675h123v-275h364v275h123v-675h-123v287z" />
    <glyph glyph-name="uni041E" unicode="&#x41e;" horiz-adv-x="806" 
d="M397 -13l-2 -1q-75 0 -141 27t-114 75q-49 49 -77 111t-28 137q0 70 29 136q28 63 77 112q48 48 114 75t141 27t141 -27t114 -75q49 -49 77 -112q29 -66 29 -136q0 -74 -28 -136t-77 -111q-48 -48 -114 -75t-141 -27zM395 102q47 0 91 18q43 18 75 50t50 75t18 91t-18 91
t-50 75t-75 50t-91 18t-90 -18t-74 -50t-50 -75t-18 -91t18 -91t50 -75t74 -50t90 -18z" />
    <glyph glyph-name="uni041F" unicode="&#x41f;" horiz-adv-x="758" 
d="M562 563h-365v-563h-123v675h611v-675h-123v563z" />
    <glyph glyph-name="uni0420" unicode="&#x420;" horiz-adv-x="690" 
d="M205 563l-2 -255h192q31 0 54 12t38 32q16 21 23 43q8 26 8 46q0 24 -7 45q-8 23 -22 39q-15 17 -37 27q-24 11 -54 11h-193zM203 196l-1 -195h-123v675h339q53 0 95 -21q43 -21 71 -54q29 -34 44 -75q15 -42 15 -86t-15 -87q-15 -45 -43 -78q-29 -35 -70 -57t-96 -22
h-216z" />
    <glyph glyph-name="uni0421" unicode="&#x421;" horiz-adv-x="721" 
d="M670 94l-2 -3q-48 -50 -121 -78q-72 -28 -153 -28q-74 0 -140 26q-64 25 -114 72q-49 46 -78 110q-28 62 -28 140q0 83 30 149q30 65 80 111q49 45 113 69q63 24 129 24q41 0 77 -7q42 -8 77 -22q39 -16 71 -36q35 -22 60 -46l-86 -81q-18 18 -42 33t-51 24
q-30 10 -54 14q-30 5 -51 5q-44 0 -85 -18t-72 -49t-49 -75t-18 -94q0 -52 19 -93q20 -42 51 -72t74 -48q42 -18 89 -18q22 0 50 5q23 4 51 14q25 9 48 24q23 16 39 34z" />
    <glyph glyph-name="uni0422" unicode="&#x422;" horiz-adv-x="629" 
d="M371 563v-563h-123v563h-231v112h582v-112h-228z" />
    <glyph glyph-name="uni0423" unicode="&#x423;" horiz-adv-x="669" 
d="M479 297l-2 2q-42 -91 -90 -150q-47 -58 -104 -93q-56 -35 -118 -48q-63 -13 -133 -12l8 109q73 0 128 18q56 18 99 58l-253 495h132l197 -392l3 6l3 6l175 379h132z" />
    <glyph glyph-name="uni0424" unicode="&#x424;" horiz-adv-x="853" 
d="M363 0l-1 84q-86 6 -149 27t-105 54t-63 77t-21 95t21 95t63 77t105 54t149 27v85h123v-84q86 -6 151 -27t107 -54t63 -77q21 -43 21 -95t-21 -95q-21 -44 -63 -77t-106 -54q-65 -21 -151 -27v-85h-123zM700 336v1q0 25 -12 49q-12 23 -38 42q-26 18 -66 30
q-43 13 -99 17v-275q56 4 99 17q40 12 66 30t38 41q12 22 12 48zM152 337v-3q0 -26 12 -48q13 -24 37 -41q25 -18 65 -30q37 -11 96 -16v274q-55 -4 -96 -17q-40 -12 -65 -30q-24 -17 -37 -41q-12 -23 -12 -48z" />
    <glyph glyph-name="uni0425" unicode="&#x425;" horiz-adv-x="742" 
d="M344 248l-195 -248h-153l274 342l-260 333h152l185 -238l182 238h150l-261 -334l270 -341h-150z" />
    <glyph glyph-name="uni0426" unicode="&#x426;" horiz-adv-x="780" 
d="M643 -114l-8 114h-561v675h123v-562h365v562h123v-562h65v-227h-107z" />
    <glyph glyph-name="uni0427" unicode="&#x427;" horiz-adv-x="687" 
d="M490 0l2 246q-38 -10 -75 -15q-33 -4 -72 -4q-66 0 -123 17q-55 16 -96 50q-40 33 -63 81q-22 47 -22 111v189h123v-169q0 -87 48 -126t137 -39q24 0 66 5q37 4 75 15v314h123v-675h-123z" />
    <glyph glyph-name="uni0428" unicode="&#x428;" horiz-adv-x="1023" 
d="M74 675h123v-563h253v563h123v-563h253v563h123v-675h-875v675z" />
    <glyph glyph-name="uni0429" unicode="&#x429;" horiz-adv-x="1044" 
d="M907 -114l-8 114h-825v675h123v-563h253v563h123v-563h253v563h123v-563h65v-226h-107z" />
    <glyph glyph-name="uni042A" unicode="&#x42a;" horiz-adv-x="832" 
d="M365 304v-196h212q26 0 44 9t30 24t18 33t6 36q0 36 -24 65t-75 29h-211zM242 559l-218 -3v112h339v-259h242q47 0 83 -18q38 -19 62 -46q25 -28 39 -65q13 -35 13 -75t-13 -76q-13 -37 -39 -67t-61 -48q-36 -18 -82 -18h-365v563z" />
    <glyph glyph-name="uni042B" unicode="&#x42b;" horiz-adv-x="925" 
d="M727 675h123v-675h-123v675zM197 304l1 -194h215q26 0 44 9q17 9 30 23q12 13 18 32q6 18 6 36q1 38 -24 66t-76 28h-214zM75 673l121 -2v-259h246q47 0 83 -18q38 -19 62 -46q25 -28 39 -65q13 -35 13 -75q0 -41 -13 -77q-13 -37 -39 -67t-61 -48q-36 -18 -82 -18h-369
v675z" />
    <glyph glyph-name="uni042C" unicode="&#x42c;" horiz-adv-x="663" 
d="M197 304l1 -191h211q26 0 44 9q17 9 30 23q12 13 18 32q6 18 6 35q0 16 -6 33t-18 30q-12 14 -31 21q-21 8 -45 8h-210zM75 676l121 -2v-259h242q47 0 83 -18q38 -19 62 -46q25 -28 39 -65q13 -35 13 -75q0 -41 -13 -77q-13 -37 -39 -67t-61 -48q-36 -18 -82 -18h-365
v675z" />
    <glyph glyph-name="uni042D" unicode="&#x42d;" horiz-adv-x="714" 
d="M313 -13l-2 -4q-78 0 -147 28q-71 29 -120 79l85 83q16 -19 36 -32q22 -14 47 -23q28 -10 51 -14q28 -5 48 -5q39 0 76 14q36 13 65 38q30 25 50 57q21 33 30 71h-268v112h267q-9 39 -30 72q-20 32 -50 57q-29 25 -65 38q-37 14 -76 14q-21 0 -49 -5q-23 -4 -51 -14
q-25 -9 -46 -24t-36 -33l-87 81q49 53 120 81q72 29 149 29q74 0 138 -27q65 -27 113 -75q47 -47 76 -112q28 -63 28 -138q0 -71 -27 -136t-75 -111q-49 -48 -112 -74q-65 -27 -138 -27z" />
    <glyph glyph-name="uni042E" unicode="&#x42e;" horiz-adv-x="1100" 
d="M692 -13l-1 -2q-67 0 -128 23q-60 22 -108 63q-46 39 -79 95q-31 53 -40 119h-139v-287h-123v675h123v-276h141q10 61 42 114q32 54 78 92q45 38 107 61q59 22 126 22q75 0 141 -27t114 -75q49 -49 77 -112q29 -66 29 -136q0 -74 -28 -136t-77 -111q-48 -48 -114 -75
t-141 -27zM691 101q48 0 90 18t74 50t50 75q18 44 18 91t-18 91q-18 43 -50 75t-74 50t-90 18t-90 -18t-74 -50t-50 -75q-18 -44 -18 -91t18 -91q18 -43 50 -75t74 -50t90 -18z" />
    <glyph glyph-name="uni042F" unicode="&#x42f;" horiz-adv-x="719" 
d="M522 347l-4 215h-244q-22 0 -40 -9q-17 -9 -28 -24q-12 -17 -17 -34q-6 -19 -6 -39t6 -39t18 -36q11 -16 30 -25q18 -9 42 -9h243zM518 233l-227 -2l-117 -234h-132l127 256q-27 13 -48 36q-22 23 -36 49q-14 25 -22 57q-7 28 -7 62q0 42 14 82q14 39 39 69t63 48t84 18
h385v-675h-123v234z" />
    <glyph glyph-name="uni0430" unicode="&#x430;" horiz-adv-x="570" 
d="M230 85l1 -3q37 0 72 15q34 15 71 41v90l-123 -15q-21 -1 -39 -6q-17 -4 -31 -12q-13 -7 -21 -20q-7 -11 -7 -31q0 -29 18 -44t59 -15zM394 58h-2q-51 -39 -93 -56q-43 -18 -99 -18q-86 0 -130 42q-43 42 -43 109q0 77 51 117t135 48l159 12v11q0 41 -34 60
q-35 20 -94 20q-34 0 -78 -6q-42 -6 -86 -20l-24 93q51 18 99 26q51 9 103 9q116 0 175 -46q60 -47 60 -127v-335h-73z" />
    <glyph glyph-name="uni0431" unicode="&#x431;" horiz-adv-x="607" 
d="M570 226l2 1q0 -56 -19 -100t-54 -76q-35 -31 -81 -48q-45 -16 -99 -16q-57 0 -108 18t-90 54q-38 35 -61 90q-22 53 -22 128v6q0 112 27 190q27 79 75 125q49 47 111 68q63 21 135 21q38 0 78 -6q44 -6 84 -19l-39 -105q-31 10 -65 15q-37 5 -61 5q-34 0 -69 -8
q-32 -7 -60 -26q-27 -18 -48 -48t-33 -73q30 15 68 25q35 9 66 9q53 0 101 -15q49 -15 84 -43q36 -28 57 -72t21 -100zM309 98l-1 -2q30 0 54 10q26 10 45 27q18 15 31 41q12 24 12 52t-12 51t-33 38q-22 16 -48 23q-29 8 -55 8q-30 0 -55 -9t-45 -24t-30 -34t-10 -42
q0 -35 13 -60t34 -43t47 -27t53 -9z" />
    <glyph glyph-name="uni0432" unicode="&#x432;" horiz-adv-x="578" 
d="M67 495l289 2q38 0 66 -12q29 -12 48 -31q20 -20 29 -45t9 -51t-9 -50q-10 -26 -25 -44q33 -18 51 -51t18 -69q0 -29 -10 -53q-11 -26 -31 -46q-21 -21 -51 -33t-67 -12h-317v495zM186 392l1 -87h155q19 0 30 14t11 32q0 17 -12 29t-37 12h-148zM187 200v-93h181
q26 0 38 14q12 13 12 33q0 18 -12 32t-37 14h-182z" />
    <glyph glyph-name="uni0433" unicode="&#x433;" horiz-adv-x="467" 
d="M188 385v-385h-121v495h370v-110h-249z" />
    <glyph glyph-name="uni0434" unicode="&#x434;" horiz-adv-x="600" 
d="M384 385h-106q-10 -74 -27 -145q-16 -69 -39 -130h172v275zM144 0l-8 -113h-107v224h63q34 83 57 177t24 207h331v-385h68v-224h-107l-8 114h-313z" />
    <glyph glyph-name="uni0435" unicode="&#x435;" horiz-adv-x="582" 
d="M291 412h-1q-53 0 -86 -35q-34 -35 -44 -84l250 9q-13 53 -44 82q-29 28 -75 28zM517 76h-2q-37 -44 -93 -66q-57 -23 -118 -23q-52 0 -102 18t-87 51t-60 81q-23 49 -23 107q0 62 21 111q21 50 57 83t83 51q46 18 98 18q53 0 98 -19q47 -20 81 -57t54 -93t18 -128h-384
q13 -55 57 -85q43 -30 102 -30q74 0 122 51z" />
    <glyph glyph-name="uni0436" unicode="&#x436;" horiz-adv-x="866" 
d="M374 131l-47 51l-156 -182h-154l228 268l-212 227h155l186 -202v202h121v-202l186 202h155l-213 -226l229 -269h-155l-155 182l-47 -50v-132h-121v131z" />
    <glyph glyph-name="uni0437" unicode="&#x437;" horiz-adv-x="506" 
d="M265 -13q-50 0 -112 17q-60 16 -113 59l46 76q48 -29 96 -39q46 -10 80 -10q41 0 59 15t18 44q0 27 -36 41q-37 14 -102 14v99q42 0 72 5q27 4 42 12q14 7 19 17t5 18q0 25 -21 36q-20 10 -61 10q-42 0 -81 -9q-40 -9 -82 -28l-39 86q57 31 111 44q58 14 104 14
q40 0 75 -9t62 -27t42 -43t15 -57q0 -74 -75 -120q35 -20 54 -48q20 -29 20 -66q0 -28 -12 -55t-36 -48q-25 -22 -62 -35q-36 -13 -88 -13z" />
    <glyph glyph-name="uni0438" unicode="&#x438;" 
d="M67 0v495h120v-328l247 328h121v-495h-121v328l-247 -328h-120z" />
    <glyph glyph-name="uni0439" unicode="&#x439;" 
d="M215 703v-1q3 -25 26 -48q22 -22 59 -22q36 0 59 21q22 21 27 50h69q-8 -74 -46 -114q-39 -40 -108 -40q-70 0 -109 40q-40 41 -44 114h67zM67 -1v495h120v-328l247 328h121v-495h-121v328l-247 -328h-120z" />
    <glyph glyph-name="uni043A" unicode="&#x43a;" horiz-adv-x="577" 
d="M247 189l-59 -60v-129h-121v495h121v-207l205 207h156l-219 -221l234 -274h-154z" />
    <glyph glyph-name="uni043B" unicode="&#x43b;" horiz-adv-x="633" 
d="M233 174v-1q0 -41 -15 -76q-15 -34 -42 -58q-26 -23 -65 -37q-36 -13 -84 -13v109q37 0 62 21q26 21 24 56v320h453v-495h-120v385h-213v-211z" />
    <glyph glyph-name="uni043C" unicode="&#x43c;" horiz-adv-x="719" 
d="M188 308v-308h-121v495h123l169 -296l169 296h123v-495h-119v309l-146 -257h-54z" />
    <glyph glyph-name="uni043D" unicode="&#x43d;" horiz-adv-x="626" 
d="M439 194h-251v-194h-121v495h121v-191h251v191h120v-495h-120v194z" />
    <glyph glyph-name="uni043E" unicode="&#x43e;" horiz-adv-x="605" 
d="M300 -13l1 -1q-52 0 -100 18q-47 18 -85 51t-60 81q-22 47 -22 107t22 107q23 49 60 83q38 35 85 54t100 19q55 0 102 -19q48 -19 84 -54t59 -83q22 -47 22 -107q0 -59 -22 -106q-22 -48 -60 -81t-85 -51q-48 -18 -101 -18zM301 94v1q29 0 57 11q26 10 46 30q18 18 31 47
q12 27 12 60t-12 61q-12 29 -31 49q-20 21 -46 33q-27 12 -57 12q-31 0 -56 -12t-45 -33t-30 -49q-11 -30 -11 -61t11 -59t30 -47t45 -31t56 -12z" />
    <glyph glyph-name="uni043F" unicode="&#x43f;" horiz-adv-x="626" 
d="M439 385h-252v-385h-120v495h492v-495h-120v385z" />
    <glyph glyph-name="uni0440" unicode="&#x440;" horiz-adv-x="626" 
d="M321 400l-1 3q-30 0 -57 -12q-26 -12 -46 -33q-19 -20 -31 -49t-12 -61t12 -60q12 -29 31 -49q20 -21 46 -33q27 -12 58 -12t58 12q26 12 46 33q19 21 30 48q11 28 11 59q0 30 -11 60q-10 28 -30 49t-46 33q-27 12 -58 12zM183 -233h-120v731h69l20 -58q34 31 80 51
t98 20q54 0 99 -19q47 -20 81 -54q36 -36 56 -82q21 -48 21 -106q0 -56 -20 -105q-19 -47 -54 -82t-81 -54q-45 -19 -97 -19q-49 0 -87 16q-40 17 -71 42l6 -61v-220z" />
    <glyph glyph-name="uni0441" unicode="&#x441;" horiz-adv-x="544" 
d="M503 73v-1q-37 -41 -93 -64q-54 -22 -114 -22q-52 0 -100 18t-84 51q-35 32 -58 81q-22 47 -22 107t22 107q23 48 59 83t84 54q47 19 100 19q55 0 111 -21q55 -21 93 -62l-86 -75q-22 22 -52 37t-65 15q-30 0 -55 -12q-26 -12 -45 -31q-20 -19 -30 -48q-11 -30 -11 -61
q0 -32 11 -60q10 -27 30 -48t46 -33q27 -12 57 -12t60 14t56 36z" />
    <glyph glyph-name="uni0442" unicode="&#x442;" horiz-adv-x="453" 
d="M287 390v-390h-121v390h-153v105h427l-1 -105h-152z" />
    <glyph glyph-name="uni0443" unicode="&#x443;" horiz-adv-x="512" 
d="M29 -126h1q28 0 56 14t50 36t39 51t27 57l-192 463h130l120 -320l123 320h130l-217 -508q-94 -223 -267 -223v110z" />
    <glyph glyph-name="uni0444" unicode="&#x444;" horiz-adv-x="985" 
d="M299 96l-3 -4q30 0 56 12q25 12 45 32q19 20 30 48q11 30 11 61q0 30 -11 60q-10 28 -30 49q-19 21 -45 33t-55 12q-31 0 -56 -12q-26 -12 -44 -33q-19 -22 -29 -48q-11 -28 -11 -58q0 -31 11 -59q10 -27 30 -48t45 -33t56 -12zM683 91q31 0 56 12q26 12 44 33
q19 22 29 48q11 28 11 59q0 30 -11 60q-10 28 -30 49t-45 33t-54 12q-31 0 -56 -12t-45 -33t-30 -48q-11 -28 -11 -60t11 -60q10 -27 30 -48t45 -33t56 -12zM549 -238l-121 -2v273q-32 -25 -68 -38q-37 -14 -76 -14q-49 0 -97 20q-47 19 -81 54q-33 33 -55 83
q-21 48 -21 105t20 106q19 47 54 82q34 34 80 54q44 19 95 19q47 0 87 -17q39 -17 69 -42l-6 64v211h119v-266q32 25 68 38q37 14 77 14q52 0 96 -19q46 -20 80 -54q33 -33 55 -83q21 -48 21 -105t-20 -106q-19 -47 -54 -82t-79 -54t-95 -19q-45 0 -85 17q-38 16 -70 42
l7 -65v-216z" />
    <glyph glyph-name="uni0445" unicode="&#x445;" horiz-adv-x="563" 
d="M266 163l-122 -163h-140l196 249l-188 246h146l113 -160l113 160h140l-188 -243l199 -252h-146z" />
    <glyph glyph-name="uni0446" unicode="&#x446;" horiz-adv-x="646" 
d="M507 -114l-8 114h-432v495h120v-385h239v385h121v-385h67v-224h-107z" />
    <glyph glyph-name="uni0447" unicode="&#x447;" horiz-adv-x="580" 
d="M393 0l2 127l7 67q-52 -43 -129 -43q-49 0 -93 15q-43 15 -75 47t-50 78q-18 47 -18 108v95h120v-86q0 -39 12 -66t30 -45q17 -17 41 -25t45 -8q31 0 58 12t50 32v187h120v-495h-120z" />
    <glyph glyph-name="uni0448" unicode="&#x448;" horiz-adv-x="862" 
d="M67 495h120v-385h184v385h120v-385h185v385h119v-495h-728v495z" />
    <glyph glyph-name="uni0449" unicode="&#x449;" horiz-adv-x="894" 
d="M755 -114l-8 114h-680v495h119v-385h185v385h120v-385h184v385h120v-385h67v-224h-107z" />
    <glyph glyph-name="uni044A" unicode="&#x44a;" horiz-adv-x="620" 
d="M292 235v-131h114q32 0 47 20q15 19 15 47q0 25 -15 45q-15 19 -47 19h-114zM172 390h-151v104h270v-158h136q38 0 69 -14t51 -37q22 -25 32 -54q11 -31 11 -62t-11 -62t-31 -54q-21 -24 -51 -39t-69 -15h-256v391z" />
    <glyph glyph-name="uni044B" unicode="&#x44b;" horiz-adv-x="756" 
d="M569 0v495h120v-495h-120zM188 235l-1 -131h137q32 0 47 20q15 19 15 47q0 25 -15 45q-15 19 -47 19h-136zM66 494h120v-158h159q38 0 69 -14t51 -37q22 -25 32 -54q11 -31 11 -62t-11 -62q-10 -29 -32 -54q-21 -24 -51 -39t-69 -15h-279v495z" />
    <glyph glyph-name="uni044C" unicode="&#x44c;" horiz-adv-x="539" 
d="M188 235l-1 -131h137q32 0 47 20q15 19 15 47q0 25 -15 45q-15 19 -47 19h-136zM66 494h120v-158h159q38 0 69 -14t51 -37q22 -25 32 -54q11 -31 11 -62t-11 -62q-10 -29 -32 -54q-21 -24 -51 -39t-69 -15h-279v495z" />
    <glyph glyph-name="uni044D" unicode="&#x44d;" horiz-adv-x="539" 
d="M240 -13l-3 -1q-58 0 -112 22q-56 23 -93 64l86 72q27 -22 57 -36q29 -13 62 -13q48 0 84 27q37 27 50 72h-197v100h198q-13 48 -49 76q-35 28 -84 28q-34 0 -65 -14q-29 -13 -52 -36l-87 75q38 41 93 62q56 21 111 21q53 0 100 -19q48 -19 84 -54t59 -83q22 -47 22 -107
q0 -59 -22 -106q-23 -49 -58 -81q-36 -33 -84 -51t-100 -18z" />
    <glyph glyph-name="uni044E" unicode="&#x44e;" horiz-adv-x="827" 
d="M523 -13l1 -5q-46 0 -90 15q-43 15 -79 42q-35 27 -60 65q-24 37 -33 86h-76v-194h-119v495h119v-191h78q10 46 36 84q26 39 60 65q34 27 77 42q42 15 87 15q55 0 102 -19q48 -19 84 -54t59 -83q22 -47 22 -107q0 -59 -22 -106q-23 -48 -60 -81q-38 -33 -85 -51
q-48 -18 -101 -18zM524 91v-1q29 0 57 11q26 10 46 30q19 19 30 47t11 60q0 31 -11 61q-10 28 -30 49t-46 33q-27 12 -57 12t-56 -12t-45 -33q-20 -21 -30 -49q-11 -30 -11 -61t11 -59t30 -47q19 -20 45 -30q27 -11 56 -11z" />
    <glyph glyph-name="uni044F" unicode="&#x44f;" horiz-adv-x="567" 
d="M380 267l-2 123h-153q-27 0 -40 -18q-13 -17 -13 -40q0 -25 14 -45t42 -20h152zM378 162l-129 -1l-83 -162h-129l93 182q-39 22 -61 65q-21 42 -21 83q0 29 11 59q11 29 30 53t48 39t66 15h295v-495h-120v162z" />
    <glyph glyph-name="uni0451" unicode="&#x451;" horiz-adv-x="582" 
d="M184 572v-1q-32 0 -54 21q-23 21 -23 56q0 31 23 54q22 22 54 22q29 0 51 -22q23 -23 23 -54q0 -34 -23 -55t-51 -21zM400 571l-1 -1q-31 0 -54 21q-22 21 -22 56q0 31 23 54q22 22 54 22q29 0 51 -22q23 -23 23 -54q0 -34 -23 -55t-51 -21zM290 410h-1q-53 0 -86 -35
q-34 -35 -44 -84l250 9q-13 53 -44 82q-29 28 -75 28zM516 74h-2q-38 -44 -93 -66q-57 -23 -118 -23q-53 0 -102 18t-87 51t-60 81q-23 49 -23 107q0 62 21 111q21 50 57 83t83 51q46 18 98 18q53 0 98 -19q46 -20 81 -57t54 -93q20 -56 18 -128h-384q13 -55 57 -85t102 -30
q74 0 122 51z" />
    <glyph glyph-name="uni0452" unicode="&#x452;" horiz-adv-x="621" 
d="M557 -36l-2 -3q0 -45 -15 -81q-15 -35 -44 -63q-28 -26 -69 -40q-42 -14 -90 -14v108q22 0 39 7q18 8 31 19q13 12 21 29q8 18 8 36v313q0 29 -9 52q-9 22 -24 37t-36 21t-44 6q-41 0 -76 -20q-34 -19 -63 -53v-320h-118v560h-59v83h59v80h118v-80h228v-83h-228v-46
l-6 -86q35 38 80 59t96 21q31 0 69 -11q35 -10 66 -35q29 -23 49 -63q19 -38 19 -96v-337z" />
    <glyph glyph-name="uni0453" unicode="&#x453;" horiz-adv-x="457" 
d="M166 551l72 144h137l-96 -144h-113zM188 385v-385h-121v495h370v-110h-249z" />
    <glyph glyph-name="uni0454" unicode="&#x454;" horiz-adv-x="544" 
d="M505 73l-1 1q-37 -41 -93 -64q-54 -22 -112 -22q-52 0 -100 18t-84 51t-57 81t-21 107t21 107q21 49 57 83q36 35 84 54q47 19 100 19q57 0 111 -21t92 -62l-87 -75q-23 23 -52 36q-31 14 -65 14q-48 -2 -84 -30q-35 -28 -49 -75h198v-100h-197q13 -45 50 -72
q36 -27 85 -27q32 0 61 13q30 13 57 36z" />
    <glyph glyph-name="uni0455" unicode="&#x455;" horiz-adv-x="536" 
d="M64 150h-7q62 -32 121 -45q58 -13 97 -13q35 0 54 13t19 31q-2 22 -21 33t-60 18q-66 13 -112 32q-44 18 -68 39t-33 45t-9 48q-2 33 12 62q14 30 40 50q27 21 66 33t89 12q24 0 54 -3t60 -9q33 -7 57 -16q28 -11 47 -24l-41 -91q-16 9 -38 15q-26 7 -44 11q-30 6 -45 8
q-22 3 -42 3q-36 0 -63 -11q-25 -11 -24 -33q0 -18 17 -30q16 -12 62 -21q125 -27 176 -67q53 -41 53 -99q1 -33 -12 -61t-42 -49t-67 -33q-39 -12 -88 -12q-26 0 -63 5t-66 13q-35 9 -64 22q-30 13 -58 30z" />
    <glyph glyph-name="uni0456" unicode="&#x456;" horiz-adv-x="253" 
d="M126 578h-3q-32 0 -54 22t-22 54t23 53q22 21 54 21q30 0 53 -21t23 -53t-22 -54t-52 -22zM62 495h118v-495h-118v495z" />
    <glyph glyph-name="uni0457" unicode="&#x457;" horiz-adv-x="253" 
d="M18 572v-1q-32 0 -54 21q-23 21 -23 56q0 31 23 54q22 22 54 22q29 0 51 -22q23 -23 23 -54q0 -34 -23 -55t-51 -21zM234 571l-1 -1q-31 0 -54 21q-22 21 -22 56q0 31 23 54q22 22 54 22q29 0 51 -22q23 -23 23 -54q0 -34 -23 -55t-51 -21zM64 493h118v-495h-118v495z
" />
    <glyph glyph-name="uni0458" unicode="&#x458;" horiz-adv-x="253" 
d="M124 578h-3q-32 0 -54 22t-22 54t23 53q22 21 54 21q30 0 53 -21t23 -53t-22 -54t-52 -22zM179 -36v-2q0 -45 -15 -81q-15 -37 -43 -63t-69 -40q-42 -14 -90 -14v108q21 0 38 7q16 7 31 20q13 12 21 29q8 18 8 36v531h119v-531z" />
    <glyph glyph-name="uni0459" unicode="&#x459;" horiz-adv-x="857" 
d="M228 174l2 -1q0 -41 -15 -76q-15 -34 -42 -58q-26 -23 -65 -37q-36 -13 -84 -13v109q34 0 60 21t24 56v320h422v-158h136q38 0 69 -14t51 -37q22 -25 32 -54q11 -31 11 -62t-11 -62q-10 -29 -32 -54q-21 -24 -52 -39q-32 -15 -70 -15h-254v385h-182v-211zM532 234v-131
h113q32 0 47 20t15 47q0 26 -15 45t-47 19h-113z" />
    <glyph glyph-name="uni045A" unicode="&#x45a;" horiz-adv-x="858" 
d="M531 235v-131h113q32 0 47 20q15 19 15 47q0 25 -15 45q-15 19 -46 19h-114zM411 193h-224v-194h-121v495h121v-191h223v191h120v-158h136q38 0 69 -14t51 -37q22 -25 32 -54q11 -31 11 -62t-11 -62q-10 -29 -32 -54q-21 -24 -51 -39t-69 -15h-255v194z" />
    <glyph glyph-name="uni045B" unicode="&#x45b;" 
d="M322 394l-1 1q-41 0 -76 -21t-63 -54v-320h-119v558h-53v77h53v79h119v-79h227v-77h-227v-44l-6 -85q33 36 77 57t98 21q41 0 77 -12q38 -13 65 -37q29 -26 45 -64q17 -40 17 -93v-301h-118v277q0 31 -9 53q-9 23 -25 36q-17 14 -37 21t-44 7z" />
    <glyph glyph-name="uni045C" unicode="&#x45c;" horiz-adv-x="576" 
d="M216 551l72 144h136l-96 -144h-112zM248 190l-60 -61v-129h-121v495h121v-206l204 206h157l-218 -221l233 -274h-154z" />
    <glyph glyph-name="uni045E" unicode="&#x45e;" horiz-adv-x="512" 
d="M167 703v-1q3 -25 26 -48q22 -22 59 -22q36 0 59 21q22 21 27 50h69q-8 -74 -46 -114q-39 -40 -108 -40q-70 0 -109 40q-40 41 -44 114h67zM29 -127h1q28 0 56 14t50 36q22 23 39 51t27 57l-192 463h130l120 -320l123 320h130l-217 -508q-94 -223 -267 -223v110z" />
    <glyph glyph-name="uni045F" unicode="&#x45f;" horiz-adv-x="614" 
d="M370 0l-10 -138h-107l-9 138h-177v495h120v-385h240v385h120v-495h-177z" />
    <glyph glyph-name="uni0490" unicode="&#x490;" horiz-adv-x="534" 
d="M197 563v-563h-123v675h315l12 124h95v-236h-299z" />
    <glyph glyph-name="uni0491" unicode="&#x491;" horiz-adv-x="450" 
d="M187 385v-385h-120v495h243l12 112h98v-222h-233z" />
    <glyph glyph-name="Bdotaccent" unicode="&#x1e02;" horiz-adv-x="698" 
d="M328 741l-1 -1q-32 0 -54 22t-22 55q0 31 23 54q22 22 54 22q29 0 51 -22q23 -23 23 -54q0 -17 -6 -30t-17 -24q-10 -10 -24 -16q-13 -6 -27 -6zM81 674l348 -2q43 0 78 -15q34 -15 58 -40q24 -26 36 -58q12 -33 12 -69q0 -39 -13 -72q-14 -34 -39 -60q48 -23 74 -68
q26 -46 26 -96q0 -38 -13 -73q-14 -36 -39 -63q-25 -26 -63 -43q-36 -16 -87 -16h-378v675zM202 560v-166h207q17 0 33 8t24 19q10 13 14 27q5 17 5 29t-5 29q-4 15 -15 27q-10 11 -27 19q-18 8 -39 8h-197zM202 281l-1 -176h242q21 0 39 8q16 7 27 20t17 29t6 33
q0 35 -21 61q-21 25 -66 25h-243z" />
    <glyph glyph-name="bdotaccent" unicode="&#x1e03;" 
d="M335 741v-1q-31 0 -53 22q-23 23 -23 55q0 31 23 54q22 22 53 22q29 0 51 -22q23 -23 23 -54q0 -17 -6 -30t-17 -24q-10 -10 -24 -16t-27 -6zM332 -14l2 -1q-51 0 -99 20q-47 19 -81 51l-20 -58h-69v714h119v-202l-6 -66q32 28 72 45q42 17 87 17q48 0 92 -19
q45 -19 81 -54t57 -82q21 -48 21 -105t-21 -105t-55 -82q-34 -35 -81 -54q-45 -19 -99 -19zM322 93l-1 3q32 0 59 12q26 12 46 33t30 48q11 28 11 59q0 30 -11 60q-10 28 -30 49t-46 33q-27 12 -58 12t-58 -12q-26 -12 -46 -33t-30 -49q-11 -30 -11 -60q0 -31 11 -61
q10 -28 30 -49t46 -33q27 -12 58 -12z" />
    <glyph glyph-name="Ddotaccent" unicode="&#x1e0a;" horiz-adv-x="753" 
d="M330 741l-1 -1q-31 0 -54 21t-23 56q0 31 23 54q22 22 54 22q29 0 51 -22q23 -23 23 -54q0 -34 -22 -55q-23 -21 -51 -21zM204 562l-1 -450h180q43 0 81 18t65 48t42 71t15 87t-15 87t-42 72t-64 49t-81 18h-180zM80 675l300 3q69 0 129 -27t105 -72q46 -45 71 -107
q26 -63 26 -132q0 -72 -25 -132q-26 -62 -69 -108q-42 -45 -104 -73q-60 -27 -130 -27h-303v675z" />
    <glyph glyph-name="ddotaccent" unicode="&#x1e0b;" 
d="M310 741l-1 -1q-32 0 -54 22t-22 55q0 31 23 54q22 22 54 22q29 0 51 -22q23 -23 23 -54q0 -17 -6 -30t-17 -24q-10 -10 -24 -16q-13 -6 -27 -6zM299 94l-1 -4q31 0 58 12q28 12 47 33q21 22 32 49q12 28 12 61q0 31 -12 60t-31 49q-20 21 -46 33q-27 12 -58 12
q-30 0 -57 -12q-26 -12 -46 -33q-19 -21 -30 -48q-11 -28 -11 -58t11 -60q10 -28 30 -49q19 -21 45 -33t57 -12zM465 57l-3 -3q-38 -35 -82 -54q-46 -20 -95 -20q-51 0 -99 20q-46 20 -81 54q-33 33 -55 83q-21 48 -21 105q0 58 21 106t55 82q35 34 81 54q45 19 97 19
q45 0 85 -18q39 -17 75 -47l-7 69v202h119v-714h-70z" />
    <glyph glyph-name="Ddotbelow" unicode="&#x1e0c;" horiz-adv-x="753" 
d="M205 563l-1 -450h180q44 0 81 18q38 18 65 48t42 71q15 40 15 87t-15 87t-42 72q-27 31 -64 49q-38 18 -81 18h-180zM81 676l300 3q69 0 129 -27t105 -72q45 -46 71 -107q26 -63 26 -132q0 -72 -25 -132q-25 -61 -69 -108q-42 -45 -104 -73q-60 -27 -130 -27h-303v675z
M320 -226v-1q-31 0 -54 23q-22 22 -22 54t22 54t54 22t54 -22t22 -54t-22 -54t-54 -22z" />
    <glyph glyph-name="ddotbelow" unicode="&#x1e0d;" 
d="M300 95l-1 -4q31 0 58 12q28 12 47 33q21 22 32 49q12 29 12 61t-12 60q-12 29 -31 49q-20 21 -46 33q-27 12 -58 12q-30 0 -57 -12q-26 -12 -46 -33t-30 -48q-11 -28 -11 -58t11 -60q10 -28 30 -49t45 -33t57 -12zM466 58l-3 -3q-38 -35 -82 -54q-46 -20 -95 -20
q-51 0 -99 20q-47 19 -81 54q-33 33 -55 83q-21 48 -21 105q0 58 21 106t55 82q34 35 81 54q45 19 97 19q44 0 85 -18q39 -17 75 -47l-7 69v202h119v-714h-70zM299 -237v-1q-31 0 -54 23q-22 22 -22 54t22 54t54 22t54 -22t22 -54t-22 -54t-54 -22z" />
    <glyph glyph-name="Fdotaccent" unicode="&#x1e1e;" horiz-adv-x="595" 
d="M312 741l-1 -1q-32 0 -54 22t-22 55q0 31 23 54q22 22 54 22q29 0 51 -22q23 -23 23 -54q0 -17 -6 -30t-17 -24q-10 -10 -24 -16q-13 -6 -27 -6zM204 255v-256h-123v675h466v-112h-343v-194h323v-113h-323z" />
    <glyph glyph-name="fdotaccent" unicode="&#x1e1f;" horiz-adv-x="303" 
d="M184 753l-1 -1q-32 0 -54 22t-22 55q0 31 23 54q22 22 54 22q29 0 51 -22q23 -23 23 -54q0 -17 -6 -30t-17 -24q-10 -10 -24 -16q-13 -6 -27 -6zM196 392v-394h-119v393h-39v102h39v41q0 94 58 136q59 42 159 42l-10 -102q-44 0 -67 -21t-21 -54v-41h89v-30l-10 -72h-79z
" />
    <glyph glyph-name="Hdotbelow" unicode="&#x1e24;" horiz-adv-x="774" 
d="M569 287h-364v-287h-123v675h123v-275h364v275h123v-675h-123v287zM381 -230v-1q-31 0 -54 23q-22 22 -22 54t22 54t54 22t54 -22t22 -54t-22 -54t-54 -22z" />
    <glyph glyph-name="hdotbelow" unicode="&#x1e25;" horiz-adv-x="615" 
d="M322 394l-1 1q-41 0 -76 -21t-63 -54v-320h-119v714h119v-200l-6 -85q33 36 77 57t98 21q41 0 77 -12q38 -13 65 -37q29 -26 45 -64q17 -40 17 -93v-301h-118v277q0 31 -9 53q-9 23 -25 36q-17 14 -37 21t-44 7zM311 -229l-1 -1q-31 0 -54 23q-22 22 -22 54q0 31 23 54
q22 22 54 22t54 -22t22 -54t-22 -54t-54 -22z" />
    <glyph glyph-name="Mdotaccent" unicode="&#x1e40;" horiz-adv-x="916" 
d="M454 603v-1q-32 0 -54 21q-23 21 -23 56q0 31 23 54q22 22 54 22q29 0 51 -22q23 -23 23 -54q0 -34 -23 -55t-51 -21zM204 471v-472h-123v675h126l251 -456l251 456h126v-675h-123v473l-222 -407h-65z" />
    <glyph glyph-name="mdotaccent" unicode="&#x1e41;" horiz-adv-x="959" 
d="M495 571v-1q-31 0 -54 21t-23 56q0 32 23 53t54 21q29 0 51 -21q23 -21 23 -53q0 -34 -23 -55q-22 -21 -51 -21zM316 393l3 -3q-39 0 -72 -21q-34 -21 -60 -55v-319h-120v495h81l21 -80q72 93 179 93q52 0 99 -24t72 -75q34 47 81 73q46 25 102 25q38 0 74 -12
q37 -12 63 -37q28 -27 44 -64q17 -40 17 -93v-301h-119v277q0 29 -9 52q-9 22 -24 37q-14 14 -35 22q-18 7 -41 7q-38 0 -69 -21q-33 -22 -60 -52v-9v-9v-301h-120v277q0 29 -9 52q-9 22 -24 37q-15 14 -34 22q-18 7 -40 7z" />
    <glyph glyph-name="Ndotaccent" unicode="&#x1e44;" horiz-adv-x="775" 
d="M389 741l-1 -1q-32 0 -54 22t-22 55q0 31 23 54q22 22 54 22q29 0 51 -22q23 -23 23 -54q0 -17 -6 -30t-17 -24q-10 -10 -24 -16t-27 -6zM204 494v-495h-123v675h123l364 -496v496h123v-675h-123z" />
    <glyph glyph-name="ndotaccent" unicode="&#x1e45;" horiz-adv-x="616" 
d="M331 571v-1q-31 0 -53 21q-23 21 -23 56q0 32 23 53q22 21 53 21q29 0 51 -21q23 -21 23 -53q0 -34 -23 -55q-22 -21 -51 -21zM322 393v-1q-42 0 -76 -21t-63 -54v-320h-119v495h80l21 -80q73 93 186 93q41 0 77 -12q38 -13 65 -37q29 -26 45 -64q17 -40 17 -93v-301
h-119v277q0 29 -9 52q-9 22 -25 37q-16 14 -37 22q-20 7 -43 7z" />
    <glyph glyph-name="Pdotaccent" unicode="&#x1e56;" horiz-adv-x="676" 
d="M331 741v-1q-32 0 -54 22q-23 23 -23 55q0 31 23 54q22 22 54 22q29 0 51 -22q23 -23 23 -54q0 -17 -6 -30t-17 -24q-10 -10 -24 -16t-27 -6zM205 562l-2 -255h192q31 0 54 12t38 32q16 21 23 43q8 26 8 46q0 24 -7 45q-8 23 -22 39q-15 17 -37 27q-24 11 -54 11h-193z
M203 195l-1 -195h-123v675h339q53 0 95 -21q43 -21 71 -54q29 -34 44 -75q15 -42 15 -86q0 -43 -15 -87q-15 -45 -43 -78q-29 -35 -70 -57t-96 -22h-216z" />
    <glyph glyph-name="pdotaccent" unicode="&#x1e57;" horiz-adv-x="623" 
d="M330 571l-1 -1q-31 0 -54 21q-22 21 -22 56q0 32 23 53q22 21 54 21q28 0 51 -21t23 -53q0 -34 -23 -55t-51 -21zM320 399l1 3q-30 0 -57 -12q-26 -12 -46 -33q-19 -20 -31 -49q-12 -28 -12 -61q0 -30 11 -60q10 -28 30 -49t46 -33q27 -12 58 -12t58 12q26 12 46 33
t30 48q11 28 11 59q0 30 -11 60q-10 28 -30 49t-46 33q-27 12 -58 12zM184 -234h-122v731h69l20 -58q35 31 81 51q48 20 99 20q54 0 99 -19q46 -19 81 -54q36 -36 56 -82q21 -48 21 -106q0 -56 -20 -105q-19 -47 -54 -82q-34 -34 -81 -54q-45 -19 -97 -19q-49 0 -87 16
q-40 17 -71 42l6 -61v-220z" />
    <glyph glyph-name="Rdotbelow" unicode="&#x1e5a;" horiz-adv-x="694" 
d="M205 563l-1 -230h216q23 0 42 11q18 10 30 27q12 16 18 38q6 21 6 42t-6 41t-18 36q-13 17 -30 26q-18 9 -40 9h-217zM415 220l-212 -3v-222h-123v675h357q49 0 86 -18q38 -18 63 -49q26 -32 39 -70q14 -40 14 -79q0 -31 -7 -59q-8 -30 -21 -57t-33 -51q-19 -23 -45 -40
l124 -249h-132zM350 -235v-1q-31 0 -54 23q-22 22 -22 54t22 54t54 22t54 -22t22 -54t-22 -54t-54 -22z" />
    <glyph glyph-name="rdotbelow" unicode="&#x1e5b;" horiz-adv-x="375" 
d="M64 0l1 494h86l28 -100q38 53 86 83t103 30v-114q-62 0 -108 -27t-78 -69v-297h-118zM126 -231v-1q-31 0 -54 23q-22 22 -22 54t22 54t54 22t54 -22t22 -54t-22 -54t-54 -22z" />
    <glyph glyph-name="Sdotaccent" unicode="&#x1e60;" horiz-adv-x="620" 
d="M324 741v-1q-31 0 -53 22q-23 23 -23 55q0 31 23 54q22 22 53 22q29 0 51 -22q23 -23 23 -54q0 -17 -6 -30t-17 -24q-10 -10 -24 -16q-13 -6 -27 -6zM80 183l-3 -1q67 -41 135 -61q64 -19 120 -19q63 0 90 24t27 62q0 20 -7 33t-23 24q-15 11 -39 18t-57 15
q-85 21 -138 45q-51 24 -82 51q-29 26 -40 57q-10 29 -10 63q0 40 15 74t45 60q31 26 74 41t99 15q33 0 65 -4q33 -4 74 -14q40 -10 75 -25q39 -17 69 -40l-49 -98q-27 18 -57 29q-35 13 -63 20q-32 8 -60 12q-32 5 -48 5q-47 0 -76 -21q-28 -21 -28 -55q0 -13 6 -27
q6 -13 23 -27q16 -13 43 -25q24 -10 68 -22q74 -21 123 -42t78 -45t41 -53t12 -65q0 -47 -18 -85t-51 -63t-78 -39q-47 -14 -102 -14q-77 0 -156 24t-150 75z" />
    <glyph glyph-name="sdotaccent" unicode="&#x1e61;" horiz-adv-x="516" 
d="M275 571l-1 -1q-32 0 -54 21q-23 21 -23 56q0 32 23 53q22 21 54 21q28 0 51 -21t23 -53q0 -34 -22 -55t-51 -21zM63 149h-7q62 -32 121 -45q58 -13 97 -13q35 0 54 13t19 31q-1 23 -21 33t-60 18q-66 13 -112 32q-44 18 -68 39t-33 45t-9 48q-2 33 12 62q14 30 40 50
q27 21 66 33t89 12q24 0 54 -3t60 -9q33 -7 57 -16q28 -11 47 -24l-41 -91q-16 9 -38 15q-26 7 -44 11q-30 6 -45 8q-23 3 -42 3q-36 0 -63 -11q-26 -10 -24 -33q0 -18 17 -30q16 -12 62 -21q125 -27 176 -67q53 -41 53 -99q1 -33 -12 -61t-42 -49t-67 -33q-39 -12 -88 -12
q-26 0 -63 5t-66 13q-35 10 -64 22q-30 13 -58 30z" />
    <glyph glyph-name="Sdotbelow" unicode="&#x1e62;" horiz-adv-x="620" 
d="M80 184l-3 -1q67 -41 135 -61q64 -19 120 -19q63 0 90 24t27 62q0 20 -7 33t-23 24q-15 10 -39 18t-57 15q-85 21 -138 45q-51 24 -82 51q-29 26 -40 57q-10 29 -10 63q0 39 15 74t45 60q31 26 74 41t99 15q33 0 65 -4q33 -4 74 -14q40 -10 75 -25q39 -17 69 -40l-49 -98
q-27 18 -57 29q-35 13 -63 20q-32 7 -60 12q-32 5 -48 5q-47 0 -76 -21q-28 -21 -28 -55q0 -14 6 -27t23 -27q16 -13 43 -25q24 -10 68 -22q74 -21 123 -42t78 -45t41 -53t12 -65q0 -48 -18 -85t-51 -63t-78 -39q-47 -14 -102 -14q-77 0 -156 24t-150 75zM333 -231l-1 -1
q-31 0 -54 23q-22 22 -22 54q0 31 23 54q22 22 54 22t54 -22t22 -54t-22 -54t-54 -22z" />
    <glyph glyph-name="sdotbelow" unicode="&#x1e63;" horiz-adv-x="516" 
d="M64 150h-7q62 -32 121 -45q58 -13 97 -13q35 0 54 13t19 31q-2 22 -21 33t-60 18q-66 13 -112 32q-44 18 -68 39t-33 45t-9 48q-2 33 12 62q14 30 40 50q27 21 66 33t89 12q24 0 54 -3t60 -9q33 -7 57 -16q28 -11 47 -24l-41 -91q-16 9 -38 15q-26 7 -44 11q-30 6 -45 8
q-22 3 -42 3q-36 0 -63 -11q-25 -11 -24 -33q0 -18 17 -30q16 -12 62 -21q125 -27 176 -67q53 -41 53 -99q1 -33 -12 -61t-42 -49t-67 -33q-39 -12 -88 -12q-26 0 -63 5t-66 13q-35 9 -64 22q-30 13 -58 30zM262 -230v-1q-32 0 -55 23q-22 22 -22 54t22 54t55 22
q30 0 52 -22t22 -54t-22 -54t-52 -22z" />
    <glyph glyph-name="Tdotaccent" unicode="&#x1e6a;" horiz-adv-x="616" 
d="M317 741h-1q-32 0 -54 22q-23 23 -23 55q0 31 23 54q22 22 54 22q29 0 51 -22q23 -23 23 -54q0 -33 -22 -55t-51 -22zM370 563v-563h-123v563h-231v112h582v-112h-228z" />
    <glyph glyph-name="tdotaccent" unicode="&#x1e6b;" horiz-adv-x="344" 
d="M150 722h-1q-32 0 -54 22q-23 23 -23 57q0 29 23 52q22 22 54 22q13 0 27 -6t24 -16q11 -11 17 -24q6 -14 6 -28q0 -35 -22 -57t-51 -22zM320 -13l-1 -1q-119 0 -177 54q-59 54 -59 142v211h-54v102h54v121l119 40v-161h108v-87l-12 -15h-96v-204q-2 -42 29 -68t89 -26
v-108z" />
    <glyph glyph-name="Tdotbelow" unicode="&#x1e6c;" horiz-adv-x="616" 
d="M371 563v-563h-123v563h-231v112h582v-112h-228zM315 -230v-1q-31 0 -54 23q-22 22 -22 54t22 54t54 22t54 -22t22 -54t-22 -54t-54 -22z" />
    <glyph glyph-name="tdotbelow" unicode="&#x1e6d;" horiz-adv-x="344" 
d="M321 -13l-1 -1q-118 0 -177 54t-59 142v211h-54v102h54v121l119 40v-161h108v-87l-12 -15h-96v-204q-2 -42 29 -68t89 -26v-108zM188 -231v-1q-31 0 -54 23q-22 22 -22 54t22 54t54 22t54 -22t22 -54t-22 -54t-54 -22z" />
    <glyph glyph-name="Wgrave" unicode="&#x1e80;" horiz-adv-x="1013" 
d="M351 871h136l72 -144h-112zM12 675h133l156 -517l145 517h121l148 -520l154 520h131l-217 -675h-129l-147 521l-146 -521h-131z" />
    <glyph glyph-name="wgrave" unicode="&#x1e81;" horiz-adv-x="826" 
d="M257 696h136l72 -144h-112zM8 495h130l113 -330l113 330h99l113 -330l113 330h130l-197 -495h-93l-116 355l-116 -355h-93z" />
    <glyph glyph-name="Wacute" unicode="&#x1e82;" horiz-adv-x="1013" 
d="M458 727l72 144h137l-96 -144h-113zM12 675h133l156 -517l145 517h121l148 -520l154 520h131l-217 -675h-129l-147 521l-146 -521h-131z" />
    <glyph glyph-name="wacute" unicode="&#x1e83;" horiz-adv-x="826" 
d="M357 551l72 144h137l-96 -144h-113zM8 495h130l113 -330l113 330h99l113 -330l113 330h130l-197 -495h-93l-116 355l-116 -355h-93z" />
    <glyph glyph-name="Wdieresis" unicode="&#x1e84;" horiz-adv-x="1013" 
d="M400 737q-32 0 -54 21q-23 21 -23 54q0 32 23 53q22 21 54 21q28 0 51 -21t23 -53q0 -33 -23 -54t-51 -21zM624 737h-1q-31 0 -54 21q-22 21 -22 54q0 32 23 53q22 21 54 21q28 0 51 -21t23 -53q0 -33 -23 -54t-51 -21zM11 675h133l156 -517l145 517h121l148 -520
l154 520h131l-217 -675h-129l-147 521l-146 -521h-131z" />
    <glyph glyph-name="wdieresis" unicode="&#x1e85;" horiz-adv-x="826" 
d="M300 572l-1 -1q-31 0 -55 21t-24 56q0 32 24 54q23 22 55 22q29 0 51 -22q23 -23 23 -54q0 -34 -22 -55q-23 -21 -51 -21zM515 571l-1 -1q-32 0 -54 21q-23 21 -23 56q0 31 23 54q22 22 54 22q29 0 51 -22q23 -23 23 -54q0 -34 -22 -55t-51 -21zM6 493h130l113 -330
l113 330h99l113 -330l113 330h130l-197 -495h-93l-116 355l-116 -355h-93z" />
    <glyph glyph-name="Zdotbelow" unicode="&#x1e92;" horiz-adv-x="612" 
d="M30 0v83l371 480h-357v112h524v-81l-376 -482h390v-112h-552zM331 -230l-1 -1q-31 0 -54 23q-22 22 -22 54q0 31 23 54q22 22 54 22t54 -22t22 -54t-22 -54t-54 -22z" />
    <glyph glyph-name="zdotbelow" unicode="&#x1e93;" horiz-adv-x="504" 
d="M32 0v102l274 291h-257v102h411v-102l-273 -291h282v-102h-437zM262 -230l-1 -1q-31 0 -54 23q-22 22 -22 54q0 31 23 54q22 22 54 22t54 -22t22 -54t-22 -54t-54 -22z" />
    <glyph glyph-name="Edotbelow" unicode="&#x1eb8;" horiz-adv-x="612" 
d="M82 675h478v-112h-355v-164h335v-113h-335v-174h358v-112h-481v675zM322 -230v-1q-32 0 -55 23q-22 22 -22 54t22 54t55 22q30 0 52 -22t22 -54t-22 -54t-52 -22z" />
    <glyph glyph-name="edotbelow" unicode="&#x1eb9;" horiz-adv-x="571" 
d="M291 412h-1q-53 0 -86 -35q-34 -35 -44 -84l250 9q-13 53 -44 82q-29 28 -75 28zM517 76h-2q-37 -44 -93 -66q-57 -23 -118 -23q-52 0 -102 18t-87 51t-60 81q-23 49 -23 107q0 62 21 111q21 50 57 83t83 51q46 18 98 18q53 0 98 -19q47 -20 81 -57t54 -93t18 -128h-384
q13 -55 57 -85q43 -30 102 -30q74 0 122 51zM289 -230l-3 -1q-31 0 -54 23q-22 22 -22 54q0 31 23 54q22 22 54 22q31 0 53 -22q23 -23 23 -54q0 -32 -22 -54t-52 -22z" />
    <glyph glyph-name="Etilde" unicode="&#x1ebc;" horiz-adv-x="612" 
d="M154 749l-3 -1q2 61 30 89q29 29 66 29q18 0 36 -6q31 -11 38 -13q13 -5 39 -13q20 -6 39 -6q11 0 22 6q10 6 12 23h47q0 -59 -24 -90t-66 -33q-18 0 -38 6q-26 8 -39 13t-39 13q-20 6 -39 6q-12 0 -21 -6t-11 -17h-49zM79 674h478v-112h-355v-164h335v-113h-335v-174
h358v-112h-481v675z" />
    <glyph glyph-name="etilde" unicode="&#x1ebd;" horiz-adv-x="571" 
d="M130 582h-3q2 61 30 89q29 29 66 29q18 0 36 -6q31 -11 38 -13q13 -5 39 -13q20 -6 39 -6q11 0 22 6q10 6 12 23h47q0 -61 -22 -92q-23 -32 -67 -32q-19 0 -39 6q-26 8 -39 13t-39 13q-20 6 -39 6q-12 0 -21 -6t-11 -17h-49zM288 412h-1q-53 0 -86 -35q-34 -35 -44 -84
l250 9q-13 53 -44 82q-29 28 -75 28zM514 76h-2q-38 -44 -93 -66q-57 -23 -118 -23q-53 0 -102 18t-87 51t-60 81q-23 49 -23 107q0 62 21 111q21 50 57 83t83 51t98 18q53 0 98 -19q46 -20 81 -57t54 -93q20 -56 18 -128h-384q13 -55 57 -85t102 -30q74 0 122 51z" />
    <glyph glyph-name="Idotbelow" unicode="&#x1eca;" horiz-adv-x="286" 
d="M91 675h123v-675h-123v675zM145 -230v-1q-32 0 -55 23q-22 22 -22 54t22 54t55 22q30 0 52 -22t22 -54t-22 -54t-52 -22z" />
    <glyph glyph-name="idotbelow" unicode="&#x1ecb;" horiz-adv-x="251" 
d="M127 578h-3q-32 0 -54 22t-22 54t23 53t54 21t53 -21q23 -21 23 -53t-22 -54t-52 -22zM62 495h119v-495h-119v495zM126 -230v-1q-32 0 -55 23q-22 22 -22 54t22 54t55 22q30 0 52 -22t22 -54t-22 -54t-52 -22z" />
    <glyph glyph-name="Odotbelow" unicode="&#x1ecc;" horiz-adv-x="796" 
d="M397 -13l-2 -1q-75 0 -141 27t-114 75q-49 49 -77 111t-28 137q0 70 29 136q28 63 77 112q48 48 114 75t141 27t141 -27t114 -75q49 -49 77 -112q29 -66 29 -136q0 -74 -28 -136t-77 -111q-48 -48 -114 -75t-141 -27zM395 102q47 0 91 18q43 18 75 50t50 75t18 91t-18 91
t-50 75t-75 50t-91 18t-90 -18t-74 -50t-50 -75t-18 -91t18 -91t50 -75t74 -50t90 -18zM401 -231v-1q-31 0 -54 23q-22 22 -22 54t22 54t54 22t54 -22t22 -54t-22 -54t-54 -22z" />
    <glyph glyph-name="odotbelow" unicode="&#x1ecd;" horiz-adv-x="601" 
d="M300 -13l1 -1q-52 0 -100 18q-47 18 -85 51t-60 81q-22 47 -22 107t22 107q23 49 60 83q38 35 85 54t100 19q55 0 102 -19q48 -19 84 -54t59 -83q22 -47 22 -107q0 -59 -22 -106q-22 -48 -60 -81t-85 -51q-48 -18 -101 -18zM301 94v1q29 0 57 11q26 10 46 30q18 18 31 47
q12 27 12 60t-12 61q-12 29 -31 49q-20 21 -46 33q-27 12 -57 12q-31 0 -56 -12t-45 -33t-30 -49q-11 -30 -11 -61t11 -59t30 -47t45 -31t56 -12zM304 -230v-1q-31 0 -54 23q-22 22 -22 54t22 54t54 22t54 -22t22 -54t-22 -54t-54 -22z" />
    <glyph glyph-name="Udotbelow" unicode="&#x1ee4;" horiz-adv-x="737" 
d="M195 675v-394q0 -46 15 -79q15 -34 39 -56t56 -33q33 -11 68 -11q34 0 67 11q32 11 54 33t36 56q13 32 13 80v392h123v-401q0 -70 -21 -124t-60 -90t-93 -54t-118 -18q-66 0 -121 18t-96 54t-63 90q-22 53 -22 125v401h123zM368 -232v-1q-31 0 -54 23q-22 22 -22 54
t22 54t54 22t54 -22t22 -54t-22 -54t-54 -22z" />
    <glyph glyph-name="udotbelow" unicode="&#x1ee5;" horiz-adv-x="607" 
d="M440 79l-1 -3q-75 -92 -182 -92q-39 0 -74 13q-36 14 -64 40q-29 27 -45 69q-17 43 -17 100v287h119v-270q0 -63 33 -93t83 -30q42 0 73 21t57 54v320h119v-495h-80zM306 -233v-1q-32 0 -55 23q-22 22 -22 54t22 54t55 22q30 0 52 -22t22 -54t-22 -54t-52 -22z" />
    <glyph glyph-name="Ygrave" unicode="&#x1ef2;" horiz-adv-x="695" 
d="M224 871h135l72 -144h-111zM409 0h-123v230l-288 445h141l210 -344l210 344h138l-288 -445v-230z" />
    <glyph glyph-name="ygrave" unicode="&#x1ef3;" horiz-adv-x="515" 
d="M111 696h137l72 -144h-113zM29 -126h1q28 0 56 14t50 36t39 51t27 57l-192 463h130l120 -320l123 320h130l-217 -508q-94 -223 -267 -223v110z" />
    <glyph glyph-name="Ytilde" unicode="&#x1ef8;" horiz-adv-x="695" 
d="M202 749l-2 -1q2 61 30 89q29 29 66 29q17 0 35 -6q31 -11 38 -13q13 -5 39 -13q20 -6 39 -6q11 0 21 6t12 23h47q0 -59 -24 -90t-65 -33q-18 0 -38 6q-26 8 -39 13t-39 13q-20 6 -39 6q-27 0 -32 -23h-49zM407 -1h-123v230l-288 445h141l210 -344l210 344h138l-288 -445
v-230z" />
    <glyph glyph-name="ytilde" unicode="&#x1ef9;" horiz-adv-x="515" 
d="M88 582q2 61 30 89q29 29 66 29q18 0 36 -6q24 -8 36 -13t38 -13q20 -6 39 -6q11 0 22 6q10 6 12 23h47q0 -60 -23 -92t-66 -32q-19 0 -39 6q-26 8 -39 13t-39 13q-20 6 -39 6q-12 0 -21 -6t-11 -17h-49zM29 -126h1q28 0 56 14t50 36t39 51t27 57l-192 463h130l120 -320
l123 320h130l-217 -508q-94 -223 -267 -223v110z" />
    <glyph glyph-name="endash" unicode="&#x2013;" horiz-adv-x="600" 
d="M59 189v108h483v-108h-483z" />
    <glyph glyph-name="emdash" unicode="&#x2014;" horiz-adv-x="802" 
d="M59 189v108h684v-108h-684z" />
    <glyph glyph-name="quoteleft" unicode="&#x2018;" horiz-adv-x="241" 
d="M119 407h2q-34 0 -57 26q-22 25 -22 62q0 52 25 99q25 48 84 93l24 -25q-21 -27 -33 -49q-14 -25 -21 -49q34 -2 56 -25q23 -25 23 -55q0 -32 -24 -54q-25 -23 -57 -23z" />
    <glyph glyph-name="quoteright" unicode="&#x2019;" horiz-adv-x="239" 
d="M70 432l-1 -2q21 27 33 49q13 23 21 50q-34 2 -56 24q-23 23 -23 57q0 31 23 54t57 23t57 -26q22 -25 22 -63q0 -51 -25 -98q-26 -48 -84 -93z" />
    <glyph glyph-name="quotesinglbase" unicode="&#x201a;" horiz-adv-x="250" 
d="M74 -104h2q19 25 30 46q12 23 18 46q-30 1 -52 23q-21 21 -21 53t22 53q23 21 54 21q32 0 53 -25t21 -60q0 -48 -24 -93q-24 -44 -81 -88z" />
    <glyph glyph-name="quotedblleft" unicode="&#x201c;" horiz-adv-x="441" 
d="M320 407l-3 2q-34 0 -57 26q-22 25 -22 62q0 52 25 99q25 48 84 93l24 -25q-16 -21 -23 -33q-12 -20 -17 -31q-4 -6 -7 -16q-4 -12 -5 -19h1q34 0 56 -24q23 -25 23 -57q0 -31 -23 -54t-56 -23zM117 409l-1 -1q-34 0 -57 26q-22 25 -22 62q0 52 25 99q26 48 84 93l24 -25
q-5 -7 -13.5 -18.5t-10.5 -15.5q-11 -16 -18 -31q-3 -5 -7 -15q-2 -6 -4 -16q35 0 57 -24q23 -25 23 -57q0 -31 -23 -54t-57 -23z" />
    <glyph glyph-name="quotedblright" unicode="&#x201d;" horiz-adv-x="439" 
d="M70 432l1 -1q17 22 26 35q11 15 18 33q6 13 9 30q-34 1 -57 24t-23 57q0 31 23 54t57 23t57 -26q22 -25 22 -63q0 -51 -25 -98q-26 -48 -84 -93zM270 431v-1q16 20 27 36q11 17 18 34q6 14 9 27q-33 0 -57 24t-24 58q0 31 24 54q25 23 57 23q34 0 57 -26q22 -25 22 -63
q0 -51 -25 -98q-26 -48 -84 -93z" />
    <glyph glyph-name="quotedblbase" unicode="&#x201e;" horiz-adv-x="442" 
d="M74 -104h2q19 25 30 46q12 23 18 46q-30 1 -52 23q-21 21 -21 53t22 53q23 21 54 21q32 0 53 -25t21 -60q0 -48 -24 -93q-24 -44 -81 -88zM267 -104h3q19 25 30 46q13 24 17 46q-30 1 -52 23q-21 21 -21 53t23 53t54 21q32 0 53 -25t21 -60q0 -48 -24 -93
q-24 -44 -81 -88z" />
    <glyph glyph-name="dagger" unicode="&#x2020;" horiz-adv-x="552" 
d="M215 342h-185v113h185v259h122v-259h184v-113h-184v-592h-122v592z" />
    <glyph glyph-name="daggerdbl" unicode="&#x2021;" horiz-adv-x="588" 
d="M234 -3h-185v113h185v244h-185v113h185v247h121v-247h185v-113h-185v-244h185v-113h-185v-247h-121v247z" />
    <glyph glyph-name="bullet" unicode="&#x2022;" horiz-adv-x="388" 
d="M72 264l-1 -1q0 25 9 48q9 22 26 39t39 26q23 9 48 9t48 -9q22 -9 39 -26t26 -39q9 -23 9 -48t-9 -48q-9 -22 -26 -39q-16 -16 -39 -25t-48 -9t-48 9q-22 9 -39 26q-16 16 -25 39q-9 22 -9 48z" />
    <glyph glyph-name="ellipsis" unicode="&#x2026;" horiz-adv-x="654" 
d="M531 -13l-4 -2q-32 0 -55 23q-22 22 -22 54q0 31 23 54q22 22 56 22q15 0 28 -6q14 -6 24 -16q11 -11 17 -24t6 -29q0 -32 -22 -54t-51 -22zM324 -15l-1 -1q-31 0 -54 23q-22 22 -22 54q0 31 23 54q22 22 54 22t54 -22t22 -54t-22 -54t-54 -22zM120 -16v-1q-31 0 -54 23
q-22 22 -22 54t22 54t54 22t54 -22t22 -54t-22 -54t-54 -22z" />
    <glyph glyph-name="perthousand" unicode="&#x2030;" horiz-adv-x="1105" 
d="M33 533q0 33 12 61t33 49t51 33t65 12q36 0 66 -12t51 -33t33 -49q12 -29 12 -61q0 -33 -12 -62t-33 -50t-51 -33t-66 -12q-39 0 -69 12t-51 33q-20 20 -31 50q-10 27 -10 62zM526 675h75l-390 -675h-75zM115 531l-1 -2q0 -37 23 -57q22 -19 54 -19t56 21t24 56
q0 38 -24 57q-25 20 -55 20q-32 0 -54 -21q-23 -21 -23 -55zM386 142q0 32 12 61q12 28 33 49t51 33t65 12q36 0 66 -12t51 -33t33 -49t12 -61q0 -34 -12 -62q-12 -29 -33 -50t-51 -33t-66 -12q-39 0 -69 12t-51 33q-20 20 -31 50q-10 27 -10 62zM751 142h-1q0 32 12 61
q12 28 33 49t51 33t65 12q36 0 66 -12t51 -33t33 -49q12 -29 12 -61q0 -34 -12 -62q-12 -29 -33 -50t-51 -33t-66 -12q-38 0 -68 12t-51 33q-20 20 -31 50q-10 27 -10 62zM545 64l-1 -1q32 0 56 21t24 56q0 38 -24 57q-25 20 -55 20q-31 0 -54 -21t-23 -56q0 -37 23 -57
q22 -19 54 -19zM909 63l1 -1q32 0 56 21t24 56q0 37 -24 57q-25 20 -55 20q-31 0 -55 -21t-24 -56q0 -37 23 -57q22 -19 54 -19z" />
    <glyph glyph-name="guilsinglleft" unicode="&#x2039;" horiz-adv-x="318" 
d="M45 182v138l218 158v-125l-155 -102l155 -98v-128z" />
    <glyph glyph-name="guilsinglright" unicode="&#x203a;" horiz-adv-x="319" 
d="M55 153l155 99l-155 101v125l219 -158v-138l-219 -157v128z" />
    <glyph glyph-name="fraction" unicode="&#x2044;" horiz-adv-x="118" 
d="M-173 0l372 675h93l-372 -675h-93z" />
    <glyph glyph-name="zero.sups" unicode="&#x2070;" horiz-adv-x="385" 
d="M192 331v-1q-32 0 -63 11q-29 10 -52 33q-22 22 -36 56q-13 32 -13 77q0 46 13 78q14 34 36 56q23 23 52 33q31 11 63 11q33 0 64 -11q29 -10 52 -33q22 -22 36 -56q13 -32 13 -78q0 -45 -13 -77t-36 -55t-52 -33q-31 -11 -64 -11zM192 408l-2 -2q29 0 50 26t21 74
q0 50 -21 75q-21 26 -49 26t-48 -26q-19 -25 -19 -75q0 -47 20 -73q19 -25 48 -25z" />
    <glyph glyph-name="four.sups" unicode="&#x2074;" horiz-adv-x="346" 
d="M193 579l-82 -100h82v100zM284 405v-65h-91v65h-173v74l167 197h97v-197h35v-74h-35z" />
    <glyph glyph-name="five.sups" unicode="&#x2075;" horiz-adv-x="331" 
d="M161 332h4q-34 0 -70 9q-35 9 -70 30l37 58q31 -15 51 -20q23 -6 45 -6q33 0 48 12t15 32q0 18 -24 30t-69 12q-20 0 -39 -3q-24 -4 -36 -7l-8 -2l20 199h226l-9 -74h-141l-5 -41q3 1 9 1h8q70 0 111 -31q42 -31 42 -79q0 -21 -9 -42t-27 -39q-17 -17 -45 -28t-64 -11z
" />
    <glyph glyph-name="six.sups" unicode="&#x2076;" horiz-adv-x="351" 
d="M321 453l-3 1q0 -30 -12 -53t-32 -38q-21 -16 -45 -23t-54 -7q-31 0 -58 9q-28 9 -47 27q-18 17 -31 47q-12 28 -12 66q0 56 15 95q15 38 41 63q25 24 62 36q36 12 76 12q19 0 43 -3q21 -3 53 -11l-27 -75q-22 8 -36 11q-16 3 -33 3q-32 0 -55 -13q-25 -14 -35 -48
q35 11 55 11q57 0 96 -27t39 -83zM172 408v-2q20 0 36 11q15 11 15 30t-15 30q-14 10 -37 10q-20 0 -36 -11q-15 -10 -15 -27q0 -20 16 -30q17 -11 36 -11z" />
    <glyph glyph-name="seven.sups" unicode="&#x2077;" horiz-adv-x="327" 
d="M42 340l149 262h-168v74h302l-191 -336h-92z" />
    <glyph glyph-name="eight.sups" unicode="&#x2078;" horiz-adv-x="348" 
d="M179 331l-3 -3q-31 0 -58 6t-47 20t-32 33t-12 45q0 30 17 50q16 20 45 30q-21 10 -33 29q-12 18 -12 44q0 47 38 73q37 25 92 25q27 0 51 -6t42 -18q17 -11 28 -30t11 -42q0 -25 -12 -43q-12 -17 -33 -28q26 -10 43 -30q16 -19 16 -51q0 -47 -39 -76q-38 -28 -102 -28z
M172 551q16 0 30 8q13 7 13 21t-13 21q-14 8 -30 8t-30 -8q-13 -7 -13 -21t13 -21q14 -8 30 -8zM172 406h-1q23 0 38 9t15 25t-15 25t-37 9t-37 -9t-15 -25t15 -25t37 -9z" />
    <glyph glyph-name="nine.sups" unicode="&#x2079;" horiz-adv-x="351" 
d="M176 612l2 1q-23 0 -37 -10q-15 -11 -15 -30t15 -30q14 -10 37 -10q19 0 35 11q15 10 15 27q0 20 -16 30q-17 11 -36 11zM130 333l-6 -5q-19 0 -43 3q-19 2 -52 11l27 75q17 -7 36 -10q17 -3 35 -3q30 1 55 14q24 12 35 47q-33 -11 -55 -11q-30 0 -52 7q-24 7 -42 21
q-19 14 -29 34t-10 49q0 31 12 53q12 23 32 38q21 16 45 23q27 8 54 8q31 0 58 -9t48 -27t33 -46q12 -29 12 -66q0 -56 -15 -95q-15 -38 -42 -64t-61 -36q-36 -11 -75 -11z" />
    <glyph glyph-name="n.sups" unicode="&#x207f;" horiz-adv-x="425" 
d="M221 587h-3q-22 0 -40 -9q-20 -10 -35 -25v-213h-104v337h68l18 -48q50 59 123 59q26 0 52 -9q27 -9 45 -25t31 -44q12 -27 12 -64v-206h-105v183q0 33 -18 48q-17 14 -44 16z" />
    <glyph glyph-name="Euro" unicode="&#x20ac;" horiz-adv-x="757" 
d="M464 -13l-2 -3q-52 0 -103 17q-47 16 -91 47q-41 29 -73 72q-30 40 -49 92h-113l26 73h69q-4 20 -4 50q0 21 3 42h-95l26 73h85q17 52 48 95t74 75q41 31 93 49q51 18 106 18q73 0 136 -30q64 -30 110 -81l-87 -83q-29 38 -70 57q-43 20 -88 20q-59 0 -108 -33t-76 -87
h207l-26 -73h-206q-3 -21 -3 -42q0 -9 2 -25l3 -24h204l-26 -73h-151q29 -50 75 -80t104 -30q45 0 86 19q43 20 71 55l85 -84q-46 -49 -108 -78q-60 -28 -134 -28z" />
    <glyph glyph-name="uni2116" unicode="&#x2116;" horiz-adv-x="1049" 
d="M855 282v1q-35 0 -63 12t-48 33t-30 48q-11 28 -11 59t11 59q10 26 32 48q21 21 48 33t60 12q32 0 61 -12q28 -12 49 -33q22 -22 32 -48q11 -28 11 -58t-11 -60q-10 -28 -30 -49t-48 -33t-63 -12zM855 368l-1 -1q26 0 44 18t18 47q0 32 -18 48q-19 17 -44 17t-43 -18
t-18 -47q0 -32 18 -48q17 -16 44 -16zM193 485v-485h-123v675h123l332 -486v486h123v-675h-123zM1006 244v-102h-303v102h303z" />
    <glyph glyph-name="trademark" unicode="&#x2122;" horiz-adv-x="808" 
d="M145 640h-112v35h258l-5 -35h-106v-342h-35v342zM368 298v377h35l149 -310l146 310h35v-377h-35v302l-126 -271h-39l-130 273v-304h-35z" />
    <glyph glyph-name="minus" unicode="&#x2212;" horiz-adv-x="538" 
d="M62 304h413v-113h-413v113z" />
    <glyph glyph-name="notequal" unicode="&#x2260;" horiz-adv-x="519" 
d="M229 169l-62 -169h-102l62 169h-75v113h117l42 115h-159v113h201l61 165h102l-61 -165h110v-113h-152l-42 -115h194v-113h-236z" />
    <glyph glyph-name="lessequal" unicode="&#x2264;" horiz-adv-x="537" 
d="M53 281v52l424 160v-90l-278 -97l277 -96v-89zM53 0v79h423v-79h-423z" />
    <glyph glyph-name="greaterequal" unicode="&#x2265;" horiz-adv-x="537" 
d="M61 210l277 96l-278 97v90l424 -160v-52l-423 -160v89zM484 0h-423v79h423v-79z" />
    <glyph glyph-name="apple" unicode="&#xf8ff;" horiz-adv-x="696" 
d="M60 288l-8 -8q0 59 23 113q22 53 62 92t92 62q54 23 113 23q62 0 113 -22q54 -23 92 -61q40 -40 62 -91q23 -54 23 -112q0 -61 -22 -112q-22 -52 -61 -91q-38 -39 -91 -61q-51 -22 -112 -22q-58 0 -112 23q-51 22 -91 62q-38 38 -61 92q-22 51 -22 113zM403 107l2 4
l-49 10v189h27q29 0 41 -18t12 -41q0 -21 -9 -40t-37 -19h-14v-7h18q32 0 51 18q20 18 20 53q0 34 -21 49t-55 15h-34v75l102 -5l17 -54l11 2l-5 73h-282l-6 -73l11 -2l18 54l102 5v-272l-49 -10l-2 -6h131z" />
    <glyph glyph-name="acute.case" horiz-adv-x="271" 
d="M49 727l72 144h137l-96 -144h-113z" />
    <glyph glyph-name="breve.case" horiz-adv-x="369" 
d="M98 879q4 -26 27 -49q22 -22 57 -22q36 0 59 21q22 21 27 50h69q-8 -75 -46 -115q-39 -40 -108 -40t-108 40q-40 41 -44 115h67z" />
    <glyph glyph-name="caron.case" horiz-adv-x="379" 
d="M11 870h112l66 -99l66 99h113l-90 -144h-177z" />
    <glyph glyph-name="circumflex.case" horiz-adv-x="379" 
d="M189 826l-66 -99h-112l96 144h165l96 -144h-113z" />
    <glyph glyph-name="doublegrave.case" horiz-adv-x="405" 
d="M31 871h124l54 -144h-100zM196 871h125l54 -144h-101z" />
    <glyph glyph-name="dieresis.case" horiz-adv-x="437" 
d="M108 737q-32 0 -54 21q-23 21 -23 54q0 32 23 53q22 21 54 21q28 0 51 -21t23 -53q0 -33 -23 -54t-51 -21zM332 737h-1q-31 0 -54 21q-22 21 -22 54q0 32 23 53q22 21 54 21q28 0 51 -21t23 -53q0 -33 -23 -54t-51 -21z" />
    <glyph glyph-name="grave.case" horiz-adv-x="271" 
d="M31 871h136l72 -144h-112z" />
    <glyph glyph-name="invertedbreve.case" horiz-adv-x="369" 
d="M31 724l-2 -1q4 73 44 114q39 41 108 41t108 -40q40 -41 47 -114h-69q-5 29 -27 50t-58 21q-35 0 -57 -22q-23 -23 -27 -49h-67z" />
    <glyph glyph-name="macron.case" horiz-adv-x="375" 
d="M31 835h314v-90h-314v90z" />
    <glyph glyph-name="ring.case" horiz-adv-x="309" 
d="M31 842l-3 -2q0 49 35 82t90 33q27 0 50 -9t39 -24q17 -16 26 -36q9 -21 9 -45q0 -26 -9 -47q-9 -22 -25 -36q-17 -15 -39 -24t-49 -9q-55 0 -90 33q-34 33 -34 84zM153 787l-1 -1q19 0 35 14q15 14 15 38t-15 37q-14 13 -34 13q-22 0 -36 -13q-15 -13 -15 -36
q0 -25 15 -39q14 -13 36 -13z" />
    <glyph glyph-name="tilde.case" horiz-adv-x="365" 
d="M19 749l-3 -1q2 61 30 89q29 29 66 29q18 0 36 -6q31 -11 38 -13q13 -5 39 -13q19 -6 39 -6q12 0 22 6t12 23h47q0 -59 -24 -90t-66 -33q-19 0 -38 6q-26 8 -39 13t-39 13q-19 6 -39 6q-12 0 -21 -6t-11 -17h-49z" />
    <glyph glyph-name="dotaccent.case" horiz-adv-x="214" 
d="M108 741v-1q-32 0 -54 22q-23 23 -23 55q0 31 23 54q22 22 54 22q29 0 51 -22q23 -23 23 -54q0 -17 -6 -30t-17 -24q-10 -10 -24 -16q-13 -6 -27 -6z" />
    <glyph glyph-name="subperiod" horiz-adv-x="200" 
d="M101 -230l-1 -1q-31 0 -54 23q-22 22 -22 54q0 31 23 54q22 22 54 22t54 -22t22 -54t-22 -54t-54 -22z" />
    <glyph glyph-name="Euro.smcp" horiz-adv-x="589" 
d="M362 -13h-5q-42 0 -84 14q-38 13 -73 38q-33 24 -57 57t-36 72h-76l18 52h47v12v12v14q0 4 2 14h-66l16 47h59q12 41 36 75t57 60q33 25 74 39q42 14 84 14q60 0 108 -22q49 -22 85 -60l-84 -77q-18 26 -46 39q-30 14 -60 14q-41 0 -72 -22q-32 -23 -50 -57h137l-16 -47
h-135q-3 -13 -3 -27v-13q0 -4 2 -12h135l-18 -52h-99q19 -34 51 -55q31 -21 69 -21q28 0 57 12t48 36l83 -77q-35 -37 -84 -58q-48 -21 -104 -21z" />
    <glyph glyph-name="subcomma" horiz-adv-x="202" 
d="M50 -305v1q18 25 29 45q13 24 17 46q-30 1 -52 23q-21 21 -21 53q0 31 23 54q22 22 54 22q17 0 30 -7q14 -8 24 -19t16 -27q6 -15 6 -33q0 -47 -24 -93t-80 -90z" />
    <glyph glyph-name="a.alt" 
d="M304 95l-1 -4q31 0 56 12t45 33t30 49q11 30 11 60q0 31 -11 61q-10 28 -30 49t-45 33t-56 12q-32 0 -59 -12q-26 -12 -46 -33q-19 -20 -31 -49q-12 -28 -12 -60q0 -31 12 -58q12 -28 31 -48q19 -21 47 -33q27 -12 59 -12zM466 61l-2 -1q-35 -35 -79 -57t-101 -22
q-52 0 -97 19q-47 20 -81 54q-33 33 -55 83q-21 48 -21 105t21 105q21 49 57 83q36 35 82 54q48 20 99 20t99 -20q47 -20 83 -54l16 61h70v-495h-70z" />
    <glyph glyph-name="a.smcp" horiz-adv-x="562" 
d="M281 377l-69 -178h138zM392 93h-221l-37 -93h-126l209 495h127l209 -495h-125z" />
    <glyph glyph-name="a.sups" horiz-adv-x="389" 
d="M167 404h-1q22 0 42 6t39 18v56l-70 -11q-22 -3 -36 -10q-15 -7 -15 -28q0 -13 11 -22t30 -9zM269 378h-4q-32 -25 -62 -35q-31 -11 -67 -11q-59 0 -91 26q-31 25 -31 72q0 50 36 75t96 30l100 9v8q0 23 -22 35t-60 12q-25 0 -55 -3q-28 -3 -59 -11l-18 80q39 12 70 17
q36 6 74 6q86 0 131 -33t45 -92v-223h-62z" />
    <glyph glyph-name="aacute.alt" 
d="M242 551l72 144h137l-96 -144h-113zM304 95l-1 -4q31 0 56 12t45 33t30 49q11 30 11 60q0 31 -11 61q-10 28 -30 49t-45 33t-56 12q-32 0 -59 -12q-26 -12 -46 -33q-19 -20 -31 -49q-12 -28 -12 -60q0 -31 12 -58q12 -28 31 -48q19 -21 47 -33q27 -12 59 -12zM466 61
l-2 -1q-35 -35 -79 -57t-101 -22q-52 0 -97 19q-47 20 -81 54q-33 33 -55 83q-21 48 -21 105t21 105q21 49 57 83q36 35 82 54q48 20 99 20t99 -20q47 -20 83 -54l16 61h70v-495h-70z" />
    <glyph glyph-name="aacute.smcp" horiz-adv-x="562" 
d="M240 551l72 144h136l-96 -144h-112zM281 377l-69 -178h138zM392 93h-221l-37 -93h-126l209 495h127l209 -495h-125z" />
    <glyph glyph-name="acute.smcp" horiz-adv-x="265" 
d="M28 551l72 144h137l-96 -144h-113z" />
    <glyph glyph-name="abreve.alt" 
d="M220 703l-4 2q2 -13 9 -27q8 -14 19 -24t27 -16q15 -6 33 -6q38 0 60 21t27 50h68q-8 -74 -46 -114q-39 -40 -108 -40t-108 40q-40 41 -44 114h67zM300 97l-1 -4q31 0 56 12t45 33t30 49q11 30 11 60q0 31 -11 61q-10 28 -30 49t-45 33q-26 12 -56 12q-32 0 -59 -12
q-26 -12 -46 -33q-19 -20 -31 -49q-12 -28 -12 -60q0 -31 12 -58q12 -28 31 -48q19 -21 47 -33q27 -12 59 -12zM462 63l-2 -1q-35 -35 -79 -57t-101 -22q-52 0 -97 19q-47 20 -81 54q-33 33 -55 83q-21 48 -21 105t21 105q21 49 57 83q36 35 82 54q48 20 99 20t99 -20
q47 -20 83 -54l16 61h70v-495h-70z" />
    <glyph glyph-name="abreve.smcp" horiz-adv-x="562" 
d="M205 703l-1 2q2 -13 9 -27q8 -14 19 -24t27 -16q15 -6 32 -6q35 0 57 21t27 50h69q-8 -74 -46 -114q-39 -40 -108 -40t-108 40q-40 41 -44 114h67zM280 379l-69 -178h138zM391 95h-221l-37 -93h-126l209 495h127l209 -495h-125z" />
    <glyph glyph-name="breve.smcp" horiz-adv-x="369" 
d="M98 703l-1 2q1 -13 9 -27t18 -24q9 -9 26 -16q15 -6 32 -6q36 0 59 21q22 21 27 50h69q-8 -74 -46 -114q-39 -40 -108 -40t-108 40q-40 41 -44 114h67z" />
    </font>
</defs>
</svg>
