<svg xmlns="http://www.w3.org/2000/svg" width="31" height="26" viewBox="0 0 31 26"><path fill="#bbb" d="M13.59 21A2.54 2.54 0 0 0 11 23.47a2.54 2.54 0 0 0 2.59 2.47 2.54 2.54 0 0 0 2.59-2.47A2.54 2.54 0 0 0 13.59 21zm0 3.56c-.63 0-1.14-.49-1.14-1.09 0-.6.51-1.09 1.14-1.09.63 0 1.15.49 1.15 1.09 0 .6-.52 1.09-1.15 1.09zM22.59 21A2.54 2.54 0 0 0 20 23.47a2.54 2.54 0 0 0 2.59 2.47 2.54 2.54 0 0 0 2.59-2.47A2.54 2.54 0 0 0 22.59 21zm0 3.56c-.63 0-1.14-.49-1.14-1.09 0-.6.51-1.09 1.14-1.09.63 0 1.15.49 1.15 1.09 0 .6-.52 1.09-1.15 1.09zM23.21 8H12.73c-.4 0-.73.29-.73.64 0 .36.33.65.73.65h10.48c.41 0 .74-.29.74-.65 0-.35-.33-.64-.74-.64zM22.09 12h-9.36c-.4 0-.73.29-.73.64 0 .36.33.65.73.65h9.36c.4 0 .73-.29.73-.65 0-.35-.33-.64-.73-.64z"/><path fill="#bbb" d="M30.2 4.98a1.5 1.5 0 0 0-1.12-.51H6.49l-.45-2.11c-.1-.44-.41-.81-.84-.99L2.01.06a.74.74 0 0 0-.95.36c-.16.35.01.75.38.91l3.18 1.31 3.51 16.24c.13.64.73 1.1 1.42 1.1h17.36c.4 0 .73-.31.73-.69 0-.38-.33-.69-.73-.69H9.55l-.43-1.97h17.93c.68 0 1.28-.47 1.42-1.11l2.03-9.38c.08-.41-.02-.83-.3-1.16zm-3.15 10.26H8.82L6.79 5.86h22.29z"/></svg>