<?xml version="1.0" encoding="utf-8"?>
<!-- Generator: Adobe Illustrator 19.0.0, SVG Export Plug-In . SVG Version: 6.00 Build 0)  -->
<svg version="1.1" id="Шар_1" xmlns="http://www.w3.org/2000/svg" xmlns:xlink="http://www.w3.org/1999/xlink" x="0px" y="0px"
	 viewBox="-198 381 215 45.3" style="enable-background:new -198 381 215 45.3;" xml:space="preserve">
<style type="text/css">
	.st0{fill:#EE474D;}
	.st1{fill:#FFFFFF;}
</style>
<path class="st0" d="M-13.8,381.5h10.7l7.3,17.2h0.3l0-2.6c0-0.9,0-1.8,0.1-2.6c0.1-0.9,0.1-1.8,0.3-2.6l1.4-9.3H17l-4.8,31H1.5
	l-7.2-16.3h-0.3c0,1.1,0,2.1,0,3.1c0,1-0.1,2.1-0.3,3.1l-1.6,10.1h-10.7L-13.8,381.5z M-36,391.2c-1.7,0-3.3,0.6-4.5,1.8
	c-1.2,1.1-2,2.6-2.2,4.3c-0.2,1-0.1,2.1,0.3,3.1c0.3,0.9,0.9,1.6,1.7,2.1s1.7,0.8,2.9,0.8c1.1,0,2.2-0.3,3.1-0.8
	c0.9-0.5,1.7-1.2,2.3-2.1c0.6-0.9,1.1-2,1.2-3.1c0.1-0.8,0.1-1.6-0.1-2.3c-0.1-0.7-0.4-1.4-0.8-1.9c-0.4-0.6-1-1-1.6-1.3
	C-34.4,391.3-35.2,391.2-36,391.2L-36,391.2z M-34.4,381c1.9,0,3.6,0.3,5.2,0.7c1.5,0.5,3,1.2,4.3,2.1c1.3,0.9,2.3,2,3.2,3.4
	c0.8,1.3,1.4,2.8,1.7,4.5c0.3,1.7,0.3,3.5,0,5.4c-0.3,2-0.9,3.8-1.7,5.5c-0.8,1.6-1.8,3.1-3.1,4.4c-1.2,1.3-2.6,2.4-4.2,3.3
	c-4.8,2.7-10.4,3.4-15.7,2c-1.6-0.4-3-1.1-4.3-2c-2.6-1.8-4.3-4.6-4.9-7.7c-0.3-1.8-0.3-3.7,0-5.5c0.9-5.6,4.2-10.4,9.1-13.2
	C-41.7,382-38.1,381-34.4,381z M-66.7,381.5h11.1l-4.8,31h-11.2L-66.7,381.5z M-95,401.4l0.5,0.5c0.6,0.5,1.2,1,1.9,1.4
	c0.7,0.4,1.4,0.8,2.2,1c0.8,0.3,1.6,0.4,2.4,0.4c0.7,0,1.3-0.1,1.9-0.4c0.3-0.1,0.6-0.3,0.8-0.6c0.2-0.2,0.4-0.5,0.4-0.9
	c0.1-0.3,0-0.6-0.1-0.8c-0.1-0.2-0.3-0.4-0.5-0.5c-0.2-0.1-0.5-0.2-0.8-0.3l-0.8-0.2l-2.2-0.4c-1-0.2-2-0.5-2.9-0.9
	c-0.9-0.4-1.6-1-2.3-1.6c-0.6-0.7-1.1-1.5-1.3-2.4c-0.3-1.1-0.3-2.1-0.1-3.2c0.2-1.5,0.7-2.8,1.4-4c0.7-1.2,1.5-2.3,2.5-3.2
	c1-0.9,2.1-1.7,3.3-2.3c1.2-0.6,2.5-1.1,3.8-1.4c3-0.7,6-0.6,9,0.2c1.5,0.5,3,1.1,4.4,2l-4.3,7.9c-0.6-0.4-1.2-0.8-1.8-1.2
	c-1.3-0.7-2.8-1.1-4.3-1.1c-0.3,0-0.7,0-1.1,0.1s-0.7,0.3-1,0.5c-0.3,0.2-0.5,0.6-0.6,1c0,0.2,0,0.5,0.1,0.7
	c0.1,0.2,0.3,0.3,0.5,0.4s0.4,0.2,0.7,0.2l0.7,0.2l2.4,0.6c1.2,0.3,2.2,0.6,3.1,1.1c0.9,0.4,1.7,1,2.3,1.8c0.6,0.7,1.1,1.6,1.3,2.5
	c0.2,1,0.3,2.1,0.1,3.5c-0.4,2.7-1.8,5.2-3.9,7.1c-1,0.9-2.1,1.6-3.3,2.2c-2.4,1.2-5.1,1.8-7.8,1.8c-4,0-7.8-1-11.3-2.8L-95,401.4z
	 M-114.9,412.5l4.8-31h11.1l-4.8,31H-114.9z M-112.6,381.5l-16.7,31h-9.4l-7-31h11.6l1.9,14.1c0.1,0.8,0.2,1.5,0.2,2.3
	c0,0.8,0,1.5-0.2,2.3h0.2c0.1-0.8,0.3-1.6,0.6-2.3c0.3-0.8,0.6-1.5,0.9-2.3l6.3-14.1H-112.6z M-159.5,381.5h11.1l-4.8,31h-11.1
	L-159.5,381.5z M-183.5,391.2h0.7c1.4,0,2.5,0.2,3.4,0.6c0.9,0.4,1.6,1.1,1.9,2c0.4,0.9,0.5,2.1,0.2,3.6c-0.2,1.2-0.6,2.3-1.4,3.3
	c-0.7,0.9-1.6,1.5-2.6,1.9c-1,0.4-2.2,0.6-3.4,0.6h-0.7L-183.5,391.2z M-198,412.5h14.1c2.2,0,4.3-0.4,6.4-1.1c2-0.7,3.8-1.7,5.3-3
	c1.6-1.3,2.9-2.9,3.9-4.7c1.1-1.9,1.8-4.1,2.1-6.2c0.3-2.3,0.4-4.3,0-6c-0.3-1.6-0.9-3.2-1.8-4.5c-0.9-1.3-2.1-2.3-3.4-3.1
	c-1.5-0.8-3.1-1.4-4.7-1.8c-1.9-0.4-3.8-0.6-5.8-0.6h-11.4L-198,412.5z"/>
<g>
	<path class="st1" d="M-193.6,424.1L-193.6,424.1c-0.6,0-1.1-0.1-1.6-0.3c-0.5-0.2-0.9-0.5-1.3-0.8c-0.4-0.4-0.6-0.8-0.8-1.2
		c-0.2-0.5-0.3-1-0.3-1.5c0-0.5,0.1-1,0.3-1.5c0.2-0.5,0.5-0.9,0.8-1.2c0.4-0.4,0.8-0.6,1.3-0.8c0.5-0.2,1-0.3,1.6-0.3
		c0.5,0,1.1,0.1,1.6,0.3c0.5,0.2,0.9,0.5,1.3,0.8c0.4,0.4,0.6,0.8,0.8,1.2c0.2,0.5,0.3,1,0.3,1.5c0,0.5-0.1,1-0.3,1.5
		c-0.2,0.5-0.5,0.9-0.8,1.2c-0.4,0.4-0.8,0.6-1.3,0.8C-192.6,424-193.1,424.1-193.6,424.1z M-193.7,422.9c0.3,0,0.7-0.1,1-0.2
		c0.3-0.1,0.6-0.3,0.8-0.5c0.2-0.2,0.4-0.5,0.5-0.8c0.1-0.3,0.2-0.6,0.2-1c0-0.4-0.1-0.7-0.2-1c-0.1-0.3-0.3-0.6-0.5-0.8
		c-0.2-0.2-0.5-0.4-0.8-0.6c-0.3-0.1-0.6-0.2-1-0.2c-0.4,0-0.7,0.1-1,0.2c-0.3,0.1-0.6,0.3-0.8,0.6c-0.2,0.2-0.4,0.5-0.5,0.8
		c-0.1,0.3-0.2,0.6-0.2,1c0,0.4,0.1,0.7,0.2,1c0.1,0.3,0.3,0.6,0.5,0.8c0.2,0.2,0.5,0.4,0.8,0.5C-194.3,422.8-194,422.9-193.7,422.9
		z"/>
	<path class="st1" d="M-184.3,421.9h-2.8v2.1h-1.3v-5.4h1.3v2.1h2.8v-2.1h1.3v5.4h-1.3V421.9z"/>
	<path class="st1" d="M-179.7,422.1L-179.7,422.1c0,0.3-0.1,0.6-0.2,0.8c-0.1,0.2-0.3,0.5-0.5,0.6c-0.2,0.2-0.4,0.3-0.7,0.4
		c-0.3,0.1-0.6,0.1-0.9,0.1v-1.2c0.3,0,0.5-0.1,0.7-0.2c0.2-0.2,0.3-0.4,0.3-0.6v-3.5h5v5.4h-1.3v-4.2h-2.3V422.1z"/>
	<path class="st1" d="M-171,423.4L-171,423.4c-0.4,0.3-0.7,0.5-1,0.6c-0.3,0.1-0.7,0.2-1.1,0.2c-0.6,0-1.1-0.2-1.4-0.5
		c-0.3-0.3-0.5-0.7-0.5-1.2c0-0.6,0.2-1,0.6-1.3c0.4-0.3,0.9-0.5,1.5-0.5l1.7-0.1v-0.1c0-0.3-0.1-0.5-0.4-0.7
		c-0.3-0.1-0.6-0.2-1-0.2c-0.2,0-0.5,0-0.9,0.1c-0.3,0-0.6,0.1-0.9,0.2l-0.3-1c0.4-0.1,0.7-0.2,1.1-0.3c0.4-0.1,0.8-0.1,1.1-0.1
		c0.9,0,1.5,0.2,1.9,0.5c0.4,0.3,0.7,0.8,0.7,1.4v3.7h-0.8L-171,423.4z M-172.8,423.1L-172.8,423.1c0.3,0,0.5,0,0.8-0.1
		c0.2-0.1,0.5-0.3,0.8-0.5v-1l-1.4,0.2c-0.2,0-0.3,0-0.4,0.1c-0.1,0-0.2,0.1-0.3,0.1c-0.1,0.1-0.2,0.1-0.2,0.2
		c-0.1,0.1-0.1,0.2-0.1,0.3c0,0.2,0.1,0.4,0.2,0.5C-173.3,423-173.1,423.1-172.8,423.1z"/>
	<path class="st1" d="M-168.3,424v-5.4h1.3v3.6l2.7-3.6h1.3v5.4h-1.3v-3.6l-2.7,3.6H-168.3z M-166.7,416.3L-166.7,416.3
		c0,0.2,0.1,0.4,0.3,0.5c0.2,0.2,0.4,0.2,0.6,0.2c0.3,0,0.5-0.1,0.6-0.2c0.2-0.2,0.3-0.3,0.3-0.5h0.8c-0.1,0.5-0.2,1-0.5,1.3
		c-0.3,0.3-0.7,0.4-1.2,0.4c-0.5,0-0.9-0.1-1.2-0.4c-0.3-0.3-0.5-0.7-0.5-1.3H-166.7z"/>
	<path class="st1" d="M-157.3,421.9h-2.8v2.1h-1.3v-5.4h1.3v2.1h2.8v-2.1h1.3v5.4h-1.3V421.9z"/>
	<path class="st1" d="M-150.6,420.6v3.4h-1.3v-5.4h1.4l1.9,3.3l1.9-3.3h1.4v5.4h-1.3v-3.4l-1.6,2.8h-0.6L-150.6,420.6z"/>
	<path class="st1" d="M-140.4,423.4L-140.4,423.4c-0.4,0.3-0.7,0.5-1,0.6c-0.3,0.1-0.7,0.2-1.1,0.2c-0.6,0-1.1-0.2-1.4-0.5
		c-0.3-0.3-0.5-0.7-0.5-1.2c0-0.6,0.2-1,0.6-1.3c0.4-0.3,0.9-0.5,1.5-0.5l1.7-0.1v-0.1c0-0.3-0.1-0.5-0.4-0.7
		c-0.3-0.1-0.6-0.2-1-0.2c-0.2,0-0.5,0-0.9,0.1c-0.3,0-0.6,0.1-0.9,0.2l-0.3-1c0.4-0.1,0.7-0.2,1.1-0.3c0.4-0.1,0.8-0.1,1.1-0.1
		c0.9,0,1.5,0.2,1.9,0.5c0.4,0.3,0.7,0.8,0.7,1.4v3.7h-0.8L-140.4,423.4z M-142.2,423.1L-142.2,423.1c0.3,0,0.5,0,0.8-0.1
		c0.2-0.1,0.5-0.3,0.8-0.5v-1l-1.4,0.2c-0.2,0-0.3,0-0.4,0.1c-0.1,0-0.2,0.1-0.3,0.1c-0.1,0.1-0.2,0.1-0.2,0.2
		c-0.1,0.1-0.1,0.2-0.1,0.3c0,0.2,0.1,0.4,0.2,0.5C-142.7,423-142.5,423.1-142.2,423.1z"/>
	<path class="st1" d="M-136.4,419.8v4.2h-1.3v-5.4h4.1v1.2H-136.4z"/>
	<path class="st1" d="M-129.1,423.4L-129.1,423.4c-0.4,0.3-0.7,0.5-1,0.6c-0.3,0.1-0.7,0.2-1.1,0.2c-0.6,0-1.1-0.2-1.4-0.5
		c-0.3-0.3-0.5-0.7-0.5-1.2c0-0.6,0.2-1,0.6-1.3c0.4-0.3,0.9-0.5,1.5-0.5l1.7-0.1v-0.1c0-0.3-0.1-0.5-0.4-0.7
		c-0.3-0.1-0.6-0.2-1-0.2c-0.2,0-0.5,0-0.9,0.1c-0.3,0-0.6,0.1-0.9,0.2l-0.3-1c0.4-0.1,0.7-0.2,1.1-0.3c0.4-0.1,0.8-0.1,1.1-0.1
		c0.9,0,1.5,0.2,1.9,0.5c0.4,0.3,0.7,0.8,0.7,1.4v3.7h-0.8L-129.1,423.4z M-130.9,423.1L-130.9,423.1c0.3,0,0.5,0,0.8-0.1
		c0.2-0.1,0.5-0.3,0.8-0.5v-1l-1.4,0.2c-0.2,0-0.3,0-0.4,0.1c-0.1,0-0.2,0.1-0.3,0.1c-0.1,0.1-0.2,0.1-0.2,0.2
		c-0.1,0.1-0.1,0.2-0.1,0.3c0,0.2,0.1,0.4,0.2,0.5C-131.4,423-131.2,423.1-130.9,423.1z"/>
	<path class="st1" d="M-124.2,424.1c-0.4,0-0.8-0.1-1.2-0.2c-0.4-0.1-0.9-0.3-1.2-0.6l0.5-0.8c0.4,0.2,0.7,0.4,1.1,0.4
		c0.3,0.1,0.6,0.1,0.9,0.1c0.3,0,0.5-0.1,0.6-0.2c0.1-0.1,0.2-0.3,0.2-0.5c0-0.2-0.1-0.3-0.4-0.5c-0.3-0.1-0.6-0.2-1.1-0.2v-1.1
		c0.3,0,0.6,0,0.8-0.1c0.2,0,0.4-0.1,0.5-0.1c0.1-0.1,0.2-0.1,0.2-0.2c0-0.1,0.1-0.1,0.1-0.2c0-0.2-0.1-0.3-0.2-0.4
		c-0.1-0.1-0.4-0.1-0.7-0.1c-0.3,0-0.6,0-0.9,0.1c-0.3,0.1-0.6,0.2-0.9,0.3l-0.4-0.9c0.4-0.2,0.8-0.4,1.2-0.5
		c0.4-0.1,0.8-0.2,1.1-0.2c0.3,0,0.6,0,0.8,0.1c0.3,0.1,0.5,0.2,0.7,0.3c0.2,0.1,0.4,0.3,0.5,0.5c0.1,0.2,0.2,0.4,0.2,0.6
		c0,0.5-0.3,1-0.8,1.3c0.3,0.1,0.5,0.3,0.6,0.5c0.1,0.2,0.2,0.5,0.2,0.7c0,0.2,0,0.4-0.1,0.6s-0.2,0.4-0.4,0.5
		c-0.2,0.2-0.4,0.3-0.7,0.4C-123.5,424.1-123.8,424.1-124.2,424.1z"/>
	<path class="st1" d="M-120.8,424v-5.4h1.3v3.6l2.7-3.6h1.3v5.4h-1.3v-3.6l-2.7,3.6H-120.8z"/>
	<path class="st1" d="M-109.9,421.9h-2.8v2.1h-1.3v-5.4h1.3v2.1h2.8v-2.1h1.3v5.4h-1.3V421.9z"/>
	<path class="st1" d="M-102.6,422.1L-102.6,422.1c0,0.3-0.1,0.6-0.2,0.8c-0.1,0.2-0.3,0.5-0.5,0.6c-0.2,0.2-0.4,0.3-0.7,0.4
		c-0.3,0.1-0.6,0.1-0.9,0.1v-1.2c0.3,0,0.5-0.1,0.7-0.2c0.2-0.2,0.3-0.4,0.3-0.6v-3.5h5v5.4h-1.3v-4.2h-2.3V422.1z"/>
	<path class="st1" d="M-97.5,424v-5.4h1.3v3.6l2.7-3.6h1.3v5.4h-1.3v-3.6l-2.7,3.6H-97.5z"/>
	<path class="st1" d="M-89.8,424l-0.1,1.2h-1.2v-2.5h0.7c0.2-0.6,0.5-1.3,0.6-1.9c0.2-0.7,0.3-1.4,0.3-2.3h3.6v4.2h0.7v2.5h-1.2
		l-0.1-1.3H-89.8z M-87.2,419.8h-1.2c-0.1,0.5-0.2,1.1-0.3,1.6c-0.1,0.5-0.3,1-0.4,1.4h1.9V419.8z"/>
	<path class="st1" d="M-84.1,424v-5.4h1.3v3.6l2.7-3.6h1.3v5.4H-80v-3.6l-2.7,3.6H-84.1z"/>
	<path class="st1" d="M-75.9,426.6h-1.3v-8h0.8l0.2,0.6c0.2-0.2,0.5-0.4,0.9-0.6c0.3-0.1,0.7-0.2,1.1-0.2c0.4,0,0.8,0.1,1.1,0.2
		c0.3,0.1,0.6,0.3,0.9,0.6c0.3,0.3,0.5,0.6,0.6,0.9c0.2,0.4,0.2,0.7,0.2,1.2c0,0.4-0.1,0.8-0.2,1.2c-0.1,0.3-0.3,0.6-0.6,0.9
		c-0.3,0.3-0.6,0.5-0.9,0.6c-0.3,0.1-0.7,0.2-1.1,0.2c-0.4,0-0.7-0.1-1-0.2c-0.3-0.1-0.6-0.3-0.8-0.5l0.1,0.7V426.6z M-74.4,419.6
		L-74.4,419.6c-0.2,0-0.4,0-0.6,0.1c-0.2,0.1-0.4,0.2-0.5,0.4c-0.1,0.1-0.3,0.3-0.3,0.5s-0.1,0.4-0.1,0.7c0,0.2,0,0.5,0.1,0.7
		c0.1,0.2,0.2,0.4,0.3,0.5c0.1,0.2,0.3,0.3,0.5,0.4c0.2,0.1,0.4,0.1,0.6,0.1c0.2,0,0.4,0,0.6-0.1c0.2-0.1,0.4-0.2,0.5-0.4
		c0.1-0.2,0.2-0.3,0.3-0.5c0.1-0.2,0.1-0.4,0.1-0.6c0-0.2,0-0.4-0.1-0.7c-0.1-0.2-0.2-0.4-0.3-0.5c-0.1-0.2-0.3-0.3-0.5-0.4
		C-74,419.6-74.2,419.6-74.4,419.6z"/>
	<path class="st1" d="M-71,425.4L-71,425.4c0.2,0,0.4-0.1,0.6-0.2c0.2-0.1,0.4-0.2,0.5-0.4s0.3-0.3,0.4-0.6c0.1-0.2,0.2-0.4,0.3-0.6
		l-2.1-5.1h1.4l1.3,3.5l1.4-3.5h1.4l-2.4,5.6c-0.7,1.6-1.7,2.5-2.9,2.5V425.4z"/>
	<path class="st1" d="M-59.9,424.1L-59.9,424.1c-0.3,0.1-0.7,0-1-0.1c-0.3-0.1-0.6-0.3-0.9-0.5c-0.3-0.2-0.5-0.4-0.7-0.7
		c-0.2-0.3-0.3-0.6-0.4-0.9h-0.8v2.1h-1.3v-5.4h1.3v2.1h0.9c0.1-0.3,0.2-0.6,0.4-0.9c0.2-0.3,0.4-0.5,0.7-0.7
		c0.2-0.2,0.5-0.4,0.8-0.5c0.3-0.1,0.6-0.2,1-0.2c0.4,0,0.8,0.1,1.1,0.2c0.4,0.1,0.7,0.3,0.9,0.6c0.3,0.3,0.5,0.6,0.6,0.9
		c0.2,0.3,0.2,0.7,0.2,1.2c0,0.4-0.1,0.8-0.2,1.2c-0.2,0.4-0.4,0.6-0.7,0.9c-0.3,0.2-0.6,0.4-0.9,0.6
		C-59.1,424.1-59.5,424.1-59.9,424.1z M-59.9,423L-59.9,423c0.2,0,0.4,0,0.6-0.1c0.2-0.1,0.4-0.2,0.5-0.3c0.1-0.1,0.2-0.3,0.3-0.5
		c0.1-0.2,0.1-0.4,0.1-0.7c0-0.2,0-0.5-0.1-0.7c-0.1-0.2-0.2-0.4-0.3-0.5c-0.1-0.2-0.3-0.3-0.5-0.4c-0.2-0.1-0.4-0.1-0.6-0.1
		c-0.2,0-0.4,0-0.6,0.1c-0.2,0.1-0.4,0.2-0.5,0.4c-0.1,0.2-0.3,0.3-0.3,0.5c-0.1,0.2-0.1,0.4-0.1,0.7s0,0.4,0.1,0.6
		c0.1,0.2,0.2,0.4,0.3,0.5c0.1,0.1,0.3,0.3,0.5,0.3C-60.3,423-60.1,423-59.9,423z"/>
	<path class="st1" d="M-48.2,425.3l-0.1-1.3h-7.5v-5.4h1.3v4.2h2v-4.2h1.3v4.2h2v-4.2h1.3v4.2h0.7v2.5H-48.2z"/>
	<path class="st1" d="M-46,424v-5.4h1.3v3.6l2.7-3.6h1.3v5.4h-1.3v-3.6l-2.7,3.6H-46z"/>
	<path class="st1" d="M-36.9,422.2l-1.3,1.8h-1.5l2.2-2.7l-2.1-2.7h1.6l1.2,1.8l1.2-1.8h1.5l-2.1,2.7l2.2,2.8h-1.6L-36.9,422.2z"/>
	<path class="st1" d="M-24.8,421.5L-24.8,421.5c0,0.4,0,0.8-0.2,1.1c-0.1,0.3-0.3,0.6-0.6,0.8c-0.3,0.2-0.6,0.4-0.9,0.5
		c-0.3,0.1-0.7,0.2-1.1,0.2c-0.4,0-0.8-0.1-1.2-0.2c-0.4-0.1-0.7-0.3-1-0.6c-0.3-0.3-0.5-0.6-0.7-1c-0.2-0.4-0.2-0.9-0.2-1.4v-0.1
		c0-0.8,0.1-1.5,0.3-2.1c0.2-0.6,0.5-1,0.8-1.4c0.4-0.3,0.8-0.6,1.2-0.7c0.5-0.2,1-0.2,1.5-0.2c0.3,0,0.6,0,0.9,0.1
		c0.3,0,0.6,0.1,0.9,0.2l-0.4,1.2c-0.2-0.1-0.5-0.1-0.7-0.2c-0.3,0-0.5-0.1-0.7-0.1c-0.2,0-0.5,0-0.8,0.1c-0.2,0.1-0.5,0.1-0.7,0.3
		c-0.2,0.1-0.4,0.3-0.5,0.5c-0.2,0.2-0.3,0.5-0.4,0.8c0.2-0.1,0.5-0.2,0.7-0.3c0.3-0.1,0.5-0.1,0.7-0.1c0.4,0,0.8,0.1,1.1,0.2
		c0.4,0.1,0.7,0.3,0.9,0.5c0.3,0.2,0.5,0.5,0.6,0.8S-24.8,421.1-24.8,421.5z M-27.6,422.9L-27.6,422.9c0.2,0,0.4,0,0.6-0.1
		c0.2-0.1,0.4-0.2,0.5-0.3c0.1-0.1,0.2-0.3,0.3-0.5c0.1-0.2,0.1-0.4,0.1-0.6s0-0.4-0.1-0.6c-0.1-0.2-0.2-0.3-0.4-0.4
		c-0.2-0.1-0.3-0.2-0.5-0.3c-0.2-0.1-0.4-0.1-0.6-0.1c-0.2,0-0.4,0-0.6,0.1s-0.3,0.2-0.5,0.3c-0.1,0.1-0.3,0.2-0.3,0.4
		c-0.1,0.1-0.1,0.3-0.1,0.5c0,0.3,0,0.5,0.1,0.7c0.1,0.2,0.2,0.3,0.4,0.5c0.2,0.1,0.3,0.2,0.5,0.3C-28,422.9-27.8,422.9-27.6,422.9z
		"/>
	<path class="st1" d="M-22.4,426.6h-1.3v-8h0.8l0.2,0.6c0.2-0.2,0.5-0.4,0.9-0.6c0.3-0.1,0.7-0.2,1.1-0.2c0.4,0,0.8,0.1,1.1,0.2
		c0.3,0.1,0.6,0.3,0.9,0.6c0.3,0.3,0.5,0.6,0.6,0.9c0.2,0.4,0.2,0.7,0.2,1.2c0,0.4-0.1,0.8-0.2,1.2c-0.1,0.3-0.3,0.6-0.6,0.9
		c-0.3,0.3-0.6,0.5-0.9,0.6c-0.3,0.1-0.7,0.2-1.1,0.2c-0.4,0-0.7-0.1-1-0.2c-0.3-0.1-0.6-0.3-0.8-0.5l0.1,0.7V426.6z M-20.8,419.6
		L-20.8,419.6c-0.2,0-0.4,0-0.6,0.1c-0.2,0.1-0.4,0.2-0.5,0.4c-0.1,0.1-0.3,0.3-0.3,0.5s-0.1,0.4-0.1,0.7c0,0.2,0,0.5,0.1,0.7
		c0.1,0.2,0.2,0.4,0.3,0.5c0.1,0.2,0.3,0.3,0.5,0.4c0.2,0.1,0.4,0.1,0.6,0.1c0.2,0,0.4,0,0.6-0.1c0.2-0.1,0.4-0.2,0.5-0.4
		c0.1-0.2,0.2-0.3,0.3-0.5c0.1-0.2,0.1-0.4,0.1-0.6c0-0.2,0-0.4-0.1-0.7c-0.1-0.2-0.2-0.4-0.3-0.5c-0.1-0.2-0.3-0.3-0.5-0.4
		C-20.4,419.6-20.6,419.6-20.8,419.6z"/>
	<path class="st1" d="M-11.8,423.2L-11.8,423.2c-0.3,0.3-0.6,0.6-1,0.7c-0.4,0.2-0.9,0.3-1.3,0.3c-0.4,0-0.8-0.1-1.1-0.2
		c-0.4-0.1-0.7-0.3-1-0.6c-0.3-0.2-0.5-0.5-0.7-0.9c-0.2-0.4-0.3-0.8-0.3-1.2c0-0.5,0.1-0.9,0.2-1.2c0.2-0.4,0.4-0.7,0.6-0.9
		s0.6-0.4,0.9-0.6c0.3-0.1,0.7-0.2,1.1-0.2c0.4,0,0.7,0.1,1.1,0.2c0.3,0.1,0.6,0.4,0.9,0.6c0.2,0.3,0.4,0.6,0.6,1s0.2,0.9,0.2,1.4
		h-4.2c0.1,0.4,0.3,0.7,0.6,0.9c0.3,0.2,0.7,0.3,1.1,0.3c0.5,0,1-0.2,1.3-0.6L-11.8,423.2z M-14.3,419.5L-14.3,419.5
		c-0.4,0-0.7,0.1-1,0.4c-0.3,0.3-0.4,0.6-0.5,0.9l2.8-0.1c-0.1-0.4-0.3-0.7-0.5-0.9C-13.7,419.6-13.9,419.5-14.3,419.5z"/>
	<path class="st1" d="M-6.3,421.9H-9v2.1h-1.3v-5.4H-9v2.1h2.8v-2.1h1.3v5.4h-1.3V421.9z"/>
	<path class="st1" d="M-2.6,424l-0.1,1.2h-1.2v-2.5h0.7c0.2-0.6,0.5-1.3,0.6-1.9c0.2-0.7,0.3-1.4,0.3-2.3h3.6v4.2h0.7v2.5H0.9
		L0.8,424H-2.6z M0,419.8h-1.2c-0.1,0.5-0.2,1.1-0.3,1.6c-0.1,0.5-0.3,1-0.4,1.4H0V419.8z"/>
	<path class="st1" d="M5.6,424.1L5.6,424.1c-0.4,0-0.7-0.1-1.1-0.2c-0.3-0.1-0.7-0.3-0.9-0.6c-0.3-0.2-0.5-0.5-0.7-0.9
		c-0.2-0.3-0.2-0.7-0.2-1.2s0.1-0.8,0.2-1.2c0.2-0.4,0.4-0.7,0.7-0.9c0.3-0.3,0.6-0.5,0.9-0.6c0.3-0.1,0.7-0.2,1.1-0.2
		c0.4,0,0.8,0.1,1.1,0.2c0.4,0.1,0.7,0.3,0.9,0.6c0.3,0.3,0.5,0.6,0.6,0.9c0.2,0.3,0.2,0.7,0.2,1.2c0,0.4-0.1,0.8-0.2,1.2
		c-0.2,0.4-0.4,0.6-0.7,0.9c-0.3,0.2-0.6,0.4-0.9,0.6C6.4,424.1,6,424.1,5.6,424.1z M5.6,423L5.6,423c0.2,0,0.4-0.1,0.6-0.1
		c0.2-0.1,0.4-0.2,0.5-0.3c0.1-0.1,0.2-0.3,0.3-0.5c0.1-0.2,0.1-0.4,0.1-0.7c0-0.2,0-0.5-0.1-0.7c-0.1-0.2-0.2-0.4-0.3-0.5
		c-0.1-0.2-0.3-0.3-0.5-0.4c-0.2-0.1-0.4-0.1-0.6-0.1c-0.2,0-0.4,0-0.6,0.1c-0.2,0.1-0.3,0.2-0.5,0.4c-0.1,0.2-0.3,0.3-0.3,0.5
		c-0.1,0.2-0.1,0.4-0.1,0.7s0,0.4,0.1,0.6c0.1,0.2,0.2,0.4,0.3,0.5c0.1,0.1,0.3,0.3,0.5,0.3C5.2,422.9,5.4,423,5.6,423z"/>
	<path class="st1" d="M9.7,418.6l3.2,0c0.3,0,0.5,0,0.7,0.1c0.2,0.1,0.4,0.2,0.5,0.3c0.1,0.1,0.3,0.3,0.3,0.5
		c0.1,0.2,0.1,0.4,0.1,0.6c0,0.2,0,0.4-0.1,0.5c-0.1,0.2-0.2,0.4-0.3,0.5c0.2,0.1,0.4,0.3,0.6,0.6c0.1,0.2,0.2,0.5,0.2,0.8
		c0,0.2,0,0.4-0.1,0.6c-0.1,0.2-0.2,0.4-0.3,0.5c-0.2,0.2-0.3,0.3-0.6,0.4c-0.2,0.1-0.5,0.1-0.7,0.1H9.7V418.6z M11,419.7l0,1h1.7
		c0.1,0,0.2-0.1,0.3-0.2s0.1-0.2,0.1-0.4c0-0.1,0-0.2-0.1-0.3s-0.2-0.1-0.4-0.1H11z M11,421.8v1h2c0.2,0,0.3-0.1,0.4-0.2
		c0.1-0.1,0.1-0.2,0.1-0.4c0-0.1,0-0.3-0.1-0.4s-0.2-0.2-0.4-0.2H11z"/>
</g>
</svg>
