<svg xmlns="http://www.w3.org/2000/svg" width="215" height="32" viewBox="0 0 215 32"><path fill="#ee474d" d="M184.25.49h10.7l7.32 17.2h.32l-.03-2.62c-.01-.88.02-1.76.07-2.64.05-.89.15-1.76.29-2.64l1.42-9.3H215l-4.84 31.02H199.5l-7.24-16.29h-.32c0 1.06 0 2.11-.02 3.13a22.87 22.87 0 0 1-.27 3.08l-1.58 10.08h-10.66zM162 10.2a6.47 6.47 0 0 0-4.48 1.79 7.26 7.26 0 0 0-2.19 4.26 6.02 6.02 0 0 0 .25 3.12c.33.89.9 1.58 1.68 2.08.78.5 1.74.75 2.87.76a6.65 6.65 0 0 0 3.11-.76c.93-.5 1.7-1.19 2.33-2.08a7.55 7.55 0 0 0 1.23-3.12c.12-.83.11-1.61-.05-2.33a4.68 4.68 0 0 0-.84-1.93 4.2 4.2 0 0 0-1.6-1.31 5.32 5.32 0 0 0-2.31-.48zM163.59 0c1.87 0 3.61.25 5.23.73a14.5 14.5 0 0 1 4.32 2.12c1.27.93 2.32 2.04 3.16 3.36.83 1.31 1.4 2.8 1.71 4.46.32 1.66.32 3.46.02 5.41-.32 2-.89 3.82-1.72 5.48a17.8 17.8 0 0 1-3.1 4.43 18.65 18.65 0 0 1-4.18 3.27 21.12 21.12 0 0 1-15.69 2.04 14.34 14.34 0 0 1-4.34-2.04 11.85 11.85 0 0 1-4.88-7.7 16.47 16.47 0 0 1-.01-5.48 18.52 18.52 0 0 1 9.05-13.23A20.45 20.45 0 0 1 163.59 0zm-32.26.49h11.15l-4.84 31.02h-11.15zm-28.3 19.91l.48.45c.59.53 1.22 1 1.9 1.44.68.42 1.41.76 2.18 1.01.76.25 1.58.38 2.43.39a5.1 5.1 0 0 0 1.91-.4c.31-.14.58-.33.8-.57.23-.24.37-.53.42-.88.06-.34.02-.62-.1-.83-.12-.21-.3-.37-.53-.48-.24-.12-.5-.2-.77-.26l-.79-.16-2.2-.41a11.76 11.76 0 0 1-2.94-.93 7.6 7.6 0 0 1-2.29-1.65 5.89 5.89 0 0 1-1.35-2.42 7.58 7.58 0 0 1-.13-3.22c.24-1.48.69-2.82 1.37-4.03.67-1.2 1.51-2.27 2.51-3.19a15.04 15.04 0 0 1 3.35-2.34 16.9 16.9 0 0 1 3.84-1.43 18.05 18.05 0 0 1 8.97.17c1.54.45 3 1.13 4.36 2.05l-4.27 7.94c-.57-.44-1.17-.84-1.81-1.19a8.82 8.82 0 0 0-4.29-1.15c-.34-.01-.69.04-1.07.14-.38.1-.72.27-1.02.51-.29.24-.47.57-.55.99a1 1 0 0 0 .13.7c.12.17.28.32.5.42.22.1.44.18.68.24l.68.17 2.44.57c1.15.26 2.18.63 3.09 1.1a7.59 7.59 0 0 1 2.3 1.77 6.24 6.24 0 0 1 1.3 2.55c.24 1 .26 2.15.06 3.47a12 12 0 0 1-3.89 7.09 14.61 14.61 0 0 1-3.33 2.21 18.03 18.03 0 0 1-7.83 1.76 24.42 24.42 0 0 1-11.34-2.84zM83.14 31.51L87.98.49h11.14l-4.84 31.02zM85.41.49L68.7 31.51h-9.44L52.22.49h11.64l1.87 14.11c.11.76.17 1.52.19 2.29.02.76-.04 1.54-.15 2.32h.24c.13-.78.32-1.56.59-2.32.26-.77.57-1.53.92-2.29L73.78.49zm-46.93 0h11.14l-4.84 31.02H33.64zm-24 9.71h.69c1.36-.01 2.5.21 3.41.64a3.77 3.77 0 0 1 1.93 2.02c.38.92.46 2.1.23 3.55a6.85 6.85 0 0 1-1.39 3.31 6.19 6.19 0 0 1-2.62 1.89c-1.04.4-2.18.61-3.43.6h-.69zM0 31.51h14.11a19.3 19.3 0 0 0 6.37-1.06c1.99-.7 3.76-1.71 5.34-3.02 1.58-1.3 2.9-2.89 3.94-4.74a18.88 18.88 0 0 0 2.13-6.24c.35-2.27.36-4.28.04-6.03a11.06 11.06 0 0 0-1.83-4.51 10.77 10.77 0 0 0-3.42-3.08 16.19 16.19 0 0 0-4.74-1.77 27.34 27.34 0 0 0-5.75-.57H4.84z"/></svg>