<svg xmlns="http://www.w3.org/2000/svg" width="20" height="17" viewBox="0 0 20 17"><path fill="#ccc" d="M18.44 1.67a5.54 5.54 0 0 0-7.89-.05l-.54.55-.54-.55a5.54 5.54 0 0 0-7.85 7.85l6.94 6.93a2.04 2.04 0 0 0 2.9 0l6.89-6.89a5.6 5.6 0 0 0 .09-7.84zm-.82 7.12l-6.89 6.88c-.4.4-1.05.4-1.45 0L2.35 8.74a4.5 4.5 0 0 1 0-6.39 4.5 4.5 0 0 1 6.39 0l.54.54-.83.83c-.2.2-.2.53 0 .73.1.1.24.15.37.15a.5.5 0 0 0 .36-.15l2.1-2.1a4.48 4.48 0 0 1 3.19-1.32c1.23 0 2.38.48 3.23 1.36a4.56 4.56 0 0 1-.08 6.4z"/></svg>