<svg xmlns="http://www.w3.org/2000/svg" width="44" height="44" viewBox="0 0 44 44"><path fill="#bbb" d="M22 19a5 5 0 1 0 0-10 5 5 0 0 0 0 10zm0-8.57a3.57 3.57 0 1 1 0 7.14 3.57 3.57 0 0 1 0-7.14z"/><path fill="#bbb" d="M22 40l11.2-16.19C37.4 18.21 36.8 9 31.9 4.1A13.92 13.92 0 0 0 22 0c-3.74 0-7.25 1.46-9.9 4.1C7.21 9 6.6 18.21 10.78 23.79zM13.13 5.14A12.47 12.47 0 0 1 22 1.46c3.35 0 6.5 1.31 8.87 3.68 4.42 4.41 4.96 12.73 1.15 17.82L22 37.43 11.97 22.94c-3.8-5.07-3.25-13.39 1.16-17.8z"/><path fill="#bbb" d="M30.89 32.01a.73.73 0 0 0-.82.61c-.05.39.24.74.64.79 7.72.87 11.82 3.23 11.82 4.59 0 1.92-7.81 4.59-20.53 4.59-12.72 0-20.53-2.67-20.53-4.59 0-1.36 4.1-3.72 11.82-4.59.4-.05.69-.4.64-.79a.73.73 0 0 0-.82-.61C5.39 32.88 0 35.35 0 38c0 2.98 7.56 6 22 6 14.44 0 22-3.02 22-6 0-2.65-5.39-5.12-13.11-5.99z"/></svg>