<svg xmlns="http://www.w3.org/2000/svg" width="38" height="46" viewBox="0 0 38 46"><path fill="#bbb" d="M18.93 0c-5.05 0-9.16 3.97-9.16 8.86v.22H3.71c-.49 0-.9.36-.95.84L0 40.03v.08c0 3.23 3.08 5.85 6.87 5.85h24.14c3.79 0 6.86-2.62 6.86-5.85v-.08L35.11 9.92a.95.95 0 0 0-.96-.84h-6.06v-.22c0-4.89-4.1-8.86-9.16-8.86zm0 1.85a7.14 7.14 0 0 1 7.26 7.01v.22H11.68v-.22a7.14 7.14 0 0 1 7.25-7.01zm17.03 38.3c-.03 2.19-2.24 3.97-4.96 3.97H6.87c-2.72 0-4.93-1.78-4.96-3.97l2.68-29.22h5.18v4.27c0 .51.42.92.95.92.54 0 .96-.41.96-.92v-4.27h14.51v4.27c0 .51.42.92.95.92s.95-.41.95-.92v-4.27h5.18z"/><path fill="#bbb" d="M23.88 24.31l-7.21 8.13-3.04-3.43a.88.88 0 0 0-1.35 0c-.37.43-.37 1.1 0 1.52L16 34.72a.9.9 0 0 0 .67.32c.24 0 .49-.11.68-.32l7.88-8.89c.37-.42.37-1.1 0-1.52a.9.9 0 0 0-1.35 0z"/></svg>