<svg xmlns="http://www.w3.org/2000/svg" width="44" height="43" viewBox="0 0 44 43"><path fill="#bbb" d="M34.75 43c-1.74 0-3.85-.44-6.17-1.31-5.09-1.92-10.63-5.71-15.59-10.68-4.97-4.96-8.76-10.5-10.68-15.59C.57 10.79.56 7 2.3 5.26l.77-.8C4.66 2.8 6.49.9 8.82 1c1.64.07 3.23 1.09 4.86 3.11 4.79 5.97 2.63 8.1.13 10.56l-.45.44c-.41.41-1.18 2.31 6.02 9.51a39.92 39.92 0 0 0 5.96 5.11c1.01.66 2.81 1.65 3.55.91l.44-.45c2.47-2.5 4.59-4.66 10.56.14 2.02 1.62 3.04 3.21 3.11 4.85.09 2.38-1.8 4.17-3.47 5.76l-.79.76c-.87.87-2.25 1.3-3.99 1.3zM8.65 2.41c-1.68 0-3.21 1.61-4.56 3.02l-.79.83c-1.3 1.29-1.16 4.69.33 8.66 1.86 4.91 5.53 10.27 10.36 15.09 4.82 4.83 10.18 8.51 15.09 10.36 3.97 1.5 7.37 1.63 8.66.33l.82-.79c1.45-1.38 3.1-2.94 3.03-4.68-.05-1.19-.92-2.47-2.58-3.8-4.98-4-6.37-2.59-8.67-.25l-.45.45c-1.1 1.11-2.89.87-5.32-.72a41.06 41.06 0 0 1-6.19-5.29c-5.97-5.98-7.89-9.64-6.02-11.51l.46-.45c2.34-2.3 3.75-3.7-.25-8.67-1.33-1.66-2.61-2.53-3.8-2.58h-.12zM34.51 18.45a.7.7 0 0 1-.64-.96c.89-2.2.38-4.7-1.3-6.37a5.91 5.91 0 0 0-6.58-1.2.72.72 0 0 1-.93-.35.7.7 0 0 1 .35-.93 7.32 7.32 0 0 1 8.15 1.49 7.26 7.26 0 0 1 1.6 7.89.7.7 0 0 1-.65.43z"/><path fill="#bbb" d="M40.54 20.73a.7.7 0 0 1-.64-.96 12.6 12.6 0 0 0-2.78-13.68 12.7 12.7 0 0 0-14.13-2.58.72.72 0 0 1-.93-.35.7.7 0 0 1 .35-.93 14.09 14.09 0 0 1 15.7 2.87c4 3.99 5.21 9.96 3.08 15.19a.7.7 0 0 1-.65.44z"/></svg>