<svg xmlns="http://www.w3.org/2000/svg" width="42" height="44" viewBox="0 0 42 44"><path fill="#bbb" d="M.88 43.92h40.14c.49 0 .88-.39.88-.88v-31.1a.88.88 0 0 0-.02-.16l-.01-.05a1.26 1.26 0 0 0-.03-.1l-.03-.06a.2.2 0 0 0-.04-.08l-.04-.06-.01-.02L33.04.34a.86.86 0 0 0-.69-.34H9.55a.88.88 0 0 0-.69.34L.19 11.41l-.02.02-.04.06-.04.08a.16.16 0 0 0-.03.06l-.02.1-.02.05a.88.88 0 0 0-.02.16v31.1c0 .49.4.88.88.88zM21.83 1.76h10.09l7.29 9.3H21.83zm-11.84 0h10.09v9.3H2.69zM1.76 12.83h38.38v29.32H1.76z"/><path fill="#bbb" d="M34.14 21H7.88a.87.87 0 0 0-.88.88c0 .49.39.89.88.89h26.26c.49 0 .88-.4.88-.89a.87.87 0 0 0-.88-.88zM29.16 27H12.88a.87.87 0 0 0-.88.88c0 .49.39.89.88.89h16.28c.49 0 .88-.4.88-.89a.87.87 0 0 0-.88-.88zM29.16 33H12.88a.87.87 0 0 0-.88.88c0 .49.39.89.88.89h16.28a.88.88 0 0 0 0-1.77z"/></svg>