<svg xmlns="http://www.w3.org/2000/svg" width="45" height="42" viewBox="0 0 45 42"><path fill="#bbb" d="M15.38 26.37A4.04 4.04 0 0 0 14 29.44v4.27c0 .53.4.95.91.95.5 0 .91-.42.91-.95v-4.27c0-.63.26-1.21.71-1.6 3.61-3.11 7.54-5.18 8.28-5.57.4-.2.66-.63.66-1.11v-6.01a1 1 0 0 0-.4-.79c-.5-.34-.79-.92-.79-1.54V6.59a4.56 4.56 0 0 1 4.44-4.66H30a4.56 4.56 0 0 1 4.44 4.66v6.23c0 .62-.29 1.2-.79 1.54a.97.97 0 0 0-.4.79v6c0 .48.26.91.66 1.11a45.8 45.8 0 0 1 8.27 5.57c.45.39.72.97.72 1.6v4.27c0 .53.41.95.91.95.51 0 .91-.42.91-.95v-4.27c0-1.2-.51-2.31-1.38-3.07a48.06 48.06 0 0 0-8.27-5.63v-5.12a3.9 3.9 0 0 0 1.19-2.81V6.57C36.26 2.95 33.45 0 30 0h-1.28c-3.45 0-6.26 2.95-6.26 6.57v6.23a3.9 3.9 0 0 0 1.19 2.81v5.12a48.7 48.7 0 0 0-8.27 5.64z"/><path fill="#bbb" d="M13.2 6h-1.04a5.41 5.41 0 0 0-5.27 5.53v5.08c0 .9.36 1.75.97 2.36v3.98c-1.13.61-4 2.25-6.68 4.55A3.48 3.48 0 0 0 0 30.14v3.48c0 .53.4.95.91.95.5 0 .91-.42.91-.95v-3.48c0-.45.19-.88.52-1.17 2.93-2.52 6.1-4.2 6.72-4.51.38-.2.63-.62.63-1.06v-4.9a.99.99 0 0 0-.41-.79 1.35 1.35 0 0 1-.56-1.1v-5.08a3.55 3.55 0 0 1 3.45-3.62h1.04c1.9 0 3.45 1.63 3.45 3.62v5.08c0 .44-.21.85-.57 1.1a.95.95 0 0 0-.4.79v4.02c0 .53.4.95.9.95.51 0 .91-.42.91-.95v-3.55c.62-.61.98-1.46.98-2.36v-5.08A5.42 5.42 0 0 0 13.2 6zM31.84 22.01a.92.92 0 0 0-.91.95c0 .62-.48 1.11-1.06 1.11a.96.96 0 0 1-.71-.3c-.21-.2-.34-.49-.34-.82a.93.93 0 0 0-.91-.95.92.92 0 0 0-.91.95c0 .77.28 1.47.73 2.01l-.62 14.22c-.01.28.1.55.3.75l1.92 1.81a.86.86 0 0 0 1.21.01l1.9-1.78c.2-.2.31-.47.3-.76l-.59-14.39c.39-.51.62-1.15.62-1.85-.02-.53-.43-.96-.93-.96zm-1.91 17.75l-.99-.93.55-12.86a2.3 2.3 0 0 0 .86-.02l.53 12.91z"/></svg>