<svg xmlns="http://www.w3.org/2000/svg" width="44" height="44" viewBox="0 0 44 44"><path fill="#bbb" d="M37.71 16.65C37.71 7.43 30.68 0 22 0S6.29 7.43 6.29 16.6v.05c-3.5.2-6.29 3.27-6.29 7.01v.83c0 3.9 2.99 7.06 6.68 7.06h.35l2.79 4.69a10.4 10.4 0 0 0 9 5.27h.55A3.2 3.2 0 0 0 22.39 44a3.25 3.25 0 0 0 3.15-3.32 3.25 3.25 0 0 0-3.15-3.32 3.2 3.2 0 0 0-3.02 2.49h-.55a8.85 8.85 0 0 1-7.66-4.53l-2.28-3.77h.55c.86 0 1.57-.75 1.57-1.66V18.26c0-.91-.71-1.66-1.57-1.66H7.86C7.86 8.34 14.18 1.66 22 1.66S36.14 8.34 36.14 16.6h-1.57c-.86 0-1.57.75-1.57 1.66v11.63c0 .91.71 1.66 1.57 1.66h2.75c3.69 0 6.68-3.16 6.68-7.06v-.83c0-3.74-2.79-6.81-6.29-7.01zM22.39 39.02c.87 0 1.57.75 1.57 1.66 0 .91-.7 1.66-1.57 1.66-.86 0-1.57-.75-1.57-1.66 0-.91.71-1.66 1.57-1.66zM9.43 18.26v11.63H6.68a5.25 5.25 0 0 1-5.11-5.4v-.83c0-2.99 2.28-5.4 5.11-5.4zm33 6.23c0 2.99-2.28 5.4-5.11 5.4h-2.75V18.26h2.75a5.25 5.25 0 0 1 5.11 5.4z"/><path fill="#bbb" d="M28.79 6.54l-.31-.2a2.43 2.43 0 0 0-.32-.21.72.72 0 0 0-1.06.29c-.19.41-.11.87.28 1.12.08.04.19.12.31.21.12.08.24.16.36.2.11.09.27.13.39.13.27 0 .51-.13.67-.42a.87.87 0 0 0-.32-1.12zM21.83 4c-3.34 0-6.49 1.54-8.65 4.19a.88.88 0 0 0 .08 1.16.8.8 0 0 0 .51.21c.24 0 .44-.08.59-.29a9.72 9.72 0 0 1 7.47-3.61c.7 0 1.41.08 2.12.25.43.08.82-.21.94-.62.12-.42-.2-.87-.59-1A9.92 9.92 0 0 0 21.83 4z"/></svg>