<svg xmlns="http://www.w3.org/2000/svg" width="33" height="28" viewBox="0 0 33 28"><path fill="#bbb" d="M30.37 2.75a9.1 9.1 0 0 0-12.99-.07l-.89.89-.9-.89A9.05 9.05 0 0 0 9.13 0C6.69 0 4.4.95 2.68 2.68A9.03 9.03 0 0 0 0 9.13c0 2.44.95 4.74 2.68 6.46l11.41 11.42a3.38 3.38 0 0 0 4.79 0l11.34-11.34a9.23 9.23 0 0 0 .15-12.92zm-1.35 11.72L17.68 25.82a1.7 1.7 0 0 1-2.39-.01L3.87 14.4A7.44 7.44 0 1 1 14.4 3.87l.89.89-1.37 1.37a.85.85 0 0 0 0 1.2.86.86 0 0 0 1.2 0l3.45-3.46a7.44 7.44 0 0 1 10.59.06 7.53 7.53 0 0 1-.14 10.54z"/></svg>