<svg xmlns="http://www.w3.org/2000/svg" width="37.4" height="34.2" viewBox="0 0 37.4 34.2"><path fill="#bbb" d="M36.92 19.33L31.01 4.11a1.8 1.8 0 0 0 1.04-1.61.57.57 0 0 0-.58-.57.57.57 0 0 0-.58.57c0 .35-.29.64-.65.64a.65.65 0 0 1-.58-.35 1.53 1.53 0 0 0-1.36-.86h-7.37a2.42 2.42 0 0 0-4.7 0H8.85c-.56 0-1.07.32-1.36.86a.64.64 0 0 1-.58.35.65.65 0 0 1-.65-.64.57.57 0 0 0-.57-.57.57.57 0 0 0-.58.57c0 .71.42 1.32 1.03 1.61L.24 19.33a.45.45 0 0 0-.04.2 6.7 6.7 0 0 0 6.71 6.66 6.7 6.7 0 0 0 6.72-6.66.65.65 0 0 0-.04-.2L7.69 4.11c.35-.16.64-.44.83-.79.03-.06.14-.25.33-.25h7.38c.1.38.29.73.55 1.02v26.44h-4.95c-1 0-1.81.8-1.81 1.78 0 .99.81 1.79 1.81 1.79h13.5a1.79 1.79 0 0 0 0-3.57h-4.95V4.09c.26-.29.45-.64.55-1.02h7.37c.19 0 .31.19.34.25.19.35.48.63.83.79l-5.9 15.22a.45.45 0 0 0-.04.2 6.7 6.7 0 0 0 6.71 6.66 6.7 6.7 0 0 0 6.72-6.66.65.65 0 0 0-.04-.2zM6.91 25.05a5.55 5.55 0 0 1-5.53-4.95h11.07a5.56 5.56 0 0 1-5.54 4.95zm5.31-6.09H1.61L6.91 5.3zm6.36-17.72a1.25 1.25 0 1 1 0 2.51c-.7 0-1.27-.56-1.27-1.25 0-.7.57-1.26 1.27-1.26zm.65 3.56v25.73h-1.3V4.8a2.27 2.27 0 0 0 1.3 0zm6.1 26.87c.36 0 .65.29.65.64 0 .36-.29.65-.65.65h-13.5a.66.66 0 0 1-.66-.65c0-.35.3-.64.66-.64zM30.24 5.3l5.3 13.66h-10.6zm0 19.75a5.55 5.55 0 0 1-5.53-4.95h11.07a5.56 5.56 0 0 1-5.54 4.95z"/><path fill="none" stroke="#bbb" stroke-miterlimit="50" stroke-width=".4" d="M36.92 19.33L31.01 4.11a1.8 1.8 0 0 0 1.04-1.61.57.57 0 0 0-.58-.57.57.57 0 0 0-.58.57c0 .35-.29.64-.65.64a.65.65 0 0 1-.58-.35 1.53 1.53 0 0 0-1.36-.86h-7.37a2.42 2.42 0 0 0-4.7 0H8.85c-.56 0-1.07.32-1.36.86a.64.64 0 0 1-.58.35.65.65 0 0 1-.65-.64.57.57 0 0 0-.57-.57.57.57 0 0 0-.58.57c0 .71.42 1.32 1.03 1.61L.24 19.33a.45.45 0 0 0-.04.2 6.7 6.7 0 0 0 6.71 6.66 6.7 6.7 0 0 0 6.72-6.66.65.65 0 0 0-.04-.2L7.69 4.11c.35-.16.64-.44.83-.79.03-.06.14-.25.33-.25h7.38c.1.38.29.73.55 1.02v26.44h-4.95c-1 0-1.81.8-1.81 1.78 0 .99.81 1.79 1.81 1.79h13.5a1.79 1.79 0 0 0 0-3.57h-4.95V4.09c.26-.29.45-.64.55-1.02h7.37c.19 0 .31.19.34.25.19.35.48.63.83.79l-5.9 15.22a.45.45 0 0 0-.04.2 6.7 6.7 0 0 0 6.71 6.66 6.7 6.7 0 0 0 6.72-6.66.65.65 0 0 0-.04-.2zM6.91 25.05a5.55 5.55 0 0 1-5.53-4.95h11.07a5.56 5.56 0 0 1-5.54 4.95zm5.31-6.09H1.61L6.91 5.3zm6.36-17.72a1.25 1.25 0 1 1 0 2.51c-.7 0-1.27-.56-1.27-1.25 0-.7.57-1.26 1.27-1.26zm.65 3.56v25.73h-1.3V4.8a2.27 2.27 0 0 0 1.3 0zm6.1 26.87c.36 0 .65.29.65.64 0 .36-.29.65-.65.65h-13.5a.66.66 0 0 1-.66-.65c0-.35.3-.64.66-.64zM30.24 5.3l5.3 13.66h-10.6zm0 19.75a5.55 5.55 0 0 1-5.53-4.95h11.07a5.56 5.56 0 0 1-5.54 4.95z"/></svg>