<svg xmlns="http://www.w3.org/2000/svg" width="59" height="59" viewBox="0 0 59 59"><path fill="#ee474d" d="M0 29.5a29.5 29.5 0 1 1 59 0 29.5 29.5 0 0 1-59 0z"/><path fill="#fff" d="M28.25 25.51h.54c1.06 0 1.95.16 2.65.5.71.33 1.21.85 1.5 1.56.3.71.36 1.63.18 2.75a5.25 5.25 0 0 1-1.08 2.56A4.77 4.77 0 0 1 30 34.34c-.8.31-1.69.47-2.66.47h-.54zM17 42h10.97c1.76-.01 3.4-.28 4.95-.82a13.55 13.55 0 0 0 4.15-2.33 12.98 12.98 0 0 0 3.06-3.67 14.61 14.61 0 0 0 1.66-4.83c.27-1.76.28-3.32.03-4.67a8.6 8.6 0 0 0-1.42-3.49 8.38 8.38 0 0 0-2.67-2.38 12.31 12.31 0 0 0-3.67-1.37c-1.38-.3-2.87-.45-4.48-.44h-8.82z"/></svg>