<svg xmlns="http://www.w3.org/2000/svg" width="44" height="30" viewBox="0 0 44 30"><path fill="#fff" d="M44 26.45a2.54 2.54 0 0 1-2.6 2.48H2.6A2.54 2.54 0 0 1 0 26.45V2.48A2.54 2.54 0 0 1 2.6 0h38.8C42.84 0 44 1.11 44 2.48z"/><path fill="#f79f1a" d="M10.14 14.6L9.11 9.87c-.18-.65-.69-.84-1.33-.87H3.04L3 9.22c3.69.85 6.13 2.91 7.14 5.38z"/><path fill="#059bbf" d="M20.97 9h-3.06L16 19.69h3.06zM11.97 19.67L16.79 9h-3.24l-3 7.29-.32-1.1c-.58-1.32-2.26-3.23-4.23-4.43l2.74 8.92zM29.73 16.38c.01-1.21-.81-2.14-2.57-2.9-1.07-.5-1.72-.83-1.72-1.33 0-.44.56-.92 1.76-.92 1-.01 1.72.2 2.28.41l.28.12.41-2.31A8.1 8.1 0 0 0 27.43 9c-3.02 0-5.14 1.45-5.16 3.53-.02 1.53 1.52 2.39 2.68 2.9 1.19.53 1.59.86 1.58 1.33-.01.71-.95 1.04-1.83 1.04a6.7 6.7 0 0 1-2.88-.56l-.39-.17-.43 2.4c.71.29 2.03.55 3.4.56 3.22 0 5.31-1.43 5.33-3.65zM32.85 18.08h3.92l.37 1.61h2.84L37.5 9h-2.36c-.73 0-1.28.19-1.6.89L29 19.69h3.21l.64-1.61zm2.1-5.18l.41-1.02.2.92.71 3.09h-2.54c.26-.61 1.22-2.99 1.22-2.99zM41.4 0H2.6A2.54 2.54 0 0 0 0 2.48v2.57h44V2.48A2.54 2.54 0 0 0 41.4 0z"/><path fill="#f79f1a" d="M41.4 29.05H2.6A2.54 2.54 0 0 1 0 26.57V24h44v2.57a2.54 2.54 0 0 1-2.6 2.48z"/><path fill="#202121" d="M1.85 26.45V2.48A2.54 2.54 0 0 1 4.45 0H2.6A2.54 2.54 0 0 0 0 2.48v23.97a2.54 2.54 0 0 0 2.6 2.48h1.85a2.54 2.54 0 0 1-2.6-2.48z"/></svg>