<svg xmlns="http://www.w3.org/2000/svg" width="44" height="29" viewBox="0 0 44 29"><path fill="#34495e" d="M44 26.45a2.54 2.54 0 0 1-2.6 2.48H2.6A2.54 2.54 0 0 1 0 26.45V2.48A2.54 2.54 0 0 1 2.6 0h38.8C42.84 0 44 1.11 44 2.48z"/><path fill="#202121" d="M1.85 26.45V2.48A2.54 2.54 0 0 1 4.45 0H2.6A2.54 2.54 0 0 0 0 2.48v23.97a2.54 2.54 0 0 0 2.6 2.48h1.85a2.54 2.54 0 0 1-2.6-2.48z"/><path fill="#f26e21" d="M26.46 14.06a2.9 2.9 0 0 0-.93-2.17 3.3 3.3 0 0 0-2.29-.89h-.01A3.14 3.14 0 0 0 20 14.08c0 1.7 1.45 3.08 3.23 3.08 1.8 0 3.23-1.36 3.23-3.08v-.02z"/><path fill="#e7e8e3" d="M19.74 15.44a2 2 0 0 1-1.4.65c-1.17-.01-2.03-.83-2.03-2.01 0-.59.23-1.08.6-1.49.35-.32.8-.52 1.32-.52.56 0 1 .17 1.49.65v-1.36a3.18 3.18 0 0 0-1.49-.36c-.79.05-1.53.36-2.1.84-.17.14-.33.29-.46.47a2.9 2.9 0 0 0-.67 1.83c0 1.72 1.43 3.02 3.23 3.02h.06c.5 0 .94-.12 1.5-.35l-.05-1.37c-.02.02.02.04 0 .06zM30.33 12.61l-1.41 3.3L27.3 12H26l2.55 5.98h.68L31.9 12h-1.3zM33 14.61v3.2h3.42v-.95h-2.18v-1.6h2.12v-1.01h-2.12v-1.24h2.18V12H33zM4.74 12H3v5.81h1.74c.93 0 1.62-.24 2.17-.66a2.85 2.85 0 0 0 1.12-2.25c0-1.72-1.3-2.9-3.29-2.9zm1.43 4.38c-.37.3-.87.48-1.62.48h-.37v-3.85h.31c.75 0 1.24.12 1.62.47.43.36.68.89.68 1.42.06.54-.19 1.13-.62 1.48zM9 18v-6h1v6z"/><path fill="#e7e8e3" d="M12.49 14.31c-.75-.24-.94-.41-.94-.71 0-.36.38-.65.87-.65.38 0 .69.12 1 .47l.62-.77a2.82 2.82 0 0 0-1.8-.65c-1.06 0-1.93.71-1.93 1.66 0 .83.37 1.18 1.49 1.6.5.18.69.23.81.35.25.12.37.36.37.6 0 .47-.37.83-.93.83s-1.06-.3-1.3-.78l-.75.72a2.46 2.46 0 0 0 2.11 1.12c1.25 0 2.12-.77 2.12-1.89 0-1.01-.38-1.43-1.74-1.9zM39.55 15.38c.93-.18 1.43-.77 1.43-1.66 0-1.07-.81-1.72-2.18-1.72H37v5.81h1.18V15.5h.19l1.67 2.31h1.43zm-1-.71h-.37v-1.78h.37c.75 0 1.18.29 1.18.89 0 .59-.43.89-1.18.89z"/></svg>