<svg xmlns="http://www.w3.org/2000/svg" width="44" height="29" viewBox="0 0 44 29"><path fill="#3466b7" d="M44 26.51A2.54 2.54 0 0 1 41.4 29H2.6A2.54 2.54 0 0 1 0 26.51V2.49A2.54 2.54 0 0 1 2.6 0h38.8C42.84 0 44 1.11 44 2.49z"/><path fill="#202121" d="M1.76 26.51V2.49A2.48 2.48 0 0 1 4.23 0H2.47A2.48 2.48 0 0 0 0 2.49v24.02A2.48 2.48 0 0 0 2.47 29h1.76a2.48 2.48 0 0 1-2.47-2.49z"/><path fill="#fff" d="M11.16 11l-.95 3.6c-.11.36-.17.67-.23 1.03a5.14 5.14 0 0 0-.22-1.08L8.64 11H7.52l-1.06 3.55a6.9 6.9 0 0 0-.22 1.08c-.06-.36-.12-.72-.23-1.13L5.06 11H4l1.62 5.81h1.23l1.06-3.6c.12-.36.17-.72.23-1.08.05.36.11.72.22 1.08l1.06 3.55h1.23L12.16 11h-1zM14.29 12c-1.4 0-2.29.98-2.29 2.26 0 1.49.84 2.16 2.12 2.16 1.4 0 2.3-.97 2.3-2.31 0-1.49-.9-2.11-2.13-2.11zm-.05 3.6c-.79 0-1.18-.46-1.18-1.44s.56-1.39 1.18-1.39c.78 0 1.17.52 1.17 1.39 0 .98-.56 1.44-1.17 1.44zM17.84 13.03c.11-.31.11-.67.11-.92H17v4.27h1.01v-1.75c0-1.29.44-1.85 1.34-1.7V12c-.84-.05-1.29.47-1.51 1.03zM21.01 11H20V16.81h1.01v-2.62zM24.4 12.49c-1.51 0-2.4.98-2.4 2.42 0 1.23.56 2 1.68 2 .72 0 1.28-.36 1.51-.87-.06.21-.06.57-.06.77h.95V11h-1v1.54c-.23-.05-.45-.05-.68-.05zm.62 2.16c0 .72-.39 1.54-1.12 1.54-.61 0-.89-.46-.89-1.33 0-1.13.56-1.6 1.34-1.6.22 0 .5 0 .73.05h-.06zM28.62 11c-.61 0-1.12.05-1.62.05v5.76h1.01V14.7h.44c1.51 0 2.46-.82 2.46-1.95 0-1.08-.78-1.75-2.29-1.75zm-.17 2.93c-.16 0-.33-.05-.44-.05v-2.11h.5c.95 0 1.34.41 1.34 1.03 0 .72-.56 1.13-1.4 1.13zM34.75 13.39c0-.82-.39-1.39-1.79-1.39-.62 0-1.23.15-1.68.31l.17.72c.39-.21.89-.31 1.34-.31.73 0 .95.31.95.82v.26c-1.73 0-2.74.51-2.74 1.49 0 .72.5 1.18 1.29 1.18.72 0 1.28-.36 1.51-.87-.06.19-.06.47-.06.72h1.01zm-2.24 2.36c-.39 0-.61-.25-.61-.56 0-.41.38-.76 1.73-.77v.15c0 .57-.45 1.18-1.12 1.18z"/><path fill="#fff" d="M37.52 12l-.67 1.75c-.17.46-.33.98-.45 1.34a4.1 4.1 0 0 0-.33-1.14L35.34 12h-1.12l1.79 4.27-.16.41c-.34.77-.73.98-1.18.98-.17 0-.39 0-.56-.05l-.11.77c.11.05.39.05.56.05 1.06 0 1.68-.41 2.24-1.85L38.59 12z"/></svg>