<svg xmlns="http://www.w3.org/2000/svg" width="44" height="29" viewBox="0 0 44 29"><path fill="#92dbef" d="M44 26.45a2.54 2.54 0 0 1-2.6 2.48H2.6A2.54 2.54 0 0 1 0 26.45V2.48A2.54 2.54 0 0 1 2.6 0h38.8C42.84 0 44 1.11 44 2.48z"/><path fill="#202121" d="M1.85 26.45V2.48A2.54 2.54 0 0 1 4.45 0H2.6A2.54 2.54 0 0 0 0 2.48v23.97a2.54 2.54 0 0 0 2.6 2.48h1.85a2.54 2.54 0 0 1-2.6-2.48z"/><path fill="#263b80" d="M28.84 5.58C27.88 4.52 26.09 4 23.61 4h-6.89c-.41 0-.83.39-.97.79L13 21.99c0 .39.28.65.55.65h4.27l1.1-6.43v.26c.14-.39.55-.78.97-.78h2.06c4 0 7.03-1.58 7.99-5.91v-.4c-.14 0-.14 0 0 0 .14-1.7-.14-2.75-1.1-3.8"/><path fill="#232c65" d="M30.02 10.18v-.39-.04a4.3 4.3 0 0 0-.65-.35 6.32 6.32 0 0 0-2.08-.4H25.27h.01-4.22c-.71.03-.91.58-.96.82l-1.1 6.8v.26c.14-.39.55-.79.96-.79h2.07c4 0 7.02-1.57 7.99-5.91z"/><path fill="#139ad6" d="M30.79 10.67A3.44 3.44 0 0 0 29.44 9v.43c-.97 4.34-4 5.91-7.99 5.91h-2.07c-.41 0-.82.39-.96.79v-.1a.3.3 0 0 0-.04.1l-.78 4.52-.28 1.65-.32 1.84c0 .26.14.52.55.52h3.43c.69 0 .91-.51.98-.79l.03-.17.66-3.9s.08-.91 1.02-.91h.35c3.45 0 6.2-1.32 6.89-5.26a5.92 5.92 0 0 0-.12-2.96z"/></svg>