<svg xmlns="http://www.w3.org/2000/svg" width="44" height="29" viewBox="0 0 44 29"><path fill="#e7e8e3" d="M44 26.45a2.54 2.54 0 0 1-2.6 2.48H2.6A2.54 2.54 0 0 1 0 26.45V2.48A2.54 2.54 0 0 1 2.6 0h38.8C42.84 0 44 1.11 44 2.48z"/><path fill="#34495e" d="M0 12V6h44v6z"/><path fill="#fff" d="M0 16v-4h44v4z"/><path fill="#202121" d="M1.85 26.45V2.48A2.54 2.54 0 0 1 4.45 0H2.6A2.54 2.54 0 0 0 0 2.48v23.97a2.54 2.54 0 0 0 2.6 2.48h1.85a2.54 2.54 0 0 1-2.6-2.48z"/><path fill="#ea001b" d="M32.18 21.92c0-1.23.59-2.33 1.52-3.05a4.27 4.27 0 0 0-2.59-.87A4.02 4.02 0 0 0 27 21.92a4.02 4.02 0 0 0 4.11 3.92c.98 0 1.88-.33 2.59-.87a3.85 3.85 0 0 1-1.52-3.05z"/><path fill="#f79f1a" d="M36.59 18c-.98 0-1.88.33-2.59.87a3.85 3.85 0 0 1 1.52 3.05c0 1.23-.59 2.33-1.52 3.05.71.54 1.61.87 2.59.87a4.02 4.02 0 0 0 4.11-3.92A4.02 4.02 0 0 0 36.59 18z"/><path fill="#ff5f01" d="M35.05 22.05c0-1.23-.6-2.33-1.53-3.05a3.83 3.83 0 0 0 0 6.09 3.84 3.84 0 0 0 1.53-3.04z"/><path fill="#fff" d="M13.71 20.37H4.72a.7.7 0 0 1-.72-.69.7.7 0 0 1 .72-.68h8.99c.39 0 .72.31.72.68 0 .38-.33.69-.72.69zM13.71 22.37H4.72a.7.7 0 0 1-.72-.69.7.7 0 0 1 .72-.68h8.99c.39 0 .72.31.72.68 0 .38-.33.69-.72.69zM13.71 25.37H4.72a.7.7 0 0 1-.72-.69.7.7 0 0 1 .72-.68h8.99c.39 0 .72.31.72.68 0 .38-.33.69-.72.69z"/></svg>