<svg xmlns="http://www.w3.org/2000/svg" width="21" height="21" viewBox="0 0 21 21"><path fill="#fff" d="M16.19 13.3c-.65-.64-1.47-.64-2.12 0l-1.47 1.48c-.13.14-.25.17-.41.07-.32-.17-.66-.31-.97-.5a15.4 15.4 0 0 1-3.7-3.37c-.53-.65-1-1.34-1.32-2.13-.07-.15-.06-.26.07-.39.5-.47.98-.96 1.46-1.46.68-.68.68-1.48 0-2.16L6.57 3.67c-.4-.4-.79-.8-1.2-1.19-.65-.64-1.47-.64-2.11 0-.5.49-.98.99-1.49 1.48a2.4 2.4 0 0 0-.76 1.62 7 7 0 0 0 .54 2.97 17.9 17.9 0 0 0 3.19 5.32A19.88 19.88 0 0 0 11.3 19c1.14.56 2.33.99 3.63 1.06.89.05 1.66-.18 2.28-.87.42-.48.9-.91 1.35-1.36.67-.68.67-1.49.01-2.16l-2.38-2.37zM15.51 9.91l1.53-.26a6.77 6.77 0 0 0-1.92-3.7A6.8 6.8 0 0 0 11.22 4L11 5.54a5.29 5.29 0 0 1 4.51 4.37zM17.7 3.23A11.33 11.33 0 0 0 11.22 0L11 1.54a9.77 9.77 0 0 1 5.6 2.8 9.7 9.7 0 0 1 2.75 5.3l1.54-.26a11.48 11.48 0 0 0-3.19-6.15z"/></svg>