<svg xmlns="http://www.w3.org/2000/svg" width="40" height="40" viewBox="0 0 40 40"><path fill="#fff" d="M20 0a20 20 0 1 0-.01 39.99A20 20 0 0 0 20 0zm8.13 16.38l.02.51c0 5.21-3.97 11.21-11.21 11.21-2.23 0-4.3-.65-6.04-1.77a7.87 7.87 0 0 0 5.83-1.63 3.94 3.94 0 0 1-3.68-2.73 3.96 3.96 0 0 0 1.78-.07 3.95 3.95 0 0 1-3.16-3.86v-.05c.53.29 1.14.47 1.79.49a3.94 3.94 0 0 1-1.22-5.26 11.2 11.2 0 0 0 8.12 4.12 3.94 3.94 0 0 1 6.71-3.6 7.8 7.8 0 0 0 2.5-.95 4 4 0 0 1-1.73 2.18c.79-.1 1.55-.31 2.26-.62a7.92 7.92 0 0 1-1.97 2.03z"/></svg>