<svg xmlns="http://www.w3.org/2000/svg" width="77" height="13" viewBox="0 0 77 13"><path fill="#fad017" d="M7.57 1.38l1.35 2.85c.1.2.28.34.49.37l3.02.46c.53.08.74.76.36 1.15L10.6 8.43a.7.7 0 0 0-.18.6l.51 3.14c.09.55-.46.97-.93.71L7.29 11.4a.64.64 0 0 0-.6 0l-2.7 1.48c-.47.26-1.03-.16-.94-.71l.52-3.14a.73.73 0 0 0-.19-.6L1.2 6.21c-.39-.39-.18-1.07.35-1.15l3.03-.46a.63.63 0 0 0 .48-.37l1.35-2.85a.63.63 0 0 1 1.16 0zM39.57 1.38l1.35 2.85c.1.2.28.34.49.37l3.02.46c.53.08.74.76.36 1.15L42.6 8.43a.7.7 0 0 0-.18.6l.51 3.14c.09.55-.46.97-.93.71l-2.71-1.48a.64.64 0 0 0-.6 0l-2.7 1.48c-.47.26-1.03-.16-.94-.71l.52-3.14a.73.73 0 0 0-.19-.6L33.2 6.21c-.39-.39-.18-1.07.35-1.15l3.03-.46a.63.63 0 0 0 .48-.37l1.35-2.85a.63.63 0 0 1 1.16 0zM23.57 1.38l1.35 2.85c.1.2.28.34.49.37l3.02.46c.53.08.74.76.36 1.15L26.6 8.43a.7.7 0 0 0-.18.6l.51 3.14c.09.55-.46.97-.93.71l-2.71-1.48a.64.64 0 0 0-.6 0l-2.7 1.48c-.47.26-1.03-.16-.94-.71l.52-3.14a.73.73 0 0 0-.19-.6L17.2 6.21c-.39-.39-.18-1.07.35-1.15l3.03-.46a.63.63 0 0 0 .48-.37l1.35-2.85a.63.63 0 0 1 1.16 0zM55.57 1.38l1.35 2.85c.1.2.28.34.49.37l3.02.46c.53.08.74.76.36 1.15L58.6 8.43a.7.7 0 0 0-.18.6l.51 3.14c.09.55-.46.97-.93.71l-2.71-1.48a.64.64 0 0 0-.6 0l-2.7 1.48c-.47.26-1.03-.16-.94-.71l.52-3.14a.73.73 0 0 0-.19-.6L49.2 6.21c-.39-.39-.18-1.07.35-1.15l3.03-.46a.63.63 0 0 0 .48-.37l1.35-2.85a.63.63 0 0 1 1.16 0zM71.57 1.38l1.35 2.85c.1.2.28.34.49.37l3.02.46c.53.08.74.76.36 1.15L74.6 8.43a.7.7 0 0 0-.18.6l.51 3.14c.09.55-.46.97-.93.71l-2.71-1.48a.64.64 0 0 0-.6 0l-2.7 1.48c-.47.26-1.03-.16-.94-.71l.52-3.14a.73.73 0 0 0-.19-.6L65.2 6.21c-.39-.39-.18-1.07.35-1.15l3.03-.46a.63.63 0 0 0 .48-.37l1.35-2.85a.63.63 0 0 1 1.16 0z"/></svg>