<svg xmlns="http://www.w3.org/2000/svg" width="27" height="36" viewBox="0 0 27 36"><path fill="#54acd2" d="M21.71 23.38c-.03-.01-4.12.12-4.72-4.33a7.88 7.88 0 0 0 1.84-1.85 11.34 11.34 0 0 0 2-5.28 1 1 0 0 0 .2-.29c.44-1.07.67-2.21.67-3.39C21.7 3.69 18.32 0 14.17 0a6.9 6.9 0 0 0-3.13.75c-.38.03-.75.1-1.11.21a6.25 6.25 0 0 0-3.9 3.61 9.06 9.06 0 0 0-.44 5.88c.11.43.24.85.4 1.25.05.11.11.2.19.28.4 3.1 1.85 5.67 3.83 7.07-.61 4.45-4.69 4.32-4.72 4.33A5.53 5.53 0 0 0 0 28.94v6.25c0 .45.36.81.8.81h25.4a.8.8 0 0 0 .8-.81v-6.25a5.53 5.53 0 0 0-5.29-5.56zM10.38 2.51c.29-.08.59-.13.91-.15a.7.7 0 0 0 .34-.09c.8-.43 1.66-.65 2.54-.65 3.27 0 5.93 2.97 5.93 6.62l-.01.32A3.46 3.46 0 0 0 17.6 7.5h-5.44c-.32 0-.63-.1-.89-.3a1.47 1.47 0 0 1-.49-.64.98.98 0 0 0-1.86.12 7.51 7.51 0 0 1-1.8 3.28c-.81-3.35.64-6.68 3.26-7.45zm-.7 14.02a9.66 9.66 0 0 1-1.94-4.93 9.23 9.23 0 0 0 2.33-3.3l.25.2c.53.41 1.17.62 1.84.62h5.44c.77 0 1.44.47 1.73 1.14v.02c0 4.58-2.61 8.3-5.83 8.3-1.4 0-2.76-.73-3.82-2.05zm1.84 3.31a5.87 5.87 0 0 0 3.97.01 6.33 6.33 0 0 0 2.32 3.82l-4.2 6.06c-.02.04-.06.06-.11.06s-.08-.02-.11-.06l-4.2-6.06a6.39 6.39 0 0 0 2.33-3.83zM25.4 34.38H1.6v-5.44a3.92 3.92 0 0 1 3.88-3.95c.03 0 1.32-.03 2.33-.5l4.27 6.17a1.71 1.71 0 0 0 2.84 0l4.27-6.17c1.16.5 2.3.5 2.33.5a3.92 3.92 0 0 1 3.88 3.95z"/></svg>